<?xml version="1.0" encoding="utf-8"?>
<!-- Generator: Adobe Illustrator 20.1.0, SVG Export Plug-In . SVG Version: 6.00 Build 0)  -->
<svg version="1.1" id="Layer_1" xmlns="http://www.w3.org/2000/svg" xmlns:xlink="http://www.w3.org/1999/xlink" x="0px" y="0px"
	 width="136.8px" height="31.2px" viewBox="0 0 136.8 31.2" style="enable-background:new 0 0 136.8 31.2;" xml:space="preserve">
<style type="text/css">
	.st0{fill:#FFFFFF;}
</style>
<g>
	<polygon class="st0" points="43.2,29.4 43.2,26.4 42.8,26.4 42.8,29.9 43.3,29.9 45.2,26.9 45.2,29.9 45.7,29.9 45.7,26.4 
		45.1,26.4 	"/>
	<polygon class="st0" points="49.2,27.9 47.2,27.9 47.2,26.4 46.8,26.4 46.8,29.9 47.2,29.9 47.2,28.2 49.2,28.2 49.2,29.9 
		49.6,29.9 49.6,26.4 49.2,26.4 	"/>
	<polygon class="st0" points="55.2,26.4 54.6,26.4 53,28.2 53,26.4 52.6,26.4 52.6,28.2 51,26.4 50.4,26.4 51.8,27.8 50.3,29.9 
		50.8,29.9 52.1,28.1 52.6,28.7 52.6,29.9 53,29.9 53,28.7 53.6,28.1 54.8,29.9 55.4,29.9 53.9,27.8 	"/>
	<path class="st0" d="M57.4,26.3c-0.9,0-1.6,0.8-1.6,1.9c0,1.1,0.6,1.8,1.6,1.8c0.8,0,1.3-0.5,1.5-1.3h-0.4
		c-0.1,0.6-0.5,0.9-1.1,0.9c-0.8,0-1.2-0.7-1.2-1.4h2.7v-0.1C58.9,27.1,58.4,26.3,57.4,26.3z M56.2,27.9c0.1-0.7,0.4-1.2,1.1-1.2
		c0.7,0,1.1,0.5,1.1,1.2H56.2z"/>
	<polygon class="st0" points="62.2,27.9 60.2,27.9 60.2,26.4 59.8,26.4 59.8,29.9 60.2,29.9 60.2,28.2 62.2,28.2 62.2,29.9 
		62.6,29.9 62.6,26.4 62.2,26.4 	"/>
	<path class="st0" d="M65.1,26.3c-0.9,0-1.6,0.8-1.6,1.9c0,1.1,0.6,1.8,1.6,1.8c0.8,0,1.3-0.5,1.5-1.3h-0.4
		c-0.1,0.6-0.5,0.9-1.1,0.9c-0.8,0-1.2-0.7-1.2-1.4h2.7v-0.1C66.7,27.1,66.2,26.3,65.1,26.3z M64,27.9c0.1-0.7,0.4-1.2,1.1-1.2
		c0.7,0,1.1,0.5,1.1,1.2H64z"/>
	<path class="st0" d="M69.2,26.3c-0.6,0-1,0.3-1.3,0.8v-0.7h-0.4v4.8H68v-1.9c0.2,0.5,0.7,0.8,1.2,0.8c0.9,0,1.6-0.7,1.6-1.8
		C70.8,27,70.2,26.3,69.2,26.3z M69.2,29.6c-0.7,0-1.2-0.6-1.2-1.5c0-0.9,0.4-1.5,1.2-1.5c0.7,0,1.2,0.6,1.2,1.5
		C70.3,29,69.9,29.6,69.2,29.6z"/>
	<polygon class="st0" points="74.2,27.9 72.2,27.9 72.2,26.4 71.7,26.4 71.7,29.9 72.2,29.9 72.2,28.2 74.2,28.2 74.2,29.9 
		74.6,29.9 74.6,26.4 74.2,26.4 	"/>
	<rect x="79" y="26.4" class="st0" width="0.4" height="3.5"/>
	<path class="st0" d="M77.2,27.8h-1.1v-1.4h-0.4v3.5h1.6c0.7,0,1.1-0.4,1.1-1.1C78.3,28.2,77.9,27.8,77.2,27.8z M77.1,29.5h-1v-1.4
		h1c0.5,0,0.8,0.3,0.8,0.7C77.9,29.3,77.6,29.5,77.1,29.5z"/>
	<path class="st0" d="M81.9,26.3c-0.9,0-1.6,0.8-1.6,1.9c0,1.1,0.6,1.8,1.6,1.8c0.8,0,1.3-0.5,1.5-1.3H83c-0.1,0.6-0.5,0.9-1.1,0.9
		c-0.8,0-1.2-0.7-1.2-1.4h2.7v-0.1C83.5,27.1,82.9,26.3,81.9,26.3z M80.8,27.9c0.1-0.7,0.4-1.2,1.1-1.2c0.7,0,1.1,0.5,1.1,1.2H80.8z
		"/>
	<path class="st0" d="M88,29.6c-0.7,0-1.2-0.6-1.2-1.5c0-0.9,0.5-1.5,1.2-1.5c0.5,0,0.9,0.3,1,0.8h0.4c-0.1-0.8-0.6-1.2-1.4-1.2
		c-1,0-1.6,0.7-1.6,1.9c0,1.1,0.6,1.8,1.6,1.8c0.8,0,1.4-0.6,1.5-1.4H89C88.9,29.3,88.5,29.6,88,29.6z"/>
	<polygon class="st0" points="90.8,29.4 90.8,26.4 90.3,26.4 90.3,29.9 90.9,29.9 92.8,26.9 92.8,29.9 93.2,29.9 93.2,26.4 
		92.7,26.4 	"/>
	<path class="st0" d="M95.7,29.6c-0.7,0-1.2-0.6-1.2-1.5c0-0.9,0.5-1.5,1.2-1.5c0.5,0,0.9,0.3,1,0.8h0.4c-0.1-0.8-0.6-1.2-1.4-1.2
		c-1,0-1.6,0.7-1.6,1.9c0,1.1,0.6,1.8,1.6,1.8c0.8,0,1.4-0.6,1.5-1.4h-0.4C96.7,29.3,96.3,29.6,95.7,29.6z"/>
	<polygon class="st0" points="97.7,26.7 99,26.7 99,29.9 99.4,29.9 99.4,26.7 100.7,26.7 100.7,26.4 97.7,26.4 	"/>
	<path class="st0" d="M102.7,26.3c-0.9,0-1.6,0.8-1.6,1.9c0,1.1,0.6,1.8,1.6,1.8c0.8,0,1.3-0.5,1.5-1.3h-0.4
		c-0.1,0.6-0.5,0.9-1.1,0.9c-0.8,0-1.2-0.7-1.2-1.4h2.7v-0.1C104.2,27.1,103.7,26.3,102.7,26.3z M101.5,27.9
		c0.1-0.7,0.4-1.2,1.1-1.2c0.7,0,1.1,0.5,1.1,1.2H101.5z"/>
	<polygon class="st0" points="107,29.4 105.7,26.4 105.1,26.4 105.1,29.9 105.5,29.9 105.5,27 105.6,27 106.8,29.9 107.2,29.9 
		108.4,27 108.4,27 108.4,29.9 108.8,29.9 108.8,26.4 108.3,26.4 	"/>
	<rect x="113.3" y="26.4" class="st0" width="0.4" height="3.5"/>
	<path class="st0" d="M111.5,27.8h-1.1v-1.4h-0.4v3.5h1.6c0.7,0,1.1-0.4,1.1-1.1C112.6,28.2,112.2,27.8,111.5,27.8z M111.4,29.5h-1
		v-1.4h1c0.5,0,0.8,0.3,0.8,0.7C112.2,29.3,111.9,29.5,111.4,29.5z"/>
	<polygon class="st0" points="117.4,29.4 117.4,26.4 117,26.4 117,29.9 117.5,29.9 119.4,26.9 119.4,29.9 119.8,29.9 119.8,26.4 
		119.3,26.4 	"/>
	<path class="st0" d="M124.5,29.6c-0.7,0-1.2-0.6-1.2-1.5c0-0.9,0.5-1.5,1.2-1.5c0.5,0,0.9,0.3,1,0.8h0.4c-0.1-0.8-0.6-1.2-1.4-1.2
		c-1,0-1.6,0.7-1.6,1.9c0,1.1,0.6,1.8,1.6,1.8c0.8,0,1.4-0.6,1.5-1.4h-0.4C125.5,29.3,125.1,29.6,124.5,29.6z"/>
	<path class="st0" d="M128.3,26.3c-0.9,0-1.6,0.8-1.6,1.9c0,1.1,0.6,1.8,1.6,1.8c0.8,0,1.3-0.5,1.5-1.3h-0.4
		c-0.1,0.6-0.5,0.9-1.1,0.9c-0.8,0-1.2-0.7-1.2-1.4h2.7v-0.1C129.9,27.1,129.4,26.3,128.3,26.3z M127.2,27.9
		c0.1-0.7,0.4-1.2,1.1-1.2c0.7,0,1.1,0.5,1.1,1.2H127.2z"/>
	<polygon class="st0" points="130.2,26.7 131.5,26.7 131.5,29.9 131.9,29.9 131.9,26.7 133.2,26.7 133.2,26.4 130.2,26.4 	"/>
	<polygon class="st0" points="136.2,26.4 134.3,29.4 134.3,26.4 133.9,26.4 133.9,29.9 134.4,29.9 136.3,26.9 136.3,29.9 
		136.8,29.9 136.8,26.4 	"/>
	<rect x="42.8" y="21.6" class="st0" width="59.7" height="0.3"/>
	<rect x="116.8" y="21.6" class="st0" width="19.9" height="0.3"/>
	<rect x="74.6" y="11.2" class="st0" width="6.4" height="1.4"/>
	<path class="st0" d="M9.7,4.2c1.2,0,2.1-0.9,2.1-2.1c0-1.2-0.9-2.1-2.1-2.1C8.5,0,7.6,0.9,7.6,2.1C7.6,3.3,8.5,4.2,9.7,4.2z M9.7,1
		c0.6,0,1.1,0.5,1.1,1.1c0,0.6-0.5,1.1-1.1,1.1c-0.6,0-1.1-0.5-1.1-1.1C8.6,1.5,9.1,1,9.7,1z"/>
	<path class="st0" d="M32.1,13.1c-0.2,0-0.4,0-0.5,0.1l-5.5-9.5c0.4-0.4,0.6-0.9,0.6-1.5c0-1.2-0.9-2.1-2.1-2.1
		c-1.2,0-2.1,0.9-2.1,2.1c0,0.6,0.2,1.1,0.6,1.5l-5.5,9.6c-0.2-0.1-0.4-0.1-0.7-0.1c-1,0-1.8,0.7-2,1.6H4.1c-0.2-0.9-1-1.6-2-1.6
		C0.9,13.1,0,14,0,15.2c0,1.2,0.9,2.1,2.1,2.1c1,0,1.8-0.7,2-1.5H15c0.1,0.4,0.3,0.7,0.6,1L10.2,26C10,26,9.8,25.9,9.6,25.9
		c-1.2,0-2.1,0.9-2.1,2.1c0,1.2,0.9,2.1,2.1,2.1c1,0,1.8-0.7,2.1-1.7h10.7c0.2,0.9,1,1.7,2.1,1.7c1.2,0,2.1-0.9,2.1-2.1
		c0-0.5-0.2-1-0.5-1.4l5.5-9.5c0.2,0.1,0.4,0.1,0.7,0.1c1.2,0,2.1-0.9,2.1-2.1C34.2,14,33.3,13.1,32.1,13.1z M2.1,16.2
		c-0.6,0-1.1-0.5-1.1-1.1c0-0.6,0.5-1.1,1.1-1.1c0.6,0,1.1,0.5,1.1,1.1C3.2,15.8,2.7,16.2,2.1,16.2z M24.6,1c0.6,0,1.1,0.5,1.1,1.1
		c0,0.6-0.5,1.1-1.1,1.1c-0.6,0-1.1-0.5-1.1-1.1C23.6,1.5,24,1,24.6,1z M17,14.1c0.6,0,1.1,0.5,1.1,1.1c0,0.6-0.5,1.1-1.1,1.1
		c-0.6,0-1.1-0.5-1.1-1.1C15.9,14.6,16.4,14.1,17,14.1z M9.6,29.1c-0.6,0-1.1-0.5-1.1-1.1S9,27,9.6,27c0.6,0,1.1,0.5,1.1,1.1
		S10.2,29.1,9.6,29.1z M22.4,27.4H11.6c-0.1-0.3-0.3-0.6-0.5-0.9l5.4-9.4c0.2,0,0.3,0.1,0.5,0.1c0.2,0,0.5-0.1,0.7-0.1l5.4,9.3
		C22.7,26.7,22.5,27,22.4,27.4z M24.4,29.1c-0.6,0-1.1-0.5-1.1-1.1s0.5-1.1,1.1-1.1s1.1,0.5,1.1,1.1S24.9,29.1,24.4,29.1z
		 M25.1,26.1c-0.2-0.1-0.5-0.1-0.7-0.1c-0.1,0-0.3,0-0.4,0l-5.4-9.4c0.2-0.2,0.4-0.5,0.5-0.8h11.1c0.1,0.3,0.3,0.6,0.5,0.9
		L25.1,26.1z M30.1,14.7H19c-0.1-0.4-0.3-0.7-0.5-1l5.6-9.6c0.2,0.1,0.4,0.1,0.6,0.1c0.2,0,0.4,0,0.6-0.1l5.5,9.5
		C30.4,13.9,30.2,14.3,30.1,14.7z M32.1,16.2c-0.6,0-1.1-0.5-1.1-1.1c0-0.6,0.5-1.1,1.1-1.1s1.1,0.5,1.1,1.1
		C33.2,15.8,32.7,16.2,32.1,16.2z"/>
	<path class="st0" d="M46.5,18c1.1,0,2-0.4,2.7-1.1c0.7-0.7,1.1-1.6,1.1-2.6c0-0.7-0.2-1.4-0.6-2c-0.4-0.6-1.3-1.2-2.5-1.8
		c-1-0.5-1.6-1-1.9-1.3C45,8.8,44.8,8.4,44.8,8c0-0.5,0.2-0.9,0.6-1.2c0.4-0.3,0.8-0.5,1.4-0.5c0.8,0,1.7,0.4,2.5,1.3l1-1.1
		c-1.2-1.1-2.4-1.7-3.5-1.7c-1,0-1.8,0.3-2.5,0.9c-0.7,0.6-1,1.4-1,2.4c0,0.7,0.2,1.4,0.6,2c0.4,0.6,1.2,1.2,2.3,1.7
		c1.1,0.5,1.7,1,2,1.4c0.3,0.4,0.4,0.8,0.4,1.2c0,0.6-0.2,1-0.7,1.5c-0.5,0.4-1,0.6-1.7,0.6c-0.9,0-1.8-0.5-2.6-1.4l-1,1.2
		c0.4,0.6,1,1,1.6,1.3C45.1,17.8,45.8,18,46.5,18z"/>
	<path class="st0" d="M54.8,12.6c-0.1-1.7,0.1-3,0.4-3.7c0.3-0.8,0.8-1.3,1.5-1.7c0.7-0.4,1.4-0.6,2.2-0.6c0.5,0,1,0.2,1.5,0.5
		c0.5,0.3,0.9,0.8,1.2,1.3C61.8,8.9,62,10,62,11.5V18h1.6v-6.4c0.2-1.6,0.4-2.7,0.8-3.2c0.7-1.1,1.7-1.7,3-1.8
		c0.7,0,1.2,0.2,1.7,0.5c0.5,0.3,0.8,0.7,1,1.2c0.2,0.5,0.3,1.4,0.3,2.8V18H72v-6.9c0-1.6-0.2-2.8-0.5-3.6c-0.3-0.8-0.8-1.4-1.5-1.8
		C69.4,5.2,68.6,5,67.7,5c-1.3,0-2.3,0.3-3.1,0.8C63.8,6.3,63.2,7,62.9,8c-0.3-0.8-0.6-1.3-0.9-1.7c-0.3-0.4-0.8-0.7-1.3-0.9
		c-0.5-0.2-1-0.4-1.7-0.4c-1.2-0.1-2.1,0-3,0.5c-0.8,0.4-1.4,1-1.9,1.7c-0.6,0.8-0.9,2.1-1.1,3.8v2V18h1.6V12.6z"/>
	<rect x="83.4" y="0" class="st0" width="1.6" height="17.9"/>
	<path class="st0" d="M94.4,18c1.9,0,3.5-0.7,4.7-2c1.2-1.3,1.8-2.9,1.8-4.6c0-1.8-0.6-3.3-1.7-4.6c-1.3-1.4-2.9-2.1-4.8-2.1
		c-1.9,0-3.6,0.7-4.8,2.1c-1.2,1.3-1.7,2.8-1.7,4.6c0,1.8,0.6,3.3,1.8,4.6C90.9,17.3,92.4,18,94.4,18z M90.9,7.8
		c1-1,2.1-1.5,3.5-1.5c1.3,0,2.5,0.5,3.5,1.5c1,1,1.4,2.2,1.4,3.6c0,0.9-0.2,1.8-0.7,2.6c-0.4,0.8-1,1.4-1.8,1.8
		c-0.7,0.4-1.6,0.6-2.5,0.6c-0.9,0-1.7-0.2-2.5-0.6c-0.8-0.4-1.3-1-1.8-1.8c-0.4-0.8-0.7-1.6-0.7-2.6C89.5,10,90,8.8,90.9,7.8z"/>
	<path class="st0" d="M114.7,6.5c-0.9-0.7-1.7-1.1-2.3-1.4c-0.8-0.3-1.6-0.4-2.6-0.4c-1.1,0-2.2,0.3-3.2,0.9c-1,0.6-1.8,1.4-2.4,2.4
		c-0.6,1-0.9,2.1-0.9,3.3c0,1.2,0.3,2.2,0.8,3.2c0.6,1,1.3,1.8,2.4,2.3c1,0.6,2.1,0.9,3.3,0.9c1,0,1.9-0.2,2.8-0.6
		c0.9-0.4,1.6-1,2.2-1.8v0.6c0,1.4-0.2,2.4-0.5,3c-0.3,0.6-0.9,1.1-1.6,1.6c-0.8,0.4-1.7,0.6-2.8,0.6c-1.1,0-2.1-0.2-2.8-0.6
		c-0.8-0.4-1.4-1-1.9-1.9h-1.8c0.5,1,1,1.7,1.5,2.3c0.5,0.5,1.2,0.9,2.1,1.2c0.9,0.3,1.8,0.5,2.9,0.5c1.5,0,2.7-0.3,3.8-0.9
		c1.1-0.6,1.8-1.5,2.2-2.7c0.3-0.8,0.5-2.1,0.5-3.9c0-3.1,0-4.8,0-5C116,8.3,115.5,7.1,114.7,6.5z M113.5,14.8
		c-0.9,0.9-2.1,1.3-3.6,1.3c-1.5,0-2.7-0.5-3.6-1.4c-0.9-0.9-1.4-2.1-1.4-3.4c0-0.9,0.2-1.8,0.7-2.5c0.4-0.8,1.1-1.4,1.9-1.8
		c0.8-0.4,1.6-0.7,2.6-0.7c0.9,0,1.7,0.2,2.5,0.7c0.8,0.4,1.4,1,1.8,1.8c0.4,0.7,0.6,1.6,0.6,2.5C114.9,12.7,114.4,13.9,113.5,14.8z
		"/>
	<path class="st0" d="M120.5,2.7c0.4,0,0.7-0.1,0.9-0.4c0.3-0.3,0.4-0.6,0.4-0.9c0-0.4-0.1-0.7-0.4-0.9c-0.3-0.3-0.6-0.4-0.9-0.4
		c-0.4,0-0.7,0.1-1,0.4c-0.2,0.3-0.4,0.6-0.4,0.9c0,0.4,0.1,0.7,0.4,1C119.8,2.6,120.1,2.7,120.5,2.7z"/>
	<rect x="119.7" y="5.3" class="st0" width="1.6" height="12.6"/>
	<path class="st0" d="M130.9,18c1.3,0,2.5-0.2,3.5-0.7c1-0.5,1.8-1.2,2.4-2.1l-1.3-0.8c-1.2,1.5-2.7,2.2-4.6,2.2
		c-1,0-1.9-0.2-2.7-0.7c-0.8-0.4-1.5-1.1-1.9-1.9c-0.5-0.8-0.7-1.7-0.7-2.6c0-1.4,0.5-2.6,1.5-3.6c1-1,2.3-1.5,3.8-1.5
		c1.9,0,3.4,0.7,4.6,2.2l1.3-0.8c-0.4-0.6-0.8-1.2-1.4-1.6c-0.5-0.4-1.2-0.7-2-1c-0.8-0.3-1.6-0.4-2.4-0.4c-1.3,0-2.5,0.3-3.6,0.9
		c-1.1,0.6-1.9,1.4-2.5,2.5c-0.6,1-0.9,2.2-0.9,3.4c0,1.8,0.7,3.3,2,4.6C127.3,17.3,128.9,18,130.9,18z"/>
</g>
</svg>
