<?xml version="1.0" encoding="utf-8"?><svg width="197.5" height="1877" viewBox="0 0 197.5 1877" xmlns="http://www.w3.org/2000/svg" xmlns:xlink="http://www.w3.org/1999/xlink"><svg viewBox="-8406.729 654 136.93 99.156" width="136.93" height="99.156" id="air"><defs><style>.acls-1{fill:#afb9d2}.acls-2{fill:#e4eaf6}.acls-3{fill:#d7deed}.acls-4{fill:#464655}.acls-5{fill:#707487}.acls-6{fill:#959cb3}</style></defs><g id="atechnology-1" transform="translate(-8406.729 583.379)"><path class="acls-1" d="M466.117 421.979h-4.722a2.361 2.361 0 0 1-2.361-2.361V414.9h9.443v4.722a2.361 2.361 0 0 1-2.36 2.357z" transform="translate(-336.27 -252.202)"/><path class="acls-1" d="M24.738 421.979h-4.722a2.361 2.361 0 0 1-2.361-2.361V414.9H27.1v4.722a2.361 2.361 0 0 1-2.362 2.357z" transform="translate(-12.933 -252.202)"/><path class="acls-2" d="M132.208 165.055H4.722A4.721 4.721 0 0 1 0 160.333v-84.99a4.722 4.722 0 0 1 4.722-4.722h127.486a4.722 4.722 0 0 1 4.722 4.722v84.991a4.722 4.722 0 0 1-4.722 4.721z"/><path class="acls-3" d="M95.563 173.267H24.738a7.083 7.083 0 0 1-7.083-7.083V95.359a7.083 7.083 0 0 1 7.083-7.083h70.825a7.083 7.083 0 0 1 7.083 7.083v70.826a7.083 7.083 0 0 1-7.083 7.082z" transform="translate(-12.933 -12.933)"/><circle class="acls-4" cx="37.773" cy="37.773" r="37.773" transform="translate(9.444 80.064)"/><path class="acls-5" d="M176.237 174.935L190.178 159a3.283 3.283 0 0 1 4.793-.16l.006.006a9 9 0 0 1-.437 13.132L183.2 181.9" transform="translate(-129.104 -63.923)"/><path class="acls-5" d="M116.649 253.618l-13.941 15.933a3.283 3.283 0 0 1-4.793.16l-.006-.006a9 9 0 0 1 .437-13.132l11.337-9.92" transform="translate(-69.793 -128.954)"/><path class="acls-5" d="M182.163 247.692l15.937 13.941a3.283 3.283 0 0 1 .16 4.793l-.006.006a9 9 0 0 1-13.132-.437l-9.92-11.337" transform="translate(-128.343 -129.715)"/><path class="acls-5" d="M103.479 188.1l-15.933-13.937a3.283 3.283 0 0 1-.16-4.793l.006-.006a9 9 0 0 1 13.132.437l9.92 11.337" transform="translate(-63.311 -70.405)"/><g transform="translate(9.443 80.064)"><circle class="acls-6" cx="9.443" cy="9.443" r="9.443" transform="translate(28.33 28.33)"/><circle class="acls-6" cx="2.361" cy="2.361" r="2.361"/><circle class="acls-6" cx="2.361" cy="2.361" r="2.361" transform="translate(70.826)"/><circle class="acls-6" cx="2.361" cy="2.361" r="2.361" transform="translate(0 70.825)"/><circle class="acls-6" cx="2.361" cy="2.361" r="2.361" transform="translate(70.826 70.825)"/></g></g></svg><svg viewBox="1069 2099 106.016 122.585" width="106.016" height="122.585" id="alarm" y="100"><defs><style>.ba{fill:#e9a868}.bb{fill:#ce2e2e}.bc{fill:#e84a4a}.bd{fill:#f2d057}</style></defs><g transform="translate(1038.25 2099)"><path class="ba" d="M76.012 106.016v-4.041a56.776 56.776 0 0 0 56.712-56.713h4.038a60.755 60.755 0 0 1-60.754 60.754z"/><path class="bb" d="M76.012 0A45.262 45.262 0 1 1 30.75 45.262 45.263 45.263 0 0 1 76.012 0z"/><path class="bc" d="M76.013 8.083a37.18 37.18 0 1 1-37.18 37.18 37.181 37.181 0 0 1 37.18-37.18z"/><path class="bd" d="M76.012 39.874a5.388 5.388 0 1 1-5.388 5.388 5.394 5.394 0 0 1 5.388-5.388z"/><circle class="bd" cx="7.746" cy="7.746" r="7.746" transform="translate(121.274 37.516)"/><path class="bd" d="M100.537 96.391l-.008 26.194H51.495V96.391z"/><path class="ba" d="M59.578 104.473v10.024H92.45v-10.029z"/></g></svg><svg viewBox="1233.486 854.37 30.409 17.334" width="30.409" height="17.334" id="arrow" y="223"><defs><style>.ca{fill:#fff}</style></defs><path class="ca" d="M1247.186 871.081l-13.075-13.076a2.13 2.13 0 1 1 3.011-3.011l11.574 11.569 11.565-11.569a2.13 2.13 0 0 1 3.011 3.012l-13.076 13.075a2.129 2.129 0 0 1-3.011 0z"/></svg><svg viewBox="-1814.12 946.679 16.04 8.601" width="16.04" height="8.601" id="arrowS" y="241"><defs><style>.da{fill:#fff}</style></defs><path class="da" d="M-1798.247 947.647a.568.568 0 0 0 0-.8.568.568 0 0 0-.8 0l-7.054 7.05-7.052-7.052a.567.567 0 0 0-.8.8l7.453 7.467a.568.568 0 0 0 .8 0z"/></svg><svg viewBox="805 2101 130.869 119.389" width="130.869" height="119.389" id="camera" y="250"><defs><style>.ea{fill:#8697cb}.eb{fill:#556080}.ec{fill:#bdc3c7}.ed{fill:#ecf0f1}.ee{fill:#363e51}.ef{fill:#90bae1}.eg{fill:none;stroke:#556080;stroke-width:2px}</style></defs><path class="ea" d="M805.254 2184.345l7.494-5.308 7.963 11.24-7.494 5.31z"/><path class="eb" d="M825.677 2178.998l-3.568-2.634-.643.08c-2.684.333-5.375-1.364-7.565-3.846l-3.8 2.7 13.267 18.731 10.929-4.7c-3.704-1.946-6.928-6.137-8.62-10.331zm73.895 18.23a13.7 13.7 0 0 1 0 13.776h22.521v-13.776zm-24.13.523a13.786 13.786 0 0 1 8.885-6.987c-5.4-4.932-5.857-13.711-7.152-21.084l-19.522 12.084c6.385 4.714 14.616 9.287 15.989 17.1z"/><path class="ec" d="M906.63 2133.116l-81.83 50.154c-4.97 3.045-13.872-2.43-16.919-7.4l-2.881-4.7 99.835-61.188 2.881 4.7c3.047 4.973 3.884 15.388-1.086 18.434z"/><path class="ed" d="M914.919 2126.434l-1.029-1.678a2.3 2.3 0 0 0-4.225.84c-.239 1.5-.824 3.474-2.275 4.362l-80.98 49.634a2.3 2.3 0 0 0-.636 3.338c3.4 4.523 10.226 9.1 16.7 9.1a10.583 10.583 0 0 0 5.618-1.492l64.226-39.365c3.428-2.1 5.437-6.284 5.657-11.781a24.207 24.207 0 0 0-3.056-12.958z"/><path class="ee" d="M935.869 2220.389h-8.982a4.794 4.794 0 0 1-4.794-4.794v-22.757a4.794 4.794 0 0 1 4.794-4.794h8.982z"/><path class="ef" d="M887.654 2188.044a16.072 16.072 0 1 0 16.071 16.072 16.089 16.089 0 0 0-16.071-16.072zm0 20.664a4.592 4.592 0 1 1 4.592-4.592 4.6 4.6 0 0 1-4.592 4.592z"/><path class="eg" d="M908.318 2140.031h18.368V2101"/></svg><svg viewBox="809 1207.385 85.575 93.03" width="85.575" height="93.03" id="circus" y="370"><defs><style>.fa{fill:#e84a4a}.fb,.fh{fill:#2d4151}.fc{fill:#f2d057}.fd{fill:#f75f5f}.fe{fill:#ce2e2e}.ff{fill:#695a69}.fg{fill:#f9c032}.fh{opacity:.34}.fi{fill:#6eb1e2}.fj{fill:#fff}</style></defs><path class="fa" d="M858.994 1209.885l-7.648 2.5v-5z"/><path class="fb" d="M851.346 1207.385h.937v11.239h-.937z"/><path class="fc" d="M893.718 1249.392a147.342 147.342 0 0 0 .742 51.023H809a147.346 147.346 0 0 0 .719-51.164 129.267 129.267 0 0 0-.691-3.936l-.028-.157s.835-.464 1.308-.7a191.073 191.073 0 0 0 41.422-27.778 191.048 191.048 0 0 0 41 27.571c.612.305 1.729.908 1.729.908l-.028.157c-.178.937-.349 1.871-.506 2.81-.071.42-.139.844-.207 1.266z"/><path class="fa" d="M813.46 1245.159h.1a149.233 149.233 0 0 1 .642 4.093 164.684 164.684 0 0 1-.642 51.164H809a147.346 147.346 0 0 0 .719-51.164 129.267 129.267 0 0 0-.691-3.936m85.547-.157h-.115l-.028.157c-.178.937-.349 1.871-.506 2.81-.073.421-.14.845-.208 1.267a147.343 147.343 0 0 0 .742 51.023h-4.562a164.717 164.717 0 0 1-.663-51.023c.061-.421.122-.845.185-1.267.14-.939.293-1.873.452-2.81.009-.052.016-.105.026-.157h.1m-52.143 55.257h-11.946a242.481 242.481 0 0 0 .323-52.29q-.151-1.486-.323-2.967h11.946q.091 1.482.173 2.967a450.891 450.891 0 0 1-.173 52.29zm39.696 0h-11.946a450.891 450.891 0 0 1-.173-52.29q.081-1.486.173-2.967h11.946q-.172 1.482-.323 2.967a242.482 242.482 0 0 0 .323 52.29z"/><path class="fd" d="M865.626 1245.158c-5.178-7.756-9.833-17.444-13.9-28.479-4.062 11.035-8.717 20.724-13.9 28.479h-11.814a132.213 132.213 0 0 0 25.719-28.479 132.207 132.207 0 0 0 25.719 28.479z"/><path class="fe" d="M834.872 1300.415v-36.54a2.093 2.093 0 0 1 2.093-2.093h29.529a2.093 2.093 0 0 1 2.093 2.093v36.539z"/><path class="ff" d="M836.511 1263.421h30.438v36.994h-30.438z"/><path class="fg" d="M866.949 1263.421v32.623a5.629 5.629 0 0 1-1.99-.393c-5.287-2.035-9.752-11.616-12.058-20.045a57.525 57.525 0 0 1-1.171-5.172 29.944 29.944 0 0 1-.508-4.982 16.126 16.126 0 0 1 .129-2.03z"/><path class="fg" d="M852.238 1265.451a29.945 29.945 0 0 1-.508 4.982c-1.6 9.152-6.811 22.747-13.229 25.217a5.628 5.628 0 0 1-1.99.393v-32.622h15.6a16.126 16.126 0 0 1 .127 2.03z"/><path class="fh" d="M894.432 1245.315c-.178.937-.349 1.871-.506 2.81-.073.421-.14.845-.208 1.267a4.277 4.277 0 0 1-7.736-2.517 4.277 4.277 0 1 1-8.553 0 4.278 4.278 0 0 1-8.555 0 4.277 4.277 0 1 1-8.553 0 4.278 4.278 0 0 1-8.555 0 4.277 4.277 0 1 1-8.553 0 4.277 4.277 0 1 1-8.553 0 4.277 4.277 0 1 1-8.553 0 4.277 4.277 0 1 1-8.553 0 4.278 4.278 0 0 1-7.834 2.376 129.267 129.267 0 0 0-.691-3.936z"/><path class="fi" d="M817.553 1245.159a4.277 4.277 0 1 1-8.553 0"/><path class="fj" d="M826.103 1245.159a4.277 4.277 0 1 1-8.553 0"/><path class="fi" d="M834.659 1245.159a4.277 4.277 0 1 1-8.553 0"/><path class="fj" d="M843.212 1245.159a4.277 4.277 0 1 1-8.553 0"/><path class="fi" d="M851.771 1245.159a4.277 4.277 0 1 1-8.553 0"/><path class="fj" d="M860.322 1245.159a4.278 4.278 0 1 1-8.556 0"/><path class="fi" d="M868.875 1245.159a4.277 4.277 0 1 1-8.553 0"/><path class="fj" d="M877.43 1245.159a4.277 4.277 0 1 1-8.553 0"/><path class="fi" d="M885.981 1245.159a4.277 4.277 0 1 1-8.553 0"/><path class="fj" d="M885.982 1245.159a4.277 4.277 0 1 0 8.553 0"/><path class="fh" d="M864.959 1263.421h-28.448v32.623a5.628 5.628 0 0 0 1.99-.393v-28.016h13.615c-.085.868-.212 1.8-.386 2.8a57.107 57.107 0 0 0 1.171 5.172 57.525 57.525 0 0 0 1.171-5.172c.124-.707.226-1.873.306-2.8h10.582v28.015a5.628 5.628 0 0 0 1.99.393v-32.622z"/><path class="fj" d="M873.91 1259.221a202.13 202.13 0 0 1-44.36 0l.874-7.912a194.149 194.149 0 0 0 42.613 0z"/><path class="fi" d="M846.023 1253.607a1.155 1.155 0 0 1 .107.7 1.833 1.833 0 0 1-.3.75 4.042 4.042 0 0 1-.937 1.048 2.3 2.3 0 0 1-1.629.429 3.117 3.117 0 0 1-1.272-.379l-.163.218a1.222 1.222 0 0 0-.111 1.217 1.77 1.77 0 0 0 1.549.862 2.865 2.865 0 0 0 1.669-.273 1.05 1.05 0 0 0 .391-.344l.012-.028.011-.009.336-.494a.311.311 0 0 1 .422-.092.292.292 0 0 1 .09.4l-.324.487a1.579 1.579 0 0 1-.557.549 2.649 2.649 0 0 1-.827.314 4.393 4.393 0 0 1-1.271.068 2.945 2.945 0 0 1-1.314-.4 2.038 2.038 0 0 1-.746-.806 1.8 1.8 0 0 1-.158-.933 1.727 1.727 0 0 1 .336-.861l.175-.225a1.71 1.71 0 0 1-.415-.551 1.393 1.393 0 0 1-.128-.755 1.507 1.507 0 0 1 1.228-1.324.293.293 0 0 1 .111.576.909.909 0 0 0-.747.812.974.974 0 0 0 .3.771l.6-.828a6 6 0 0 1 1.021-1.135 1.99 1.99 0 0 1 1.374-.447 1.35 1.35 0 0 1 1.167.683zm-3.075 1.231q-.3.421-.609.84a2.515 2.515 0 0 0 .973.272 2.112 2.112 0 0 0 2.021-1.22.881.881 0 0 0 .164-.864.777.777 0 0 0-.682-.367c-.721-.051-1.263.498-1.867 1.339z"/><path class="fi" d="M847.148 1256.21q-.631.956-1.285 1.9a.29.29 0 0 0-.048.308.54.54 0 0 0 .45.229c.463.025.854-.4 1.093-.753l.337-.52a.319.319 0 0 1 .42-.091.292.292 0 0 1 .1.4q-.166.261-.335.522a2.525 2.525 0 0 1-.677.72 1.469 1.469 0 0 1-.966.3 1.165 1.165 0 0 1-.971-.552.829.829 0 0 1 .087-.888q.658-.945 1.292-1.9a.315.315 0 0 1 .415-.087.275.275 0 0 1 .088.412zm.675-1.078a.346.346 0 0 1-.361.325.341.341 0 0 1-.333-.354.336.336 0 0 1 .362-.324.342.342 0 0 1 .331.353z"/><path class="fi" d="M849.435 1255.336c-.052.105-.095.2.092.37q.407.353.819.7a.29.29 0 0 1 .056.369q-.458.741-.929 1.478a.34.34 0 0 0-.048.358.443.443 0 0 0 .377.163c.453.008.828-.424 1.055-.791l.319-.531a.319.319 0 0 1 .416-.106.292.292 0 0 1 .112.4l-.317.533a2.525 2.525 0 0 1-.651.743 1.464 1.464 0 0 1-.945.337 1.029 1.029 0 0 1-.909-.466.872.872 0 0 1 .066-.939q.41-.629.809-1.262-.293-.253-.582-.507-.595.945-1.212 1.884a.334.334 0 0 1-.271.135.47.47 0 0 1-.152-.045.291.291 0 0 1-.1-.4q.7-1.048 1.365-2.106a.8.8 0 0 1 .117-.608.3.3 0 0 1 .409-.1.282.282 0 0 1 .104.391z"/><path class="fi" d="M854.338 1255.516a1.016 1.016 0 0 1-.041 1.058.311.311 0 0 1-.41.117.29.29 0 0 1-.119-.395.481.481 0 0 0 .059-.477.415.415 0 0 0-.373-.147.808.808 0 0 0-.555.242 2.935 2.935 0 0 0-.514.694q-.313.536-.632 1.07a.7.7 0 0 0-.009.708 1.086 1.086 0 0 0 .978.4h.011a1.679 1.679 0 0 0 1.528-.95l.184-.335a.316.316 0 0 1 .412-.129.285.285 0 0 1 .135.393l-.193.346-.01.01a2.272 2.272 0 0 1-2.041 1.247h-.021a1.6 1.6 0 0 1-1.508-.692 1.253 1.253 0 0 1-.181-.66 1.172 1.172 0 0 1 .186-.629q.321-.532.636-1.066c.38-.632.82-1.215 1.582-1.229a1 1 0 0 1 .896.424z"/><path class="fi" d="M858.105 1255.443q-.689 1.358-1.42 2.706a.292.292 0 0 0-.015.311.527.527 0 0 0 .473.179c.463-.026.8-.485.995-.866l.289-.554a.316.316 0 0 1 .408-.136.292.292 0 0 1 .141.388l-.287.556a2.667 2.667 0 0 1-.585.788 1.469 1.469 0 0 1-.928.405 1.162 1.162 0 0 1-.981-.387 1.472 1.472 0 0 1-1.035.479 1.029 1.029 0 0 1-.932-.417 1 1 0 0 1 .044-1.059q.726-1.271 1.413-2.552a.306.306 0 0 1 .4-.124.293.293 0 0 1 .128.392q-.682 1.284-1.4 2.559a.471.471 0 0 0-.057.477.429.429 0 0 0 .385.142.85.85 0 0 0 .566-.254 2.787 2.787 0 0 0 .5-.711q.7-1.285 1.363-2.579a.306.306 0 0 1 .4-.132.292.292 0 0 1 .135.389z"/><path class="fi" d="M860.234 1254.956a.52.52 0 0 1-.03.119c-.162.433.106.877.393 1.347a4.544 4.544 0 0 1 .407.76 1.194 1.194 0 0 1 0 .9 2.144 2.144 0 0 1-.14.266 1.631 1.631 0 0 0 .782-.865l.27-.564a.32.32 0 0 1 .4-.15.292.292 0 0 1 .155.383q-.133.283-.268.565a2.516 2.516 0 0 1-.557.808 1.468 1.468 0 0 1-.914.438l-.413.037a2.172 2.172 0 0 1-1.557-.285c0-.01-.011-.019-.023-.028a.28.28 0 0 1 .022-.41.3.3 0 0 1 .169-.08h.041a.365.365 0 0 1 .212.081 1.23 1.23 0 0 0 .756.037.771.771 0 0 0 .5-.442c.136-.324-.1-.7-.366-1.146a4.829 4.829 0 0 1-.385-.727q-.461.943-.942 1.882a.323.323 0 0 1-.411.136.291.291 0 0 1-.139-.389q.734-1.414 1.422-2.839l.027-.031a.331.331 0 0 1 .439-.106.292.292 0 0 1 .15.303z"/><g transform="translate(830.541 1252.148)"><circle class="fb" cx=".644" cy=".644" r=".644" transform="translate(.351)"/><circle class="fb" cx=".644" cy=".644" r=".644" transform="translate(0 5.21)"/><circle class="fb" cx=".644" cy=".644" r=".644" transform="translate(40.74)"/><circle class="fb" cx=".644" cy=".644" r=".644" transform="translate(41.091 5.21)"/></g></svg><svg viewBox="-8724.991 652 102.87 101.984" width="102.87" height="101.984" id="control" y="464"><defs><style>.gcls-1{fill:#445}.gcls-2{fill:#5a5d6f}.gcls-3{fill:#6f7588}.gcls-4{fill:#929cb4}.gcls-5{fill:#b3e671}.gcls-6{fill:#ffd75b}</style></defs><g id="gtechnology" transform="translate(-8724.991 649.793)"><path class="gcls-1" transform="translate(47.888 23.491)" d="M0 0h7.094v74.492H0z"/><path class="gcls-2" d="M102.87 463.015v3.547a1.774 1.774 0 0 1-1.774 1.774H1.774A1.774 1.774 0 0 1 0 466.562v-3.547a1.774 1.774 0 0 1 1.774-1.774H101.1a1.774 1.774 0 0 1 1.77 1.774z" transform="translate(0 -366.806)"/><path class="gcls-1" transform="translate(41.68 94.436)" d="M0 0h19.51v7.094H0z"/><path class="gcls-3" d="M233.971 460.415h-5.321a3.547 3.547 0 0 1-3.547-3.547v-5.321A3.547 3.547 0 0 1 228.65 448h5.321a3.547 3.547 0 0 1 3.547 3.547v5.321a3.547 3.547 0 0 1-3.547 3.547z" transform="translate(-179.876 -356.225)"/><path class="gcls-4" d="M99.323 27.038H3.547A3.547 3.547 0 0 1 0 23.491V5.754a3.547 3.547 0 0 1 3.547-3.547h95.776a3.547 3.547 0 0 1 3.547 3.547v17.737a3.547 3.547 0 0 1-3.547 3.547z"/><circle class="gcls-5" cx="2.66" cy="2.66" r="2.66" transform="translate(92.229 7.528)"/><circle class="gcls-6" cx="2.66" cy="2.66" r="2.66" transform="translate(92.229 16.396)"/><path class="gcls-2" d="M28.256 42.878a1.774 1.774 0 0 1-1.774-1.778V30.463a1.774 1.774 0 0 1 3.547 0V41.1a1.774 1.774 0 0 1-1.773 1.778z" transform="translate(-21.161 -21.161)"/><path class="gcls-2" d="M63.567 42.878a1.774 1.774 0 0 1-1.774-1.778V30.463a1.774 1.774 0 0 1 3.547 0V41.1a1.774 1.774 0 0 1-1.773 1.778z" transform="translate(-49.377 -21.161)"/><path class="gcls-2" d="M98.877 42.878A1.774 1.774 0 0 1 97.1 41.1V30.463a1.774 1.774 0 0 1 3.547 0V41.1a1.774 1.774 0 0 1-1.77 1.778z" transform="translate(-77.593 -21.161)"/><path class="gcls-2" d="M134.187 42.878a1.774 1.774 0 0 1-1.774-1.774V30.463a1.774 1.774 0 1 1 3.547 0V41.1a1.774 1.774 0 0 1-1.773 1.778z" transform="translate(-105.808 -21.161)"/><path class="gcls-2" d="M169.5 42.878a1.774 1.774 0 0 1-1.774-1.774V30.463a1.774 1.774 0 0 1 3.547 0V41.1a1.774 1.774 0 0 1-1.773 1.778z" transform="translate(-134.025 -21.161)"/><path class="gcls-2" d="M204.808 42.878a1.774 1.774 0 0 1-1.774-1.774V30.463a1.774 1.774 0 0 1 3.547 0V41.1a1.774 1.774 0 0 1-1.773 1.778z" transform="translate(-162.24 -21.161)"/><path class="gcls-3" d="M282.645 42.878h-33.7a1.774 1.774 0 0 1-1.774-1.774V30.463a1.774 1.774 0 0 1 1.774-1.774h33.7a1.774 1.774 0 0 1 1.774 1.774V41.1a1.774 1.774 0 0 1-1.774 1.778z" transform="translate(-197.511 -21.161)"/><path class="gcls-2" d="M293.205 58.719H266.6a1.774 1.774 0 0 1-1.774-1.774 1.774 1.774 0 0 1 1.774-1.774h26.6a1.774 1.774 0 0 1 1.774 1.774 1.774 1.774 0 0 1-1.769 1.774z" transform="translate(-211.618 -42.323)"/><path class="gcls-4" d="M99.323 168.279H3.547A3.547 3.547 0 0 1 0 164.732V147a3.547 3.547 0 0 1 3.547-3.547h95.776A3.547 3.547 0 0 1 102.87 147v17.736a3.547 3.547 0 0 1-3.547 3.543z" transform="translate(0 -112.863)"/><circle class="gcls-5" cx="2.66" cy="2.66" r="2.66" transform="translate(92.229 35.906)"/><circle class="gcls-6" cx="2.66" cy="2.66" r="2.66" transform="translate(92.229 44.774)"/><path class="gcls-2" d="M28.256 184.119a1.774 1.774 0 0 1-1.774-1.774V171.7a1.774 1.774 0 1 1 3.547 0v10.642a1.774 1.774 0 0 1-1.773 1.777z" transform="translate(-21.161 -134.024)"/><path class="gcls-2" d="M63.567 184.119a1.774 1.774 0 0 1-1.774-1.774V171.7a1.774 1.774 0 1 1 3.547 0v10.642a1.774 1.774 0 0 1-1.773 1.777z" transform="translate(-49.377 -134.024)"/><path class="gcls-2" d="M98.877 184.119a1.774 1.774 0 0 1-1.774-1.774V171.7a1.774 1.774 0 1 1 3.547 0v10.642a1.774 1.774 0 0 1-1.773 1.777z" transform="translate(-77.593 -134.024)"/><path class="gcls-2" d="M134.187 184.119a1.774 1.774 0 0 1-1.774-1.774V171.7a1.774 1.774 0 1 1 3.547 0v10.642a1.774 1.774 0 0 1-1.773 1.777z" transform="translate(-105.808 -134.024)"/><path class="gcls-2" d="M169.5 184.119a1.774 1.774 0 0 1-1.774-1.774V171.7a1.774 1.774 0 1 1 3.547 0v10.642a1.774 1.774 0 0 1-1.773 1.777z" transform="translate(-134.025 -134.024)"/><path class="gcls-2" d="M204.808 184.119a1.774 1.774 0 0 1-1.774-1.774V171.7a1.774 1.774 0 1 1 3.547 0v10.642a1.774 1.774 0 0 1-1.773 1.777z" transform="translate(-162.24 -134.024)"/><path class="gcls-3" d="M282.645 184.119h-33.7a1.774 1.774 0 0 1-1.774-1.774V171.7a1.774 1.774 0 0 1 1.774-1.774h33.7a1.774 1.774 0 0 1 1.774 1.774v10.642a1.774 1.774 0 0 1-1.774 1.777z" transform="translate(-197.511 -134.024)"/><path class="gcls-2" d="M293.205 199.96H266.6a1.774 1.774 0 0 1-1.774-1.774 1.774 1.774 0 0 1 1.774-1.774h26.6a1.774 1.774 0 0 1 1.774 1.774 1.774 1.774 0 0 1-1.769 1.774z" transform="translate(-211.618 -155.186)"/><path class="gcls-4" d="M99.323 309.521H3.547A3.547 3.547 0 0 1 0 305.973v-17.736a3.547 3.547 0 0 1 3.547-3.547h95.776a3.547 3.547 0 0 1 3.547 3.547v17.736a3.547 3.547 0 0 1-3.547 3.548z" transform="translate(0 -225.727)"/><circle class="gcls-5" cx="2.66" cy="2.66" r="2.66" transform="translate(92.229 64.284)"/><circle class="gcls-6" cx="2.66" cy="2.66" r="2.66" transform="translate(92.229 73.152)"/><path class="gcls-2" d="M28.256 325.361a1.774 1.774 0 0 1-1.774-1.774v-10.641a1.774 1.774 0 1 1 3.547 0v10.642a1.774 1.774 0 0 1-1.773 1.773z" transform="translate(-21.161 -246.888)"/><path class="gcls-2" d="M63.567 325.361a1.774 1.774 0 0 1-1.774-1.774v-10.641a1.774 1.774 0 1 1 3.547 0v10.642a1.774 1.774 0 0 1-1.773 1.773z" transform="translate(-49.377 -246.888)"/><path class="gcls-2" d="M98.877 325.361a1.774 1.774 0 0 1-1.774-1.774v-10.641a1.774 1.774 0 1 1 3.547 0v10.642a1.774 1.774 0 0 1-1.773 1.773z" transform="translate(-77.593 -246.888)"/><path class="gcls-2" d="M134.187 325.361a1.774 1.774 0 0 1-1.774-1.774v-10.641a1.774 1.774 0 1 1 3.547 0v10.642a1.774 1.774 0 0 1-1.773 1.773z" transform="translate(-105.808 -246.888)"/><path class="gcls-2" d="M169.5 325.361a1.774 1.774 0 0 1-1.774-1.774v-10.641a1.774 1.774 0 1 1 3.547 0v10.642a1.774 1.774 0 0 1-1.773 1.773z" transform="translate(-134.025 -246.888)"/><path class="gcls-2" d="M204.808 325.361a1.774 1.774 0 0 1-1.774-1.774v-10.641a1.774 1.774 0 1 1 3.547 0v10.642a1.774 1.774 0 0 1-1.773 1.773z" transform="translate(-162.24 -246.888)"/><path class="gcls-3" d="M282.645 325.361h-33.7a1.774 1.774 0 0 1-1.774-1.774v-10.641a1.774 1.774 0 0 1 1.774-1.774h33.7a1.774 1.774 0 0 1 1.774 1.774v10.642a1.774 1.774 0 0 1-1.774 1.773z" transform="translate(-197.511 -246.888)"/><path class="gcls-2" d="M293.205 341.2H266.6a1.774 1.774 0 0 1-1.774-1.774 1.774 1.774 0 0 1 1.774-1.774h26.6a1.774 1.774 0 0 1 1.774 1.774 1.774 1.774 0 0 1-1.769 1.774z" transform="translate(-211.618 -268.049)"/></g></svg><svg viewBox="-8002 311.945 114.349 100.056" width="114.349" height="100.056" id="default" y="566"><defs><style>.hcls-1{fill:#7383bf}.hcls-2{fill:#556080}</style></defs><g id="hGroup_2" data-name="Group 2" transform="translate(-9710 -637)"><g id="hGroup_1" data-name="Group 1"><circle id="hEllipse_1" data-name="Ellipse 1" class="hcls-1" cx="5.5" cy="5.5" r="5.5" transform="translate(1735 951)"/><circle id="hEllipse_2" data-name="Ellipse 2" class="hcls-1" cx="5.5" cy="5.5" r="5.5" transform="translate(1784 951)"/><circle id="hEllipse_3" data-name="Ellipse 3" class="hcls-1" cx="5.5" cy="5.5" r="5.5" transform="translate(1809 994)"/><circle id="hEllipse_4" data-name="Ellipse 4" class="hcls-1" cx="5.5" cy="5.5" r="5.5" transform="translate(1784 1036)"/><circle id="hEllipse_5" data-name="Ellipse 5" class="hcls-1" cx="5.5" cy="5.5" r="5.5" transform="translate(1734 1037)"/><circle id="hEllipse_6" data-name="Ellipse 6" class="hcls-1" cx="5.5" cy="5.5" r="5.5" transform="translate(1710 994)"/><circle id="hEllipse_7" data-name="Ellipse 7" class="hcls-1" cx="5.5" cy="5.5" r="5.5" transform="translate(1759 994)"/></g><g id="hlogo_bw" transform="translate(1708 948.945)"><path id="hpath" class="hcls-2" d="M14.581 13.961a6.816 6.816 0 0 0 6.981-6.981A6.816 6.816 0 0 0 14.581 0 6.816 6.816 0 0 0 7.6 6.981a6.816 6.816 0 0 0 6.981 6.98zm0-10.637a3.657 3.657 0 1 1-3.657 3.657 3.689 3.689 0 0 1 3.657-3.657z" transform="translate(17.663)"/><path id="hpath-2" data-name="path" class="hcls-2" d="M106.7 43.313a2.491 2.491 0 0 0-1.662.332L86.759 12.067a6.765 6.765 0 0 0 1.994-4.986 6.981 6.981 0 0 0-13.961 0 6.765 6.765 0 0 0 1.994 4.986L58.5 43.978a4.929 4.929 0 0 0-2.327-.332 6.792 6.792 0 0 0-6.648 5.319h-35.9a6.792 6.792 0 0 0-6.648-5.319A6.37 6.37 0 0 0 0 50.294a6.816 6.816 0 0 0 6.981 6.981 6.87 6.87 0 0 0 6.648-4.986h36.233a6.9 6.9 0 0 0 1.994 3.324l-17.95 30.581c-.665 0-1.33-.332-1.994-.332a6.981 6.981 0 1 0 0 13.961c3.324 0 5.983-2.327 6.981-5.651H74.46a7.172 7.172 0 0 0 6.981 5.651 6.816 6.816 0 0 0 6.981-6.981 7.942 7.942 0 0 0-1.662-4.654l18.282-31.578a4.929 4.929 0 0 0 2.327.332 6.816 6.816 0 0 0 6.981-6.981 7.852 7.852 0 0 0-7.65-6.648zM6.981 53.618a3.657 3.657 0 1 1 3.657-3.657 3.488 3.488 0 0 1-3.657 3.657zM81.773 3.092a3.657 3.657 0 1 1-3.657 3.657c.333-1.995 1.663-3.657 3.657-3.657zM56.51 46.638a3.657 3.657 0 1 1-3.657 3.657 3.689 3.689 0 0 1 3.657-3.657zM31.911 96.5a3.689 3.689 0 0 1-3.657-3.657 3.417 3.417 0 0 1 3.657-3.324 3.689 3.689 0 0 1 3.657 3.657 3.417 3.417 0 0 1-3.657 3.324zm42.549-5.652h-35.9a13.474 13.474 0 0 0-1.66-2.992L54.848 56.61c.665 0 1 .332 1.662.332s1.662-.332 2.327-.332l17.95 30.914a5.62 5.62 0 0 0-2.327 3.324zm6.648 5.652a3.657 3.657 0 1 1 3.657-3.657 3.929 3.929 0 0 1-3.657 3.657zm2.327-9.972a5.657 5.657 0 0 0-2.327-.332h-1.33l-17.95-31.248a7.238 7.238 0 0 0 1.662-2.659h36.9a13.473 13.473 0 0 0 1.662 2.992zm16.621-37.895h-36.9a10.4 10.4 0 0 0-1.656-3.325L80.111 13.4a6.15 6.15 0 0 0 3.989 0l18.283 31.579a6.32 6.32 0 0 0-2.327 3.653zm6.648 4.986a3.657 3.657 0 1 1 3.657-3.657 3.488 3.488 0 0 1-3.661 3.656z" transform="translate(0 .232)"/></g></g></svg><svg viewBox="1334 1206.561 106.711 94.453" width="106.711" height="94.453" id="factory" y="667"><defs><style>.ia{fill:#dfd0c6}.ib{fill:#83727a}.ic{fill:#a08a8a}.id{fill:#695a69}.ie{fill:#c8b2a8}</style></defs><path class="ia" d="M1354.189 1282.268v-.721h14.42v-71.381H1334v90.848h20.189v-18.746zm5.047-58.4v-2.166h3.605v7.931h-3.605v-5.768zm0 20.189v-2.166h3.605v7.931h-3.605v-5.768zm0 20.189v-2.164h3.605v7.931h-3.605v-5.771zm-5.047-40.381v-2.163h3.605v7.931h-3.605zm0 20.189v-2.163h3.605v7.931h-3.605zm0 20.189v-2.161h3.605v7.931h-3.605zm-10.816 20.188v5.768h-3.605v-7.931h3.605zm0-20.189v5.768h-3.605v-7.928h3.605zm0-20.189v5.769h-3.605v-7.931h3.605zm0-20.189v5.768h-3.605v-7.93h3.605zm5.047 60.566v5.768h-3.605v-7.931h3.605zm0-20.189v5.768h-3.605v-7.927h3.605zm0-20.189v5.77h-3.605v-7.931h3.605zm0-20.189v5.768h-3.605v-7.929h3.605z"/><path class="ib" d="M1408.986 1241.891h5.047v59.123h-5.047zm10.094 0h5.047v59.123h-5.047zm10.094 0h5.047v59.123h-5.047z"/><path class="ic" d="M1354.189 1283.71v17.3h49.751v-17.3zm5.768 6.489v5.047h-2.879v-7.931h2.884zm3.605 0v5.047h-2.884v-7.931h2.884v2.884zm5.768 0v5.047h-2.884v-7.931h2.884zm3.605 0v5.047h-2.884v-7.931h2.884v2.884zm5.768 0v5.047h-2.884v-7.931h2.884zm3.605 0v5.047h-2.884v-7.931h2.884zm5.768 0v5.047h-2.884v-7.931h2.886zm3.605 0v5.047h-2.883v-7.931h2.88zm5.768 0v5.047h-2.884v-7.931h2.884zm3.605 0v5.047h-2.884v-7.931h2.884z"/><path class="id" d="M1368.609 1241.891h5.047v39.656h5.047v-39.656h5.047v39.656h5.047v-39.656h5.047v39.656h5.047v-39.656h5.047v59.125h5.047v-59.125h5.048v59.125h5.047v-59.125h5.047v59.125h5.047v-59.125h5.047v59.125h5.047v-59.125h1.442v-3.605h-72.1z"/><path class="ie" d="M1368.609 1208.724v-2.163H1334v3.605h34.609z"/><path class="ic" d="M1368.609 1234.681h72.102v3.605h-72.102z"/><path class="id" d="M1339.768 1221.702h3.605v2.163h-3.605z"/><path class="ic" d="M1339.768 1229.633h3.605v-2.163l-3.605-3.61z"/><path class="ib" d="M1343.373 1227.47v-3.61h-3.605z"/><path class="id" d="M1344.815 1221.702h3.605v2.163h-3.605z"/><path class="ic" d="M1344.815 1229.633h3.605v-2.163l-3.605-3.61z"/><path class="ib" d="M1348.42 1227.47v-3.61h-3.605z"/><path class="id" d="M1354.189 1221.702h3.605v2.163h-3.605z"/><path class="ic" d="M1357.794 1227.47l-3.605-3.61v5.768h3.605z"/><path class="ib" d="M1357.794 1223.86h-3.605l3.605 3.605z"/><path class="id" d="M1359.236 1221.702h3.605v2.163h-3.605z"/><path class="ic" d="M1362.841 1227.47l-3.605-3.605v5.768h3.605z"/><path class="ib" d="M1362.841 1223.86h-3.605l3.605 3.605z"/><path class="id" d="M1339.768 1241.891h3.605v2.163h-3.605z"/><path class="ic" d="M1339.768 1249.822h3.605v-2.163l-3.605-3.605z"/><path class="ib" d="M1343.373 1247.659v-3.605h-3.605z"/><path class="id" d="M1344.815 1241.891h3.605v2.163h-3.605z"/><path class="ic" d="M1344.815 1249.822h3.605v-2.163l-3.605-3.605z"/><path class="ib" d="M1348.42 1247.659v-3.605h-3.605z"/><path class="id" d="M1354.189 1241.891h3.605v2.163h-3.605z"/><path class="ic" d="M1357.794 1247.659l-3.605-3.605v5.768h3.605z"/><path class="ib" d="M1357.794 1244.054h-3.605l3.605 3.605z"/><path class="id" d="M1359.236 1241.891h3.605v2.163h-3.605z"/><path class="ic" d="M1362.841 1247.659l-3.605-3.605v5.768h3.605z"/><path class="ib" d="M1362.841 1244.054h-3.605l3.605 3.605z"/><path class="id" d="M1339.768 1262.079h3.605v2.163h-3.605z"/><path class="ic" d="M1339.768 1270.015h3.605v-2.163l-3.605-3.605z"/><path class="ib" d="M1343.373 1267.847v-3.605h-3.605z"/><path class="id" d="M1344.815 1262.079h3.605v2.163h-3.605z"/><path class="ic" d="M1344.815 1270.015h3.605v-2.163l-3.605-3.605z"/><path class="ib" d="M1348.42 1267.847v-3.605h-3.605z"/><path class="id" d="M1354.189 1262.079h3.605v2.163h-3.605z"/><path class="ic" d="M1357.794 1267.847l-3.605-3.605v5.773h3.605z"/><path class="ib" d="M1357.794 1264.242h-3.605l3.605 3.605z"/><path class="id" d="M1359.236 1262.079h3.605v2.163h-3.605z"/><path class="ic" d="M1362.841 1267.847l-3.605-3.605v5.773h3.605z"/><path class="ib" d="M1362.841 1264.242h-3.605l3.605 3.605z"/><path class="id" d="M1339.768 1282.268h3.605v2.163h-3.605z"/><path class="ic" d="M1339.768 1290.199h3.605v-2.163l-3.605-3.605z"/><path class="ib" d="M1343.373 1288.036v-3.605h-3.605z"/><path class="id" d="M1344.815 1282.268h3.605v2.163h-3.605z"/><path class="ic" d="M1344.815 1290.199h3.605v-2.163l-3.605-3.605z"/><path class="ib" d="M1348.42 1288.036v-3.605h-3.605zm8.653 7.21h2.884v-5.042l-2.884-2.884z"/><path class="id" d="M1359.957 1290.204v-2.884h-2.884z"/><path class="ib" d="M1360.678 1295.246h2.884v-5.042l-2.884-2.889z"/><path class="id" d="M1363.562 1290.204v-2.884h-2.884z"/><path class="ib" d="M1366.446 1287.315v7.931h2.884v-5.042z"/><path class="id" d="M1366.446 1287.315l2.884 2.884v-2.884z"/><path class="ib" d="M1370.051 1295.246h2.884v-5.042l-2.884-2.884z"/><path class="id" d="M1372.935 1290.204v-2.884h-2.884z"/><path class="ib" d="M1375.819 1295.246h2.884v-5.042l-2.884-2.884z"/><path class="id" d="M1378.703 1290.204v-2.884h-2.884z"/><path class="ib" d="M1379.424 1295.246h2.884v-5.042l-2.884-2.884z"/><path class="id" d="M1382.308 1290.204v-2.884h-2.884z"/><path class="ib" d="M1385.192 1295.246h2.884v-5.042l-2.884-2.884z"/><path class="id" d="M1388.076 1290.204v-2.884h-2.884z"/><path class="ib" d="M1388.797 1295.246h2.884v-5.042l-2.884-2.884z"/><path class="id" d="M1391.681 1290.204v-2.884h-2.884z"/><path class="ib" d="M1394.565 1295.246h2.884v-5.042l-2.884-2.884z"/><path class="id" d="M1397.449 1290.204v-2.884h-2.884z"/><path class="ib" d="M1398.171 1287.315v7.931h2.884v-5.042z"/><path class="id" d="M1398.171 1287.315l2.884 2.884v-2.884z"/><path class="ib" d="M1354.189 1281.547v2.163h49.75v-41.819h-5.047v39.656h-5.047v-39.656h-5.047v39.656h-5.047v-39.656h-5.047v39.656h-5.047v-39.656h-5.047v39.656z"/></svg><svg viewBox="1053 1207.508 132.546 94.389" width="132.546" height="94.389" id="houses" y="762"><defs><style>.ja{fill:#e17277}.jb{fill:#bf515a}.jc{fill:#95ffff}.jd{fill:#80d7f0}.je{fill:#6eb1e2}.jf{fill:#695a69}.jg{fill:#f2d057}.jh{fill:#e9a868}.ji{fill:#7cdaaf}.jj{fill:#65b1a8}</style></defs><path class="ja" d="M1097.182 1223.575l-22.091-10.042-22.091 10.042v70.29h44.182zm-24.1 44.182v20.083h-14.057v-22.092h14.058v2.008zm0-32.133v20.083h-14.057v-22.091h14.058v2.008zm18.075 32.133v20.083H1077.1v-22.092h14.057v2.008zm0-32.133v20.083H1077.1v-22.091h14.057v2.008z"/><path class="jb" d="M1053 1293.864h44.182v8.033H1053z"/><path class="jc" d="M1061.033 1253.699h10.041v-2.008l-10.041-10.042z"/><path class="jd" d="M1071.074 1251.691v-10.042h-10.041z"/><path class="je" d="M1061.033 1235.624h10.041v4.016h-10.041z"/><path class="jf" d="M1061.033 1233.616h-2.008v22.091h14.058v-22.091h-12.05zm10.041 18.075v2.008h-10.041v-12.05h10.042zm0-12.05h-10.041v-4.016h10.042z"/><path class="jc" d="M1079.107 1253.699h10.041v-2.008l-10.041-10.042z"/><path class="jd" d="M1089.148 1251.691v-10.042h-10.041z"/><path class="je" d="M1079.108 1235.624h10.041v4.016h-10.041z"/><path class="jf" d="M1079.107 1233.616h-2.008v22.091h14.058v-22.091h-12.05zm10.041 18.075v2.008h-10.041v-12.05h10.042zm0-12.05h-10.041v-4.016h10.042z"/><path class="jg" d="M1141.364 1293.864v-70.29l-22.091-10.041-22.091 10.042v70.29zm-20.082-40.165v-20.083h14.058v22.091h-14.058zm0 32.132v-20.083h14.058v22.091h-14.058zm-18.075-32.132v-20.083h14.058v22.091h-14.058zm0 32.132v-20.083h14.058v22.091h-14.058z"/><path class="jh" d="M1097.182 1293.864h44.182v8.033h-44.182z"/><path class="ji" d="M1141.364 1223.575v70.29h44.182v-70.29l-22.091-10.042zm20.083 44.182v20.083h-14.058v-22.092h14.058zm0-32.133v20.083h-14.058v-22.091h14.058zm4.017 18.075v-20.083h14.058v22.091h-14.058zm0 32.132v-20.083h14.058v22.091h-14.058z"/><path class="jj" d="M1141.364 1293.864h44.182v8.033h-44.182z"/><path class="jc" d="M1061.033 1285.831h10.041v-2.008l-10.041-10.042z"/><path class="jd" d="M1071.074 1283.823v-10.042h-10.041z"/><path class="je" d="M1061.033 1267.756h10.041v4.016h-10.041z"/><path class="jf" d="M1061.033 1265.748h-2.008v22.091h14.058v-22.091h-12.05zm10.041 18.075v2.008h-10.041v-12.05h10.042zm0-12.05h-10.041v-4.016h10.042z"/><path class="jc" d="M1079.107 1285.831h10.041v-2.008l-10.041-10.042z"/><path class="jd" d="M1089.148 1283.823v-10.042h-10.041z"/><path class="je" d="M1079.108 1267.756h10.041v4.016h-10.041z"/><path class="jf" d="M1079.107 1265.748h-2.008v22.091h14.058v-22.091h-12.05zm10.041 18.075v2.008h-10.041v-12.05h10.042zm0-12.05h-10.041v-4.016h10.042z"/><path class="jc" d="M1115.257 1251.691l-10.042-10.041v12.05h10.042z"/><path class="jd" d="M1115.257 1241.649h-10.042l10.042 10.041z"/><path class="je" d="M1105.215 1235.624h10.041v4.016h-10.041z"/><path class="jf" d="M1115.257 1255.706h2.008v-22.091h-14.058v22.091h12.05zm-10.041-20.083h10.041v4.016h-10.042zm0 6.025h10.041v12.05h-10.042z"/><path class="jc" d="M1133.332 1251.691l-10.042-10.041v12.05h10.042z"/><path class="jd" d="M1133.332 1241.649h-10.042l10.042 10.041z"/><path class="je" d="M1123.29 1235.624h10.041v4.016h-10.041z"/><path class="jf" d="M1133.331 1255.706h2.008v-22.091h-14.058v22.091h12.05zm-10.042-20.083h10.042v4.016h-10.042zm0 6.025h10.042v12.05h-10.042z"/><path class="jc" d="M1115.257 1283.823l-10.042-10.042v12.05h10.042z"/><path class="jd" d="M1115.257 1273.781h-10.042l10.042 10.042z"/><path class="je" d="M1105.215 1267.756h10.041v4.016h-10.041z"/><path class="jf" d="M1115.257 1287.839h2.008v-22.091h-14.058v22.091h12.05zm-10.041-20.083h10.041v4.016h-10.042zm0 6.025h10.041v12.05h-10.042z"/><path class="jc" d="M1133.332 1283.823l-10.042-10.042v12.05h10.042z"/><path class="jd" d="M1133.332 1273.781h-10.042l10.042 10.042z"/><path class="je" d="M1123.29 1267.756h10.041v4.016h-10.041z"/><path class="jf" d="M1133.331 1287.839h2.008v-22.091h-14.058v22.091h12.05zm-10.042-20.083h10.042v4.016h-10.042zm0 6.025h10.042v12.05h-10.042z"/><path class="jc" d="M1149.397 1253.699h10.041v-2.008l-10.041-10.041z"/><path class="jd" d="M1159.439 1251.691v-10.042h-10.042z"/><path class="je" d="M1149.397 1235.624h10.041v4.016h-10.041z"/><path class="jf" d="M1149.397 1233.616h-2.008v22.091h14.058v-22.091h-12.05zm10.041 18.075v2.008h-10.041v-12.05h10.041zm0-12.05h-10.041v-4.016h10.041z"/><path class="jc" d="M1177.514 1251.691l-10.041-10.041v12.05h10.041z"/><path class="jd" d="M1177.514 1241.649h-10.042l10.041 10.041z"/><path class="je" d="M1167.472 1235.624h10.041v4.016h-10.041z"/><path class="jf" d="M1177.513 1255.706h2.008v-22.091h-14.058v22.091h12.05zm-10.042-20.083h10.042v4.016h-10.042zm0 6.025h10.042v12.05h-10.042z"/><path class="jc" d="M1149.397 1285.831h10.041v-2.008l-10.041-10.042z"/><path class="jd" d="M1159.439 1283.823v-10.042h-10.042z"/><path class="je" d="M1149.397 1267.756h10.041v4.016h-10.041z"/><path class="jf" d="M1149.397 1265.748h-2.008v22.091h14.058v-22.091h-12.05zm10.041 18.075v2.008h-10.041v-12.05h10.041zm0-12.05h-10.041v-4.016h10.041z"/><path class="jc" d="M1177.514 1283.823l-10.041-10.042v12.05h10.041z"/><path class="jd" d="M1177.514 1273.781h-10.042l10.041 10.042z"/><path class="je" d="M1167.472 1267.756h10.041v4.016h-10.041z"/><path class="jf" d="M1177.513 1287.839h2.008v-22.091h-14.058v22.091h12.05zm-10.042-20.083h10.042v4.016h-10.042zm0 6.025h10.042v12.05h-10.042zm12.051-58.97v-7.3h-6.022v4.564l-10.041-4.564-22.095 10.039-6.025-2.739v-7.3h-6.024v4.564l-10.042-4.567-22.091 10.042-6.025-2.739v-7.3h-6.024v4.564l-10.042-4.567L1053 1217.55v6.025l22.091-10.042 22.091 10.041 22.091-10.041 22.091 10.041 22.091-10.042 22.091 10.042v-6.024z"/></svg><svg viewBox="-9078 646 114.57 114.569" width="114.57" height="114.569" id="light" y="857"><defs><style>.kcls-1{fill:#b7d6ca}.kcls-2{fill:#96b5a5}.kcls-3{fill:#fff}.kcls-4{fill:#fff6d6}.kcls-5{fill:#ffedad}.kcls-6{fill:#ffd23d}</style></defs><g id="klight"><path class="kcls-1" d="M7.472 57.285A49.869 49.869 0 0 1 57.285 7.472V0a57.285 57.285 0 0 0 0 114.569V107.1A49.869 49.869 0 0 1 7.472 57.285z" transform="translate(-9078 646)"/><path class="kcls-2" d="M230 0v7.472a49.813 49.813 0 1 1 0 99.626v7.472A57.285 57.285 0 0 0 230 0z" transform="translate(-9250.715 646)"/><path class="kcls-3" d="M30 79.813a49.869 49.869 0 0 0 49.813 49.813v-7.472a12.453 12.453 0 0 1 0-24.906v-7.473a9.963 9.963 0 0 1 0-19.925v-7.472a12.453 12.453 0 0 1 0-24.906V30A49.869 49.869 0 0 0 30 79.813zm23.927 27.4a12.453 12.453 0 1 1 12.454-12.454 12.453 12.453 0 0 1-12.454 12.453zm0-54.794a12.453 12.453 0 1 1-12.453 12.452 12.453 12.453 0 0 1 12.453-12.453z" transform="translate(-9100.528 623.472)"/><path class="kcls-4" d="M242.453 49.925A12.453 12.453 0 0 1 230 62.378v7.472a9.963 9.963 0 1 1 0 19.925v7.472a12.453 12.453 0 1 1 0 24.906v7.472A49.813 49.813 0 1 0 230 30v7.472a12.453 12.453 0 0 1 12.453 12.453zm13.432 2.493a12.453 12.453 0 1 1-12.453 12.453 12.453 12.453 0 0 1 12.453-12.453zm0 29.888a12.453 12.453 0 1 1-12.453 12.453 12.453 12.453 0 0 1 12.453-12.454z" transform="translate(-9250.715 623.472)"/><path class="kcls-5" d="M180 72.453a12.453 12.453 0 0 0 12.453 12.453V60A12.453 12.453 0 0 0 180 72.453z" transform="translate(-9213.169 600.944)"/><path class="kcls-6" d="M242.453 72.453A12.453 12.453 0 0 0 230 60v24.906a12.453 12.453 0 0 0 12.453-12.453z" transform="translate(-9250.715 600.944)"/><path class="kcls-6" d="M239.963 199.963A9.963 9.963 0 0 0 230 190v19.925a9.963 9.963 0 0 0 9.963-9.962z" transform="translate(-9250.715 503.322)"/><path class="kcls-5" d="M190 199.963a9.963 9.963 0 0 0 9.963 9.963V190a9.963 9.963 0 0 0-9.963 9.963z" transform="translate(-9220.678 503.322)"/><path class="kcls-4" d="M88.522 144.914v-24.906a12.453 12.453 0 1 0 0 24.906z" transform="translate(-9135.123 555.882)"/><path class="kcls-5" d="M138.522 132.461a12.453 12.453 0 0 0-12.453-12.453v24.906a12.453 12.453 0 0 0 12.453-12.453z" transform="translate(-9172.67 555.882)"/><path class="kcls-4" d="M76.069 252.461a12.453 12.453 0 0 0 12.453 12.453v-24.906a12.453 12.453 0 0 0-12.453 12.453z" transform="translate(-9135.123 465.769)"/><path class="kcls-5" d="M126.069 240.008v24.906a12.453 12.453 0 1 0 0-24.906z" transform="translate(-9172.67 465.769)"/><path class="kcls-5" d="M180 312.453a12.453 12.453 0 0 0 12.453 12.453V300A12.453 12.453 0 0 0 180 312.453z" transform="translate(-9213.169 420.719)"/><path class="kcls-6" d="M242.453 312.453A12.453 12.453 0 0 0 230 300v24.906a12.453 12.453 0 0 0 12.453-12.453z" transform="translate(-9250.715 420.719)"/><path class="kcls-5" d="M296.384 264.914v-24.906a12.453 12.453 0 1 0 0 24.906z" transform="translate(-9291.214 465.769)"/><path class="kcls-6" d="M346.384 252.461a12.453 12.453 0 0 0-12.453-12.453v24.906a12.453 12.453 0 0 0 12.453-12.453z" transform="translate(-9328.761 465.769)"/><path class="kcls-5" d="M296.384 144.914v-24.906a12.453 12.453 0 1 0 0 24.906z" transform="translate(-9291.214 555.882)"/><path class="kcls-6" d="M346.384 132.461a12.453 12.453 0 0 0-12.453-12.453v24.906a12.453 12.453 0 0 0 12.453-12.453z" transform="translate(-9328.761 555.882)"/></g></svg><svg viewBox="757 931 41.144 36.001" width="41.144" height="36.001" id="logoSymbol" y="972"><defs><style>.la{fill:#fff}</style></defs><path class="la" d="M768.602 936.023a2.453 2.453 0 0 0 2.512-2.512 2.453 2.453 0 0 0-2.512-2.511 2.453 2.453 0 0 0-2.512 2.512 2.453 2.453 0 0 0 2.512 2.511zm0-3.827a1.316 1.316 0 1 1-1.312 1.316 1.327 1.327 0 0 1 1.312-1.312zm26.791 14.472a.9.9 0 0 0-.6.12l-6.577-11.362a2.434 2.434 0 0 0 .718-1.794 2.512 2.512 0 0 0-5.023 0 2.434 2.434 0 0 0 .718 1.794l-6.579 11.482a1.773 1.773 0 0 0-.837-.12 2.444 2.444 0 0 0-2.392 1.914H761.9a2.444 2.444 0 0 0-2.392-1.914A2.292 2.292 0 0 0 757 949.18a2.453 2.453 0 0 0 2.512 2.512 2.472 2.472 0 0 0 2.388-1.794h13.041a2.482 2.482 0 0 0 .718 1.2l-6.459 11c-.239 0-.478-.12-.718-.12a2.512 2.512 0 1 0 0 5.023 2.662 2.662 0 0 0 2.512-2.033h12.8a2.581 2.581 0 0 0 2.506 2.033 2.453 2.453 0 0 0 2.512-2.512 2.858 2.858 0 0 0-.6-1.674l6.578-11.362a1.773 1.773 0 0 0 .837.12 2.453 2.453 0 0 0 2.512-2.512 2.825 2.825 0 0 0-2.746-2.393zm-35.881 3.708a1.316 1.316 0 1 1 1.316-1.316 1.255 1.255 0 0 1-1.316 1.316zm26.91-18.18a1.316 1.316 0 1 1-1.316 1.316 1.414 1.414 0 0 1 1.316-1.316zm-9.09 15.668a1.316 1.316 0 1 1-1.316 1.316 1.327 1.327 0 0 1 1.317-1.316zm-8.851 17.94a1.327 1.327 0 0 1-1.316-1.316 1.229 1.229 0 0 1 1.316-1.2 1.327 1.327 0 0 1 1.319 1.321 1.229 1.229 0 0 1-1.318 1.196zm15.309-2.033h-12.916a4.848 4.848 0 0 0-.6-1.076l6.459-11.243c.239 0 .359.12.6.12s.6-.12.837-.12l6.459 11.123a2.022 2.022 0 0 0-.838 1.197zm2.392 2.033a1.316 1.316 0 1 1 1.318-1.315 1.414 1.414 0 0 1-1.317 1.316zm.838-3.584a2.035 2.035 0 0 0-.837-.12h-.483l-6.454-11.245a2.6 2.6 0 0 0 .6-.957h13.274a4.848 4.848 0 0 0 .6 1.076zm5.98-13.638h-13.275a3.741 3.741 0 0 0-.6-1.2l6.7-11.482a2.213 2.213 0 0 0 1.435 0l6.578 11.362a2.274 2.274 0 0 0-.838 1.32zm2.392 1.794a1.316 1.316 0 1 1 1.316-1.316 1.255 1.255 0 0 1-1.315 1.316z"/></svg><svg viewBox="1607 1207 96.154 96.154" width="96.154" height="96.154" id="music" y="1009"><defs><style>.ma{fill:#ecf0f1;stroke:#ecf0f1}.ma,.me,.mh{stroke-width:2px}.mb{fill:#d1d4d1}.mc{fill:#bdc3c7}.md{fill:#7f8c8d}.me{fill:#556080;stroke:#556080}.mf{fill:#464f5d}.mg{fill:#e6e7e8}.mh{fill:#d1f7ef;stroke:#38454f}.mi{fill:#fff}.mj{fill:#86a0c0}.mk{fill:#81f90d}.ml{fill:#ff8980}</style></defs><g transform="translate(1607 1207)"><path class="ma" d="M1 72.427h94.154v22.727H1z"/><path class="mb" d="M9.116 75.674a1.624 1.624 0 0 0-1.623 1.623v4.87a1.623 1.623 0 1 0 3.247 0v-4.87a1.624 1.624 0 0 0-1.624-1.623zm0 9.74a1.624 1.624 0 0 0-1.623 1.623v3.247a1.623 1.623 0 1 0 3.247 0v-3.247a1.624 1.624 0 0 0-1.624-1.623zm11.363-9.74a1.624 1.624 0 0 0-1.623 1.623v1.623a1.623 1.623 0 1 0 3.247 0v-1.623a1.624 1.624 0 0 0-1.624-1.623zm0 6.493a1.624 1.624 0 0 0-1.623 1.623v6.493a1.623 1.623 0 1 0 3.247 0V83.79a1.624 1.624 0 0 0-1.624-1.623zm11.364-6.493a1.624 1.624 0 0 0-1.623 1.623v6.493a1.623 1.623 0 1 0 3.247 0v-6.493a1.624 1.624 0 0 0-1.624-1.623zm0 11.363a1.624 1.624 0 0 0-1.623 1.623v1.623a1.623 1.623 0 1 0 3.247 0V88.66a1.624 1.624 0 0 0-1.624-1.623zm11.363-11.363a1.624 1.624 0 0 0-1.623 1.623v3.247a1.623 1.623 0 0 0 3.247 0v-3.247a1.624 1.624 0 0 0-1.624-1.623zm0 8.117a1.624 1.624 0 0 0-1.623 1.623v4.87a1.623 1.623 0 1 0 3.247 0v-4.87a1.624 1.624 0 0 0-1.624-1.623zm11.364-8.117a1.624 1.624 0 0 0-1.623 1.623v6.493a1.623 1.623 0 1 0 3.247 0v-6.493a1.624 1.624 0 0 0-1.624-1.623zm0 11.363a1.624 1.624 0 0 0-1.623 1.623v1.623a1.623 1.623 0 1 0 3.247 0V88.66a1.624 1.624 0 0 0-1.624-1.623zm11.363-11.363a1.624 1.624 0 0 0-1.623 1.623v1.623a1.623 1.623 0 1 0 3.247 0v-1.623a1.624 1.624 0 0 0-1.624-1.623zm0 6.493a1.624 1.624 0 0 0-1.623 1.623v6.493a1.623 1.623 0 1 0 3.247 0V83.79a1.624 1.624 0 0 0-1.624-1.623z"/><circle class="mc" cx="6.493" cy="6.493" r="6.493" transform="translate(77.297 80.544)"/><path class="md" d="M5.87 82.167h6.493v4.87H5.87zm11.363-3.247h6.493v4.87h-6.493zm11.364 4.87h6.493v4.87h-6.493zm11.363-3.247h6.493v4.87H39.96zm11.364 3.247h6.493v4.87h-6.493zm11.363-4.87h6.493v4.87h-6.493z"/><path class="me" d="M1 23.727h94.154v48.7H1z"/><path class="mf" d="M10.74 67.557a1.624 1.624 0 0 1-1.623-1.624v-4.87a1.623 1.623 0 1 1 3.247 0v4.87a1.624 1.624 0 0 1-1.624 1.624zm0-9.74a1.624 1.624 0 0 1-1.623-1.623V43.207a1.623 1.623 0 1 1 3.247 0v12.987a1.624 1.624 0 0 1-1.624 1.623zm12.986 9.74a1.624 1.624 0 0 1-1.623-1.623V54.57a1.623 1.623 0 1 1 3.247 0v11.364a1.624 1.624 0 0 1-1.624 1.623zm0-16.233a1.624 1.624 0 0 1-1.623-1.623v-6.494a1.623 1.623 0 1 1 3.247 0V49.7a1.624 1.624 0 0 1-1.624 1.624zm12.987 16.233a1.624 1.624 0 0 1-1.623-1.623V64.31a1.623 1.623 0 1 1 3.247 0v1.623a1.624 1.624 0 0 1-1.624 1.624zm0-6.493a1.624 1.624 0 0 1-1.623-1.623V43.207a1.623 1.623 0 0 1 3.247 0v16.234a1.624 1.624 0 0 1-1.624 1.623zM49.7 67.557a1.624 1.624 0 0 1-1.623-1.624v-14.61a1.623 1.623 0 1 1 3.247 0v14.61a1.624 1.624 0 0 1-1.624 1.624zm0-19.48a1.624 1.624 0 0 1-1.623-1.623v-3.247a1.623 1.623 0 0 1 3.247 0v3.247a1.624 1.624 0 0 1-1.624 1.623z"/><path class="mg" d="M9.116 36.713L7.493 35.09v-3.247l1.623-1.623h3.247l1.623 1.623v3.247l-1.623 1.623zm12.987 0L20.48 35.09v-3.247l1.623-1.623h3.247l1.623 1.623v3.247l-1.623 1.623zm12.987 0l-1.623-1.623v-3.247l1.623-1.623h3.247l1.623 1.623v3.247l-1.623 1.623zm12.987 0l-1.623-1.623v-3.247l1.623-1.623h3.247l1.623 1.623v3.247l-1.623 1.623z"/><circle class="mg" cx="14.61" cy="14.61" r="14.61" transform="translate(61.064 28.597)"/><path class="mh" d="M1 1h94.154v22.727H1z"/><path class="mi" d="M7.493 56.194h6.493v4.87H7.493zM20.48 49.7h6.493v4.87H20.48zm12.987 9.74h6.493v4.87h-6.493zm12.987-12.986h6.493v4.87h-6.493z"/><path class="mj" d="M13.987 20.48H7.493a1.624 1.624 0 0 1-1.623-1.623V5.87a1.624 1.624 0 0 1 1.623-1.623h6.493A1.624 1.624 0 0 1 15.61 5.87v12.987a1.624 1.624 0 0 1-1.623 1.623zm-4.87-3.247h3.247V7.494H9.117zM25.35 20.48h-6.494a1.624 1.624 0 0 1-1.623-1.623V5.87a1.624 1.624 0 0 1 1.623-1.623h6.493a1.624 1.624 0 0 1 1.624 1.623v12.987a1.624 1.624 0 0 1-1.623 1.623zm-4.87-3.247h3.247V7.494H20.48zm21.104 3.247H35.09a1.624 1.624 0 0 1-1.623-1.623V5.87a1.624 1.624 0 0 1 1.623-1.623h6.493a1.624 1.624 0 0 1 1.624 1.623v12.987a1.624 1.624 0 0 1-1.623 1.623zm-4.87-3.247h3.247V7.494h-3.247zm16.233 3.247h-6.494a1.623 1.623 0 1 1 0-3.247h4.87v-3.246h-4.87a1.624 1.624 0 0 1-1.623-1.623V5.87a1.624 1.624 0 0 1 1.623-1.623h6.493a1.623 1.623 0 1 1 0 3.247h-4.87v3.246h4.87a1.624 1.624 0 0 1 1.623 1.623v6.494a1.624 1.624 0 0 1-1.622 1.623z"/><circle class="mj" cx="1.623" cy="1.623" r="1.623" transform="translate(28.597 7.493)"/><circle class="mk" cx="1.623" cy="1.623" r="1.623" transform="translate(61.064 61.064)"/><circle class="mk" cx="1.623" cy="1.623" r="1.623" transform="translate(61.064 65.934)"/><circle class="mk" cx="1.623" cy="1.623" r="1.623" transform="translate(67.557 61.064)"/><circle class="mk" cx="1.623" cy="1.623" r="1.623" transform="translate(67.557 65.934)"/><circle class="ml" cx="1.623" cy="1.623" r="1.623" transform="translate(74.05 61.064)"/><circle class="mk" cx="1.623" cy="1.623" r="1.623" transform="translate(74.05 65.934)"/><circle class="mk" cx="1.623" cy="1.623" r="1.623" transform="translate(80.544 61.064)"/><circle class="ml" cx="1.623" cy="1.623" r="1.623" transform="translate(80.544 65.934)"/><circle class="mk" cx="1.623" cy="1.623" r="1.623" transform="translate(87.037 61.064)"/><circle class="mk" cx="1.623" cy="1.623" r="1.623" transform="translate(87.037 65.934)"/><circle class="mj" cx="1.623" cy="1.623" r="1.623" transform="translate(28.597 13.987)"/><circle class="mc" cx="1.623" cy="1.623" r="1.623" transform="translate(74.05 31.844)"/><circle class="mc" cx="1.623" cy="1.623" r="1.623" transform="translate(74.05 51.324)"/><path class="mj" d="M65.934 18.857h-3.247a1.623 1.623 0 0 1 0-3.247h3.247a1.623 1.623 0 0 1 0 3.247zm8.116 0h-3.247a1.623 1.623 0 1 1 0-3.247h3.247a1.623 1.623 0 1 1 0 3.247zm0-4.87h-3.247a1.623 1.623 0 1 1 0-3.247h3.247a1.623 1.623 0 1 1 0 3.247zm0-4.87h-3.247a1.623 1.623 0 1 1 0-3.247h3.247a1.623 1.623 0 1 1 0 3.247zm8.117 9.74H78.92a1.623 1.623 0 1 1 0-3.247h3.247a1.623 1.623 0 1 1 0 3.247zm0-4.87H78.92a1.623 1.623 0 1 1 0-3.247h3.247a1.623 1.623 0 1 1 0 3.247zm8.117 4.87h-3.247a1.623 1.623 0 1 1 0-3.247h3.247a1.623 1.623 0 1 1 0 3.247z"/><circle class="mc" cx="1.623" cy="1.623" r="1.623" transform="translate(83.791 41.584)"/><circle class="mc" cx="1.623" cy="1.623" r="1.623" transform="translate(64.31 41.584)"/><circle class="mc" cx="1.623" cy="1.623" r="1.623" transform="translate(80.544 35.09)"/><circle class="mc" cx="1.623" cy="1.623" r="1.623" transform="translate(67.557 48.077)"/><circle class="mc" cx="1.623" cy="1.623" r="1.623" transform="translate(80.544 48.077)"/><circle class="mc" cx="1.623" cy="1.623" r="1.623" transform="translate(67.557 35.09)"/><circle class="mi" cx="6.493" cy="6.493" r="6.493" transform="translate(77.297 77.297)"/><path class="mc" d="M83.791 85.414a1.619 1.619 0 0 1-1.148-.476l-4.592-4.592a1.626 1.626 0 0 1 2.3-2.3l4.592 4.592a1.623 1.623 0 0 1-1.148 2.771z"/></g></svg><svg viewBox="-7448 304.04 106.922 95.337" width="106.922" height="95.337" id="office" y="1106"><defs><style>.ncls-1{fill:#707487}.ncls-2{fill:#afb9d2}.ncls-3{fill:#c7cfe2}.ncls-4{fill:#8f96ac}</style></defs><g id="nancient" transform="translate(-7448 276.303)"><path id="nRectangle_1" data-name="Rectangle 1" class="ncls-1" transform="translate(11.061 64.082)" d="M0 0h84.8v51.618H0z"/><g id="nGroup_3" data-name="Group 3" transform="translate(1.843 60.396)"><path id="nPath_1" data-name="Path 1" class="ncls-2" d="M110.219 445.654H10.671a1.844 1.844 0 0 1-1.844-1.844v-1.844a1.844 1.844 0 0 1 1.844-1.844h99.548a1.844 1.844 0 0 1 1.844 1.844v1.844a1.844 1.844 0 0 1-1.844 1.844z" transform="translate(-8.827 -386.662)"/><path id="nPath_2" data-name="Path 2" class="ncls-2" d="M110.219 189.654H10.671a1.844 1.844 0 0 1-1.844-1.844v-1.844a1.844 1.844 0 0 1 1.844-1.844h99.548a1.844 1.844 0 0 1 1.844 1.844v1.844a1.844 1.844 0 0 1-1.844 1.844z" transform="translate(-8.827 -184.123)"/></g><g id="nGroup_4" data-name="Group 4" transform="translate(0 27.737)"><path id="nPath_3" data-name="Path 3" class="ncls-3" d="M105.079 463.309H1.844A1.844 1.844 0 0 1 0 461.465v-1.844a1.844 1.844 0 0 1 1.844-1.844h103.235a1.844 1.844 0 0 1 1.844 1.844v1.844a1.844 1.844 0 0 1-1.844 1.844z" transform="translate(0 -367.972)"/><path id="nPath_4" data-name="Path 4" class="ncls-3" d="M105.079 62.239H1.844A1.844 1.844 0 0 1 0 60.4v-2.6a1.844 1.844 0 0 1 .953-1.614L51.68 28.2a3.687 3.687 0 0 1 3.562 0l50.727 27.987a1.844 1.844 0 0 1 .953 1.614v2.6a1.843 1.843 0 0 1-1.843 1.838z" transform="translate(0 -27.737)"/></g><path id="nPath_5" data-name="Path 5" class="ncls-4" d="M26.872 214.293H19.5a1.844 1.844 0 0 1-1.844-1.844v-1.844h11.06v1.844a1.844 1.844 0 0 1-1.844 1.844z" transform="translate(-13.968 -144.68)"/><path id="nRectangle_2" data-name="Rectangle 2" class="ncls-2" transform="translate(5.531 69.613)" d="M0 0h7.374v44.244H0z"/><g id="nGroup_5" data-name="Group 5" transform="translate(3.687 65.926)"><path id="nPath_6" data-name="Path 6" class="ncls-4" d="M19.5 422.469h7.374a1.844 1.844 0 0 1 1.844 1.844v1.844H17.655v-1.844a1.844 1.844 0 0 1 1.845-1.844z" transform="translate(-17.655 -378.225)"/><path id="nPath_7" data-name="Path 7" class="ncls-4" d="M238.734 214.293h-7.374a1.844 1.844 0 0 1-1.844-1.844v-1.844h11.061v1.844a1.844 1.844 0 0 1-1.843 1.844z" transform="translate(-185.273 -210.606)"/></g><path id="nRectangle_3" data-name="Rectangle 3" class="ncls-2" transform="translate(49.774 69.613)" d="M0 0h7.374v44.244H0z"/><g id="nGroup_6" data-name="Group 6" transform="translate(33.183 65.926)"><path id="nPath_8" data-name="Path 8" class="ncls-4" d="M231.361 422.469h7.374a1.844 1.844 0 0 1 1.844 1.844v1.844h-11.062v-1.844a1.844 1.844 0 0 1 1.844-1.844z" transform="translate(-214.769 -378.225)"/><path id="nPath_9" data-name="Path 9" class="ncls-4" d="M168.113 214.293h-7.373a1.844 1.844 0 0 1-1.844-1.844v-1.844h11.061v1.844a1.843 1.843 0 0 1-1.844 1.844z" transform="translate(-158.896 -210.606)"/></g><path id="nRectangle_4" data-name="Rectangle 4" class="ncls-2" transform="translate(35.026 69.613)" d="M0 0h7.374v44.244H0z"/><g id="nGroup_7" data-name="Group 7" transform="translate(18.435 65.926)"><path id="nPath_10" data-name="Path 10" class="ncls-4" d="M160.74 422.469h7.374a1.844 1.844 0 0 1 1.844 1.844v1.844H158.9v-1.844a1.844 1.844 0 0 1 1.84-1.844z" transform="translate(-144.148 -378.225)"/><path id="nPath_11" data-name="Path 11" class="ncls-4" d="M97.493 214.293H90.12a1.844 1.844 0 0 1-1.844-1.844v-1.844h11.061v1.844a1.844 1.844 0 0 1-1.844 1.844z" transform="translate(-88.276 -210.606)"/></g><path id="nRectangle_5" data-name="Rectangle 5" class="ncls-2" transform="translate(20.278 69.613)" d="M0 0h7.374v44.244H0z"/><g id="nGroup_8" data-name="Group 8" transform="translate(18.435 65.926)"><path id="nPath_12" data-name="Path 12" class="ncls-4" d="M90.119 422.469h7.374a1.844 1.844 0 0 1 1.844 1.844v1.844H88.276v-1.844a1.844 1.844 0 0 1 1.843-1.844z" transform="translate(-88.276 -378.225)"/><path id="nPath_13" data-name="Path 13" class="ncls-4" d="M309.355 214.293h-7.374a1.844 1.844 0 0 1-1.844-1.844v-1.844H311.2v1.844a1.844 1.844 0 0 1-1.845 1.844z" transform="translate(-255.894 -210.606)"/></g><path id="nRectangle_6" data-name="Rectangle 6" class="ncls-2" transform="translate(64.522 69.613)" d="M0 0h7.374v44.244H0z"/><g id="nGroup_9" data-name="Group 9" transform="translate(62.679 65.926)"><path id="nPath_14" data-name="Path 14" class="ncls-4" d="M301.982 422.469h7.374a1.844 1.844 0 0 1 1.844 1.844v1.844h-11.062v-1.844a1.844 1.844 0 0 1 1.844-1.844z" transform="translate(-300.138 -378.225)"/><path id="nPath_15" data-name="Path 15" class="ncls-4" d="M450.6 214.293h-7.374a1.844 1.844 0 0 1-1.844-1.844v-1.844h11.058v1.844a1.844 1.844 0 0 1-1.84 1.844z" transform="translate(-411.883 -210.606)"/></g><path id="nRectangle_7" data-name="Rectangle 7" class="ncls-2" transform="translate(94.018 69.613)" d="M0 0h7.374v44.244H0z"/><g id="nGroup_10" data-name="Group 10" transform="translate(77.426 65.926)"><path id="nPath_16" data-name="Path 16" class="ncls-4" d="M443.223 422.469h7.377a1.844 1.844 0 0 1 1.844 1.844v1.844h-11.065v-1.844a1.844 1.844 0 0 1 1.844-1.844z" transform="translate(-426.631 -378.225)"/><path id="nPath_17" data-name="Path 17" class="ncls-4" d="M379.976 214.293H372.6a1.844 1.844 0 0 1-1.844-1.844v-1.844h11.064v1.844a1.844 1.844 0 0 1-1.844 1.844z" transform="translate(-370.759 -210.606)"/></g><path id="nRectangle_8" data-name="Rectangle 8" class="ncls-2" transform="translate(79.27 69.613)" d="M0 0h7.374v44.244H0z"/><path id="nPath_18" data-name="Path 18" class="ncls-4" d="M372.6 422.469h7.374a1.844 1.844 0 0 1 1.844 1.844v1.844h-11.06v-1.844a1.844 1.844 0 0 1 1.842-1.844z" transform="translate(-293.332 -312.299)"/><path id="nPath_19" data-name="Path 19" class="ncls-2" d="M96.834 55.474l42.012 23.179H54.822l42.012-23.179" transform="translate(-43.373 -21.944)"/><g id="nGroup_11" data-name="Group 11" transform="translate(36.87 43.804)"><path id="nPath_20" data-name="Path 20" class="ncls-4" d="M207.89 134.845h-29.5a1.844 1.844 0 0 1-1.839-1.845 1.844 1.844 0 0 1 1.844-1.844h29.5a1.844 1.844 0 0 1 1.839 1.844 1.843 1.843 0 0 1-1.844 1.845z" transform="translate(-176.551 -125.627)"/><path id="nPath_21" data-name="Path 21" class="ncls-4" d="M233.594 108.362h-11.061a1.844 1.844 0 0 1-1.844-1.844 1.844 1.844 0 0 1 1.844-1.844h11.061a1.844 1.844 0 0 1 1.844 1.844 1.844 1.844 0 0 1-1.844 1.844z" transform="translate(-211.472 -104.675)"/></g></g></svg><svg viewBox="1595 2088.06 92.235 126.495" width="92.235" height="126.495" id="satellite" y="1202"><defs><style>.oa{fill:#bdc3c7}.ob{fill:#4e5878}.oc{fill:#ecf0f1}.od{fill:#f2d057}.oe{fill:#556080}.of,.og{fill:#90bae1}.og{opacity:.427}</style></defs><path class="oa" d="M1615.984 2171.124c19.274 14.281 46.074 4.846 46.074 4.846l-.073-.073a6.223 6.223 0 0 0 2.35-1.469c6.425-6.351-2.643-25.882-20.192-43.578-17.549-17.732-37.006-26.947-43.394-20.6a6.564 6.564 0 0 0-1.725 3.084c-13.916 27.649 12.37 54.376 16.96 57.79z"/><path class="ob" d="M1608.608 2177.182a5.836 5.836 0 0 0 11.528-1.762 27.735 27.735 0 0 1-4.846-2.9 22.338 22.338 0 0 1-2.35-2.129 5.818 5.818 0 0 0-4.332 6.791z"/><path class="oc" d="M1621.742 2153.062c16.337 16.484 34.436 25.075 40.384 19.164 5.984-5.911-2.46-24.083-18.8-40.567s-34.436-25.075-40.384-19.164 2.468 24.083 18.8 40.567z"/><g transform="translate(1628.957 2115.468)"><circle class="od" cx="4.5" cy="4.5" r="4.5" transform="translate(19.043 .532)"/><path class="oa" d="M1.784 27.718a8.14 8.14 0 0 0 5.287 2.423L21.352 9.435l-1.725-1.689L.133 22.761a5.1 5.1 0 0 0 1.651 4.957z"/><path class="oa" d="M18.048 5.47A5.47 5.47 0 1 0 23.518 0a5.484 5.484 0 0 0-5.47 5.47zm1.872 0a3.6 3.6 0 1 1 3.6 3.6 3.6 3.6 0 0 1-3.6-3.6z"/></g><path class="oe" d="M1597.701 2214.335a.523.523 0 0 0 .441.22h31.61a.523.523 0 0 0 .441-.22.462.462 0 0 0 .073-.477l-9.509-32.491a.472.472 0 0 0-.367-.367.637.637 0 0 0-.514.11 8.481 8.481 0 0 1-5.654 2.607c-3.378 0-5.654-2.827-5.69-2.827a.575.575 0 0 0-.551-.184.632.632 0 0 0-.441.367l-9.949 32.821a.713.713 0 0 0 .11.441z"/><path class="of" d="M1644.399 2104.858a1.994 1.994 0 0 0 2.607 1.028c4.809-2.129 11.748.037 16.925 5.176 4.7 4.7 6.9 10.794 5.654 15.566a1.99 1.99 0 0 0 3.855.991c1.615-6.131-1.028-13.731-6.682-19.384-6.388-6.388-14.979-8.811-21.33-6.021a2.367 2.367 0 0 0-.587.4 2.031 2.031 0 0 0-.442 2.244z"/><path class="og" d="M1645.317 2092.229a1.994 1.994 0 0 0 2.607 1.028c7.453-3.3 18.209-.037 26.176 7.893 7.2 7.2 10.573 16.631 8.627 24.047a1.99 1.99 0 0 0 3.855.991c2.276-8.738-1.505-19.678-9.655-27.828-9.068-9.068-21.624-12.666-30.545-8.7a2.367 2.367 0 0 0-.587.4 1.845 1.845 0 0 0-.478 2.169z"/></svg><svg viewBox="1319 2105 112.197 110.262" width="112.197" height="110.262" id="server" y="1329"><defs><style>.pa{fill:#556080}.pb{fill:#424a60}.pc{fill:#7383bf}</style></defs><g transform="translate(1319 2104.5)"><path class="pa" d="M105.218 37.254H6.979A6.981 6.981 0 0 1 0 30.275V7.479A6.981 6.981 0 0 1 6.979.5h98.236a6.981 6.981 0 0 1 6.985 6.979v22.794a6.981 6.981 0 0 1-6.982 6.981z"/><path class="pb" d="M105.218 74.008H6.979A6.981 6.981 0 0 1 0 67.029v-22.8a6.981 6.981 0 0 1 6.979-6.975h98.236a6.98 6.98 0 0 1 6.979 6.979v22.794a6.979 6.979 0 0 1-6.976 6.981z"/><path class="pa" d="M105.218 110.762H6.979A6.981 6.981 0 0 1 0 103.783v-22.8a6.981 6.981 0 0 1 6.979-6.975h98.236a6.98 6.98 0 0 1 6.979 6.979v22.794a6.979 6.979 0 0 1-6.976 6.981z"/><circle class="pc" cx="6.771" cy="6.771" r="6.771" transform="translate(11.607 12.107)"/><circle class="pc" cx="1.934" cy="1.934" r="1.934" transform="translate(92.853 14.041)"/><circle class="pc" cx="1.934" cy="1.934" r="1.934" transform="translate(85.115 14.041)"/><circle class="pc" cx="1.934" cy="1.934" r="1.934" transform="translate(96.722 19.844)"/><circle class="pc" cx="1.934" cy="1.934" r="1.934" transform="translate(88.984 19.844)"/><circle class="pc" cx="1.934" cy="1.934" r="1.934" transform="translate(77.377 14.041)"/><circle class="pc" cx="1.934" cy="1.934" r="1.934" transform="translate(81.246 19.844)"/><circle class="pc" cx="1.934" cy="1.934" r="1.934" transform="translate(69.64 14.041)"/><circle class="pc" cx="1.934" cy="1.934" r="1.934" transform="translate(73.508 19.844)"/><circle class="pc" cx="1.934" cy="1.934" r="1.934" transform="translate(61.902 14.041)"/><circle class="pc" cx="1.934" cy="1.934" r="1.934" transform="translate(65.771 19.844)"/><circle class="pc" cx="6.771" cy="6.771" r="6.771" transform="translate(11.607 48.861)"/><circle class="pc" cx="1.934" cy="1.934" r="1.934" transform="translate(92.853 50.795)"/><circle class="pc" cx="1.934" cy="1.934" r="1.934" transform="translate(85.115 50.795)"/><circle class="pc" cx="1.934" cy="1.934" r="1.934" transform="translate(96.722 56.599)"/><circle class="pc" cx="1.934" cy="1.934" r="1.934" transform="translate(88.984 56.599)"/><circle class="pc" cx="1.934" cy="1.934" r="1.934" transform="translate(77.377 50.795)"/><circle class="pc" cx="1.934" cy="1.934" r="1.934" transform="translate(81.246 56.599)"/><circle class="pc" cx="1.934" cy="1.934" r="1.934" transform="translate(69.64 50.795)"/><circle class="pc" cx="1.934" cy="1.934" r="1.934" transform="translate(73.508 56.599)"/><circle class="pc" cx="1.934" cy="1.934" r="1.934" transform="translate(61.902 50.795)"/><circle class="pc" cx="1.934" cy="1.934" r="1.934" transform="translate(65.771 56.599)"/><circle class="pc" cx="6.771" cy="6.771" r="6.771" transform="translate(11.607 85.615)"/><circle class="pc" cx="1.934" cy="1.934" r="1.934" transform="translate(92.853 87.549)"/><circle class="pc" cx="1.934" cy="1.934" r="1.934" transform="translate(85.115 87.549)"/><circle class="pc" cx="1.934" cy="1.934" r="1.934" transform="translate(96.722 93.353)"/><circle class="pc" cx="1.934" cy="1.934" r="1.934" transform="translate(88.984 93.353)"/><circle class="pc" cx="1.934" cy="1.934" r="1.934" transform="translate(77.377 87.549)"/><circle class="pc" cx="1.934" cy="1.934" r="1.934" transform="translate(81.246 93.353)"/><circle class="pc" cx="1.934" cy="1.934" r="1.934" transform="translate(69.64 87.549)"/><circle class="pc" cx="1.934" cy="1.934" r="1.934" transform="translate(73.508 93.353)"/><circle class="pc" cx="1.934" cy="1.934" r="1.934" transform="translate(61.902 87.549)"/><circle class="pc" cx="1.934" cy="1.934" r="1.934" transform="translate(65.771 93.353)"/></g></svg><svg viewBox="3270 5468 197.5 337.6" width="197.5" height="337.6" id="smLogic_dec" y="1440"><defs><style>.qcls-1{fill:#fff}</style></defs><g id="qsmLogic_dec" transform="translate(3270 5468)"><g id="qgroup"><path id="qpath" class="qcls-1" d="M85.1 23.5A23.5 23.5 0 1 0 108.6 0a23.537 23.537 0 0 0-23.5 23.5zm35.5 0a11.95 11.95 0 1 1-12-12 12.1 12.1 0 0 1 12 12z"/><path id="qpath-2" data-name="path" class="qcls-1" d="M197.4 307.4h-67.5a23.58 23.58 0 0 0-5.6-9.7l60.5-104.8a23.468 23.468 0 0 0 5.4.7 22.43 22.43 0 0 0 7.3-1.3v-12.8a12.132 12.132 0 0 1-7.3 2.5 11.95 11.95 0 1 1 7.3-21.4v-12.8a21.964 21.964 0 0 0-7.3-1.3 23.582 23.582 0 0 0-22.9 18.2H46.4a23.591 23.591 0 1 0-.3 11.6h121.6a23.342 23.342 0 0 0 6.9 11.2l-60.2 104.3a22.719 22.719 0 0 0-6.9-1.2 23.5 23.5 0 1 0 23 28.4h67v-11.6zM23.5 181.9a11.95 11.95 0 1 1 12-11.9 11.928 11.928 0 0 1-12 11.9zM107.4 326a11.95 11.95 0 1 1 12-11.9 11.928 11.928 0 0 1-12 11.9z"/></g></g></svg><svg viewBox="-8066.564 654 136.564 98.682" width="136.564" height="98.682" id="stadium" y="1778"><defs><style>.rcls-1{fill:#e84a4a}.rcls-2{opacity:.2}.rcls-3{fill:#333e48}.rcls-4{fill:#ffb819}.rcls-5{fill:#7cdfa8}.rcls-6{fill:#a4a9ad}.rcls-7{fill:#556080}.rcls-8{fill:#90bae1}.rcls-9{fill:#218649}.rcls-10{fill:#00ad68}</style></defs><g id="rstadium"><path class="rcls-1" d="M89.784 89.083l-21.555-8.149v16.3z" transform="translate(-8116.595 575.712)"/><path class="rcls-2" d="M68.229 80.934v16.3l6.234-2.357V83.291z" transform="translate(-8116.595 575.712)"/><path class="rcls-3" d="M62.221 102.576a2.185 2.185 0 0 1-2.185-2.185V73.2a2.185 2.185 0 1 1 4.371 0v27.193a2.185 2.185 0 0 1-2.186 2.183z" transform="translate(-8110.587 582.988)"/><path class="rcls-4" d="M251.987 89.083l-21.556-8.149v16.3z" transform="translate(-8235.533 575.712)"/><path class="rcls-2" d="M230.431 80.934v16.3l6.234-2.357V83.291z" transform="translate(-8235.533 575.712)"/><path class="rcls-3" d="M224.423 102.576a2.185 2.185 0 0 1-2.185-2.185V73.2a2.185 2.185 0 1 1 4.371 0v27.193a2.185 2.185 0 0 1-2.186 2.183z" transform="translate(-8229.525 582.988)"/><path class="rcls-5" d="M414.189 89.083l-21.556-8.149v16.3z" transform="translate(-8354.471 575.712)"/><path class="rcls-2" d="M392.633 80.934v16.3l6.234-2.357V83.291z" transform="translate(-8354.471 575.712)"/><path class="rcls-3" d="M386.625 102.576a2.185 2.185 0 0 1-2.185-2.185V73.2a2.185 2.185 0 1 1 4.371 0v27.193a2.185 2.185 0 0 1-2.186 2.183z" transform="translate(-8348.464 582.988)"/><path class="rcls-6" d="M162.538 218.869H55.676l7.029 55.962h92.8z" transform="translate(-8107.39 474.568)"/><path class="rcls-7" d="M69.254 326.971L71 340.87h96.127l1.746-13.9z" transform="translate(-8117.346 395.3)"/><path class="rcls-2" d="M55.676 218.869l1.054 8.394h104.754l1.054-8.394z" transform="translate(-8107.39 474.568)"/><path class="rcls-3" d="M148.668 202.061v50.051l-24.18-50.987-1.974.936-1.974-.936-24.18 50.987v-50.051h-4.37v50.051l-24.18-50.987-1.974.936-1.974-.936-24.18 50.987v-50.051h-4.37v59.758a2.185 2.185 0 0 0 4.16.936l24.18-50.987v50.052h4.37v-50.051L92.2 262.756a2.185 2.185 0 0 0 3.949 0l24.18-50.987v50.051h4.37v-50.051l24.18 50.987a2.185 2.185 0 0 0 4.16-.936v-59.759z" transform="translate(-8092.457 487.58)"/><path class="rcls-2" d="M91.989 225.786h4.37v-6.918h-4.37zm-56.678 0h4.37v-6.918h-4.37zm26.306-6.917l-3.281 6.918h4.837l.477-1.006v1.006h4.37v-1.006l.477 1.006h4.837l-3.281-6.918zm87.051 0v6.918h4.37v-6.918zm-30.373 0l-3.28 6.918h4.837l.477-1.006v1.006h4.37v-1.006l.477 1.006h4.837l-3.28-6.918z" transform="translate(-8092.457 474.569)"/><path class="rcls-8" d="M136.836 186.559H23.479a7.284 7.284 0 0 1 0-14.568h113.357a7.284 7.284 0 1 1 0 14.568z" transform="translate(-8078.439 508.943)"/><path class="rcls-9" d="M136.564 421.759a1.18 1.18 0 0 1-1.177 1.177H1.177A1.18 1.18 0 0 1 0 421.759v-4.212a1.18 1.18 0 0 1 1.177-1.177h134.21a1.18 1.18 0 0 1 1.177 1.177v4.212z" transform="translate(-8066.564 329.746)"/><path class="rcls-10" d="M47.17 381.659a12.626 12.626 0 0 0-25.252 0z" transform="translate(-8082.636 364.457)"/></g></svg></svg>