<?xml version="1.0" encoding="utf-8"?><svg width="197.5" height="1264" viewBox="0 0 197.5 1264" xmlns="http://www.w3.org/2000/svg" xmlns:xlink="http://www.w3.org/1999/xlink"><svg viewBox="1069 2099 106.016 122.585" width="106.016" height="122.585" id="alarm"><defs><style>.aa{fill:#e9a868}.ab{fill:#ce2e2e}.ac{fill:#e84a4a}.ad{fill:#f2d057}</style></defs><g transform="translate(1038.25 2099)"><path class="aa" d="M76.012 106.016v-4.041a56.776 56.776 0 0 0 56.712-56.713h4.038a60.755 60.755 0 0 1-60.754 60.754z"/><path class="ab" d="M76.012 0A45.262 45.262 0 1 1 30.75 45.262 45.263 45.263 0 0 1 76.012 0z"/><path class="ac" d="M76.013 8.083a37.18 37.18 0 1 1-37.18 37.18 37.181 37.181 0 0 1 37.18-37.18z"/><path class="ad" d="M76.012 39.874a5.388 5.388 0 1 1-5.388 5.388 5.394 5.394 0 0 1 5.388-5.388z"/><circle class="ad" cx="7.746" cy="7.746" r="7.746" transform="translate(121.274 37.516)"/><path class="ad" d="M100.537 96.391l-.008 26.194H51.495V96.391z"/><path class="aa" d="M59.578 104.473v10.024H92.45v-10.029z"/></g></svg><svg viewBox="1233.486 854.37 30.409 17.334" width="30.409" height="17.334" id="arrow" y="123"><defs><style>.ba{fill:#fff}</style></defs><path class="ba" d="M1247.186 871.081l-13.075-13.076a2.13 2.13 0 1 1 3.011-3.011l11.574 11.569 11.565-11.569a2.13 2.13 0 0 1 3.011 3.012l-13.076 13.075a2.129 2.129 0 0 1-3.011 0z"/></svg><svg viewBox="-1814.12 946.679 16.04 8.601" width="16.04" height="8.601" id="arrowS" y="141"><defs><style>.ca{fill:#fff}</style></defs><path class="ca" d="M-1798.247 947.647a.568.568 0 0 0 0-.8.568.568 0 0 0-.8 0l-7.054 7.05-7.052-7.052a.567.567 0 0 0-.8.8l7.453 7.467a.568.568 0 0 0 .8 0z"/></svg><svg viewBox="805 2101 130.869 119.389" width="130.869" height="119.389" id="camera" y="150"><defs><style>.da{fill:#8697cb}.db{fill:#556080}.dc{fill:#bdc3c7}.dd{fill:#ecf0f1}.de{fill:#363e51}.df{fill:#90bae1}.dg{fill:none;stroke:#556080;stroke-width:2px}</style></defs><path class="da" d="M805.254 2184.345l7.494-5.308 7.963 11.24-7.494 5.31z"/><path class="db" d="M825.677 2178.998l-3.568-2.634-.643.08c-2.684.333-5.375-1.364-7.565-3.846l-3.8 2.7 13.267 18.731 10.929-4.7c-3.704-1.946-6.928-6.137-8.62-10.331zm73.895 18.23a13.7 13.7 0 0 1 0 13.776h22.521v-13.776zm-24.13.523a13.786 13.786 0 0 1 8.885-6.987c-5.4-4.932-5.857-13.711-7.152-21.084l-19.522 12.084c6.385 4.714 14.616 9.287 15.989 17.1z"/><path class="dc" d="M906.63 2133.116l-81.83 50.154c-4.97 3.045-13.872-2.43-16.919-7.4l-2.881-4.7 99.835-61.188 2.881 4.7c3.047 4.973 3.884 15.388-1.086 18.434z"/><path class="dd" d="M914.919 2126.434l-1.029-1.678a2.3 2.3 0 0 0-4.225.84c-.239 1.5-.824 3.474-2.275 4.362l-80.98 49.634a2.3 2.3 0 0 0-.636 3.338c3.4 4.523 10.226 9.1 16.7 9.1a10.583 10.583 0 0 0 5.618-1.492l64.226-39.365c3.428-2.1 5.437-6.284 5.657-11.781a24.207 24.207 0 0 0-3.056-12.958z"/><path class="de" d="M935.869 2220.389h-8.982a4.794 4.794 0 0 1-4.794-4.794v-22.757a4.794 4.794 0 0 1 4.794-4.794h8.982z"/><path class="df" d="M887.654 2188.044a16.072 16.072 0 1 0 16.071 16.072 16.089 16.089 0 0 0-16.071-16.072zm0 20.664a4.592 4.592 0 1 1 4.592-4.592 4.6 4.6 0 0 1-4.592 4.592z"/><path class="dg" d="M908.318 2140.031h18.368V2101"/></svg><svg viewBox="809 1207.385 85.575 93.03" width="85.575" height="93.03" id="circus" y="270"><defs><style>.ea{fill:#e84a4a}.eb,.eh{fill:#2d4151}.ec{fill:#f2d057}.ed{fill:#f75f5f}.ee{fill:#ce2e2e}.ef{fill:#695a69}.eg{fill:#f9c032}.eh{opacity:.34}.ei{fill:#6eb1e2}.ej{fill:#fff}</style></defs><path class="ea" d="M858.994 1209.885l-7.648 2.5v-5z"/><path class="eb" d="M851.346 1207.385h.937v11.239h-.937z"/><path class="ec" d="M893.718 1249.392a147.342 147.342 0 0 0 .742 51.023H809a147.346 147.346 0 0 0 .719-51.164 129.267 129.267 0 0 0-.691-3.936l-.028-.157s.835-.464 1.308-.7a191.073 191.073 0 0 0 41.422-27.778 191.048 191.048 0 0 0 41 27.571c.612.305 1.729.908 1.729.908l-.028.157c-.178.937-.349 1.871-.506 2.81-.071.42-.139.844-.207 1.266z"/><path class="ea" d="M813.46 1245.159h.1a149.233 149.233 0 0 1 .642 4.093 164.684 164.684 0 0 1-.642 51.164H809a147.346 147.346 0 0 0 .719-51.164 129.267 129.267 0 0 0-.691-3.936m85.547-.157h-.115l-.028.157c-.178.937-.349 1.871-.506 2.81-.073.421-.14.845-.208 1.267a147.343 147.343 0 0 0 .742 51.023h-4.562a164.717 164.717 0 0 1-.663-51.023c.061-.421.122-.845.185-1.267.14-.939.293-1.873.452-2.81.009-.052.016-.105.026-.157h.1m-52.143 55.257h-11.946a242.481 242.481 0 0 0 .323-52.29q-.151-1.486-.323-2.967h11.946q.091 1.482.173 2.967a450.891 450.891 0 0 1-.173 52.29zm39.696 0h-11.946a450.891 450.891 0 0 1-.173-52.29q.081-1.486.173-2.967h11.946q-.172 1.482-.323 2.967a242.482 242.482 0 0 0 .323 52.29z"/><path class="ed" d="M865.626 1245.158c-5.178-7.756-9.833-17.444-13.9-28.479-4.062 11.035-8.717 20.724-13.9 28.479h-11.814a132.213 132.213 0 0 0 25.719-28.479 132.207 132.207 0 0 0 25.719 28.479z"/><path class="ee" d="M834.872 1300.415v-36.54a2.093 2.093 0 0 1 2.093-2.093h29.529a2.093 2.093 0 0 1 2.093 2.093v36.539z"/><path class="ef" d="M836.511 1263.421h30.438v36.994h-30.438z"/><path class="eg" d="M866.949 1263.421v32.623a5.629 5.629 0 0 1-1.99-.393c-5.287-2.035-9.752-11.616-12.058-20.045a57.525 57.525 0 0 1-1.171-5.172 29.944 29.944 0 0 1-.508-4.982 16.126 16.126 0 0 1 .129-2.03z"/><path class="eg" d="M852.238 1265.451a29.945 29.945 0 0 1-.508 4.982c-1.6 9.152-6.811 22.747-13.229 25.217a5.628 5.628 0 0 1-1.99.393v-32.622h15.6a16.126 16.126 0 0 1 .127 2.03z"/><path class="eh" d="M894.432 1245.315c-.178.937-.349 1.871-.506 2.81-.073.421-.14.845-.208 1.267a4.277 4.277 0 0 1-7.736-2.517 4.277 4.277 0 1 1-8.553 0 4.278 4.278 0 0 1-8.555 0 4.277 4.277 0 1 1-8.553 0 4.278 4.278 0 0 1-8.555 0 4.277 4.277 0 1 1-8.553 0 4.277 4.277 0 1 1-8.553 0 4.277 4.277 0 1 1-8.553 0 4.277 4.277 0 1 1-8.553 0 4.278 4.278 0 0 1-7.834 2.376 129.267 129.267 0 0 0-.691-3.936z"/><path class="ei" d="M817.553 1245.159a4.277 4.277 0 1 1-8.553 0"/><path class="ej" d="M826.103 1245.159a4.277 4.277 0 1 1-8.553 0"/><path class="ei" d="M834.659 1245.159a4.277 4.277 0 1 1-8.553 0"/><path class="ej" d="M843.212 1245.159a4.277 4.277 0 1 1-8.553 0"/><path class="ei" d="M851.771 1245.159a4.277 4.277 0 1 1-8.553 0"/><path class="ej" d="M860.322 1245.159a4.278 4.278 0 1 1-8.556 0"/><path class="ei" d="M868.875 1245.159a4.277 4.277 0 1 1-8.553 0"/><path class="ej" d="M877.43 1245.159a4.277 4.277 0 1 1-8.553 0"/><path class="ei" d="M885.981 1245.159a4.277 4.277 0 1 1-8.553 0"/><path class="ej" d="M885.982 1245.159a4.277 4.277 0 1 0 8.553 0"/><path class="eh" d="M864.959 1263.421h-28.448v32.623a5.628 5.628 0 0 0 1.99-.393v-28.016h13.615c-.085.868-.212 1.8-.386 2.8a57.107 57.107 0 0 0 1.171 5.172 57.525 57.525 0 0 0 1.171-5.172c.124-.707.226-1.873.306-2.8h10.582v28.015a5.628 5.628 0 0 0 1.99.393v-32.622z"/><path class="ej" d="M873.91 1259.221a202.13 202.13 0 0 1-44.36 0l.874-7.912a194.149 194.149 0 0 0 42.613 0z"/><path class="ei" d="M846.023 1253.607a1.155 1.155 0 0 1 .107.7 1.833 1.833 0 0 1-.3.75 4.042 4.042 0 0 1-.937 1.048 2.3 2.3 0 0 1-1.629.429 3.117 3.117 0 0 1-1.272-.379l-.163.218a1.222 1.222 0 0 0-.111 1.217 1.77 1.77 0 0 0 1.549.862 2.865 2.865 0 0 0 1.669-.273 1.05 1.05 0 0 0 .391-.344l.012-.028.011-.009.336-.494a.311.311 0 0 1 .422-.092.292.292 0 0 1 .09.4l-.324.487a1.579 1.579 0 0 1-.557.549 2.649 2.649 0 0 1-.827.314 4.393 4.393 0 0 1-1.271.068 2.945 2.945 0 0 1-1.314-.4 2.038 2.038 0 0 1-.746-.806 1.8 1.8 0 0 1-.158-.933 1.727 1.727 0 0 1 .336-.861l.175-.225a1.71 1.71 0 0 1-.415-.551 1.393 1.393 0 0 1-.128-.755 1.507 1.507 0 0 1 1.228-1.324.293.293 0 0 1 .111.576.909.909 0 0 0-.747.812.974.974 0 0 0 .3.771l.6-.828a6 6 0 0 1 1.021-1.135 1.99 1.99 0 0 1 1.374-.447 1.35 1.35 0 0 1 1.167.683zm-3.075 1.231q-.3.421-.609.84a2.515 2.515 0 0 0 .973.272 2.112 2.112 0 0 0 2.021-1.22.881.881 0 0 0 .164-.864.777.777 0 0 0-.682-.367c-.721-.051-1.263.498-1.867 1.339z"/><path class="ei" d="M847.148 1256.21q-.631.956-1.285 1.9a.29.29 0 0 0-.048.308.54.54 0 0 0 .45.229c.463.025.854-.4 1.093-.753l.337-.52a.319.319 0 0 1 .42-.091.292.292 0 0 1 .1.4q-.166.261-.335.522a2.525 2.525 0 0 1-.677.72 1.469 1.469 0 0 1-.966.3 1.165 1.165 0 0 1-.971-.552.829.829 0 0 1 .087-.888q.658-.945 1.292-1.9a.315.315 0 0 1 .415-.087.275.275 0 0 1 .088.412zm.675-1.078a.346.346 0 0 1-.361.325.341.341 0 0 1-.333-.354.336.336 0 0 1 .362-.324.342.342 0 0 1 .331.353z"/><path class="ei" d="M849.435 1255.336c-.052.105-.095.2.092.37q.407.353.819.7a.29.29 0 0 1 .056.369q-.458.741-.929 1.478a.34.34 0 0 0-.048.358.443.443 0 0 0 .377.163c.453.008.828-.424 1.055-.791l.319-.531a.319.319 0 0 1 .416-.106.292.292 0 0 1 .112.4l-.317.533a2.525 2.525 0 0 1-.651.743 1.464 1.464 0 0 1-.945.337 1.029 1.029 0 0 1-.909-.466.872.872 0 0 1 .066-.939q.41-.629.809-1.262-.293-.253-.582-.507-.595.945-1.212 1.884a.334.334 0 0 1-.271.135.47.47 0 0 1-.152-.045.291.291 0 0 1-.1-.4q.7-1.048 1.365-2.106a.8.8 0 0 1 .117-.608.3.3 0 0 1 .409-.1.282.282 0 0 1 .104.391z"/><path class="ei" d="M854.338 1255.516a1.016 1.016 0 0 1-.041 1.058.311.311 0 0 1-.41.117.29.29 0 0 1-.119-.395.481.481 0 0 0 .059-.477.415.415 0 0 0-.373-.147.808.808 0 0 0-.555.242 2.935 2.935 0 0 0-.514.694q-.313.536-.632 1.07a.7.7 0 0 0-.009.708 1.086 1.086 0 0 0 .978.4h.011a1.679 1.679 0 0 0 1.528-.95l.184-.335a.316.316 0 0 1 .412-.129.285.285 0 0 1 .135.393l-.193.346-.01.01a2.272 2.272 0 0 1-2.041 1.247h-.021a1.6 1.6 0 0 1-1.508-.692 1.253 1.253 0 0 1-.181-.66 1.172 1.172 0 0 1 .186-.629q.321-.532.636-1.066c.38-.632.82-1.215 1.582-1.229a1 1 0 0 1 .896.424z"/><path class="ei" d="M858.105 1255.443q-.689 1.358-1.42 2.706a.292.292 0 0 0-.015.311.527.527 0 0 0 .473.179c.463-.026.8-.485.995-.866l.289-.554a.316.316 0 0 1 .408-.136.292.292 0 0 1 .141.388l-.287.556a2.667 2.667 0 0 1-.585.788 1.469 1.469 0 0 1-.928.405 1.162 1.162 0 0 1-.981-.387 1.472 1.472 0 0 1-1.035.479 1.029 1.029 0 0 1-.932-.417 1 1 0 0 1 .044-1.059q.726-1.271 1.413-2.552a.306.306 0 0 1 .4-.124.293.293 0 0 1 .128.392q-.682 1.284-1.4 2.559a.471.471 0 0 0-.057.477.429.429 0 0 0 .385.142.85.85 0 0 0 .566-.254 2.787 2.787 0 0 0 .5-.711q.7-1.285 1.363-2.579a.306.306 0 0 1 .4-.132.292.292 0 0 1 .135.389z"/><path class="ei" d="M860.234 1254.956a.52.52 0 0 1-.03.119c-.162.433.106.877.393 1.347a4.544 4.544 0 0 1 .407.76 1.194 1.194 0 0 1 0 .9 2.144 2.144 0 0 1-.14.266 1.631 1.631 0 0 0 .782-.865l.27-.564a.32.32 0 0 1 .4-.15.292.292 0 0 1 .155.383q-.133.283-.268.565a2.516 2.516 0 0 1-.557.808 1.468 1.468 0 0 1-.914.438l-.413.037a2.172 2.172 0 0 1-1.557-.285c0-.01-.011-.019-.023-.028a.28.28 0 0 1 .022-.41.3.3 0 0 1 .169-.08h.041a.365.365 0 0 1 .212.081 1.23 1.23 0 0 0 .756.037.771.771 0 0 0 .5-.442c.136-.324-.1-.7-.366-1.146a4.829 4.829 0 0 1-.385-.727q-.461.943-.942 1.882a.323.323 0 0 1-.411.136.291.291 0 0 1-.139-.389q.734-1.414 1.422-2.839l.027-.031a.331.331 0 0 1 .439-.106.292.292 0 0 1 .15.303z"/><g transform="translate(830.541 1252.148)"><circle class="eb" cx=".644" cy=".644" r=".644" transform="translate(.351)"/><circle class="eb" cx=".644" cy=".644" r=".644" transform="translate(0 5.21)"/><circle class="eb" cx=".644" cy=".644" r=".644" transform="translate(40.74)"/><circle class="eb" cx=".644" cy=".644" r=".644" transform="translate(41.091 5.21)"/></g></svg><svg viewBox="1334 1206.561 106.711 94.453" width="106.711" height="94.453" id="factory" y="364"><defs><style>.fa{fill:#dfd0c6}.fb{fill:#83727a}.fc{fill:#a08a8a}.fd{fill:#695a69}.fe{fill:#c8b2a8}</style></defs><path class="fa" d="M1354.189 1282.268v-.721h14.42v-71.381H1334v90.848h20.189v-18.746zm5.047-58.4v-2.166h3.605v7.931h-3.605v-5.768zm0 20.189v-2.166h3.605v7.931h-3.605v-5.768zm0 20.189v-2.164h3.605v7.931h-3.605v-5.771zm-5.047-40.381v-2.163h3.605v7.931h-3.605zm0 20.189v-2.163h3.605v7.931h-3.605zm0 20.189v-2.161h3.605v7.931h-3.605zm-10.816 20.188v5.768h-3.605v-7.931h3.605zm0-20.189v5.768h-3.605v-7.928h3.605zm0-20.189v5.769h-3.605v-7.931h3.605zm0-20.189v5.768h-3.605v-7.93h3.605zm5.047 60.566v5.768h-3.605v-7.931h3.605zm0-20.189v5.768h-3.605v-7.927h3.605zm0-20.189v5.77h-3.605v-7.931h3.605zm0-20.189v5.768h-3.605v-7.929h3.605z"/><path class="fb" d="M1408.986 1241.891h5.047v59.123h-5.047zm10.094 0h5.047v59.123h-5.047zm10.094 0h5.047v59.123h-5.047z"/><path class="fc" d="M1354.189 1283.71v17.3h49.751v-17.3zm5.768 6.489v5.047h-2.879v-7.931h2.884zm3.605 0v5.047h-2.884v-7.931h2.884v2.884zm5.768 0v5.047h-2.884v-7.931h2.884zm3.605 0v5.047h-2.884v-7.931h2.884v2.884zm5.768 0v5.047h-2.884v-7.931h2.884zm3.605 0v5.047h-2.884v-7.931h2.884zm5.768 0v5.047h-2.884v-7.931h2.886zm3.605 0v5.047h-2.883v-7.931h2.88zm5.768 0v5.047h-2.884v-7.931h2.884zm3.605 0v5.047h-2.884v-7.931h2.884z"/><path class="fd" d="M1368.609 1241.891h5.047v39.656h5.047v-39.656h5.047v39.656h5.047v-39.656h5.047v39.656h5.047v-39.656h5.047v59.125h5.047v-59.125h5.048v59.125h5.047v-59.125h5.047v59.125h5.047v-59.125h5.047v59.125h5.047v-59.125h1.442v-3.605h-72.1z"/><path class="fe" d="M1368.609 1208.724v-2.163H1334v3.605h34.609z"/><path class="fc" d="M1368.609 1234.681h72.102v3.605h-72.102z"/><path class="fd" d="M1339.768 1221.702h3.605v2.163h-3.605z"/><path class="fc" d="M1339.768 1229.633h3.605v-2.163l-3.605-3.61z"/><path class="fb" d="M1343.373 1227.47v-3.61h-3.605z"/><path class="fd" d="M1344.815 1221.702h3.605v2.163h-3.605z"/><path class="fc" d="M1344.815 1229.633h3.605v-2.163l-3.605-3.61z"/><path class="fb" d="M1348.42 1227.47v-3.61h-3.605z"/><path class="fd" d="M1354.189 1221.702h3.605v2.163h-3.605z"/><path class="fc" d="M1357.794 1227.47l-3.605-3.61v5.768h3.605z"/><path class="fb" d="M1357.794 1223.86h-3.605l3.605 3.605z"/><path class="fd" d="M1359.236 1221.702h3.605v2.163h-3.605z"/><path class="fc" d="M1362.841 1227.47l-3.605-3.605v5.768h3.605z"/><path class="fb" d="M1362.841 1223.86h-3.605l3.605 3.605z"/><path class="fd" d="M1339.768 1241.891h3.605v2.163h-3.605z"/><path class="fc" d="M1339.768 1249.822h3.605v-2.163l-3.605-3.605z"/><path class="fb" d="M1343.373 1247.659v-3.605h-3.605z"/><path class="fd" d="M1344.815 1241.891h3.605v2.163h-3.605z"/><path class="fc" d="M1344.815 1249.822h3.605v-2.163l-3.605-3.605z"/><path class="fb" d="M1348.42 1247.659v-3.605h-3.605z"/><path class="fd" d="M1354.189 1241.891h3.605v2.163h-3.605z"/><path class="fc" d="M1357.794 1247.659l-3.605-3.605v5.768h3.605z"/><path class="fb" d="M1357.794 1244.054h-3.605l3.605 3.605z"/><path class="fd" d="M1359.236 1241.891h3.605v2.163h-3.605z"/><path class="fc" d="M1362.841 1247.659l-3.605-3.605v5.768h3.605z"/><path class="fb" d="M1362.841 1244.054h-3.605l3.605 3.605z"/><path class="fd" d="M1339.768 1262.079h3.605v2.163h-3.605z"/><path class="fc" d="M1339.768 1270.015h3.605v-2.163l-3.605-3.605z"/><path class="fb" d="M1343.373 1267.847v-3.605h-3.605z"/><path class="fd" d="M1344.815 1262.079h3.605v2.163h-3.605z"/><path class="fc" d="M1344.815 1270.015h3.605v-2.163l-3.605-3.605z"/><path class="fb" d="M1348.42 1267.847v-3.605h-3.605z"/><path class="fd" d="M1354.189 1262.079h3.605v2.163h-3.605z"/><path class="fc" d="M1357.794 1267.847l-3.605-3.605v5.773h3.605z"/><path class="fb" d="M1357.794 1264.242h-3.605l3.605 3.605z"/><path class="fd" d="M1359.236 1262.079h3.605v2.163h-3.605z"/><path class="fc" d="M1362.841 1267.847l-3.605-3.605v5.773h3.605z"/><path class="fb" d="M1362.841 1264.242h-3.605l3.605 3.605z"/><path class="fd" d="M1339.768 1282.268h3.605v2.163h-3.605z"/><path class="fc" d="M1339.768 1290.199h3.605v-2.163l-3.605-3.605z"/><path class="fb" d="M1343.373 1288.036v-3.605h-3.605z"/><path class="fd" d="M1344.815 1282.268h3.605v2.163h-3.605z"/><path class="fc" d="M1344.815 1290.199h3.605v-2.163l-3.605-3.605z"/><path class="fb" d="M1348.42 1288.036v-3.605h-3.605zm8.653 7.21h2.884v-5.042l-2.884-2.884z"/><path class="fd" d="M1359.957 1290.204v-2.884h-2.884z"/><path class="fb" d="M1360.678 1295.246h2.884v-5.042l-2.884-2.889z"/><path class="fd" d="M1363.562 1290.204v-2.884h-2.884z"/><path class="fb" d="M1366.446 1287.315v7.931h2.884v-5.042z"/><path class="fd" d="M1366.446 1287.315l2.884 2.884v-2.884z"/><path class="fb" d="M1370.051 1295.246h2.884v-5.042l-2.884-2.884z"/><path class="fd" d="M1372.935 1290.204v-2.884h-2.884z"/><path class="fb" d="M1375.819 1295.246h2.884v-5.042l-2.884-2.884z"/><path class="fd" d="M1378.703 1290.204v-2.884h-2.884z"/><path class="fb" d="M1379.424 1295.246h2.884v-5.042l-2.884-2.884z"/><path class="fd" d="M1382.308 1290.204v-2.884h-2.884z"/><path class="fb" d="M1385.192 1295.246h2.884v-5.042l-2.884-2.884z"/><path class="fd" d="M1388.076 1290.204v-2.884h-2.884z"/><path class="fb" d="M1388.797 1295.246h2.884v-5.042l-2.884-2.884z"/><path class="fd" d="M1391.681 1290.204v-2.884h-2.884z"/><path class="fb" d="M1394.565 1295.246h2.884v-5.042l-2.884-2.884z"/><path class="fd" d="M1397.449 1290.204v-2.884h-2.884z"/><path class="fb" d="M1398.171 1287.315v7.931h2.884v-5.042z"/><path class="fd" d="M1398.171 1287.315l2.884 2.884v-2.884z"/><path class="fb" d="M1354.189 1281.547v2.163h49.75v-41.819h-5.047v39.656h-5.047v-39.656h-5.047v39.656h-5.047v-39.656h-5.047v39.656h-5.047v-39.656h-5.047v39.656z"/></svg><svg viewBox="1053 1207.508 132.546 94.389" width="132.546" height="94.389" id="houses" y="459"><defs><style>.ga{fill:#e17277}.gb{fill:#bf515a}.gc{fill:#95ffff}.gd{fill:#80d7f0}.ge{fill:#6eb1e2}.gf{fill:#695a69}.gg{fill:#f2d057}.gh{fill:#e9a868}.gi{fill:#7cdaaf}.gj{fill:#65b1a8}</style></defs><path class="ga" d="M1097.182 1223.575l-22.091-10.042-22.091 10.042v70.29h44.182zm-24.1 44.182v20.083h-14.057v-22.092h14.058v2.008zm0-32.133v20.083h-14.057v-22.091h14.058v2.008zm18.075 32.133v20.083H1077.1v-22.092h14.057v2.008zm0-32.133v20.083H1077.1v-22.091h14.057v2.008z"/><path class="gb" d="M1053 1293.864h44.182v8.033H1053z"/><path class="gc" d="M1061.033 1253.699h10.041v-2.008l-10.041-10.042z"/><path class="gd" d="M1071.074 1251.691v-10.042h-10.041z"/><path class="ge" d="M1061.033 1235.624h10.041v4.016h-10.041z"/><path class="gf" d="M1061.033 1233.616h-2.008v22.091h14.058v-22.091h-12.05zm10.041 18.075v2.008h-10.041v-12.05h10.042zm0-12.05h-10.041v-4.016h10.042z"/><path class="gc" d="M1079.107 1253.699h10.041v-2.008l-10.041-10.042z"/><path class="gd" d="M1089.148 1251.691v-10.042h-10.041z"/><path class="ge" d="M1079.108 1235.624h10.041v4.016h-10.041z"/><path class="gf" d="M1079.107 1233.616h-2.008v22.091h14.058v-22.091h-12.05zm10.041 18.075v2.008h-10.041v-12.05h10.042zm0-12.05h-10.041v-4.016h10.042z"/><path class="gg" d="M1141.364 1293.864v-70.29l-22.091-10.041-22.091 10.042v70.29zm-20.082-40.165v-20.083h14.058v22.091h-14.058zm0 32.132v-20.083h14.058v22.091h-14.058zm-18.075-32.132v-20.083h14.058v22.091h-14.058zm0 32.132v-20.083h14.058v22.091h-14.058z"/><path class="gh" d="M1097.182 1293.864h44.182v8.033h-44.182z"/><path class="gi" d="M1141.364 1223.575v70.29h44.182v-70.29l-22.091-10.042zm20.083 44.182v20.083h-14.058v-22.092h14.058zm0-32.133v20.083h-14.058v-22.091h14.058zm4.017 18.075v-20.083h14.058v22.091h-14.058zm0 32.132v-20.083h14.058v22.091h-14.058z"/><path class="gj" d="M1141.364 1293.864h44.182v8.033h-44.182z"/><path class="gc" d="M1061.033 1285.831h10.041v-2.008l-10.041-10.042z"/><path class="gd" d="M1071.074 1283.823v-10.042h-10.041z"/><path class="ge" d="M1061.033 1267.756h10.041v4.016h-10.041z"/><path class="gf" d="M1061.033 1265.748h-2.008v22.091h14.058v-22.091h-12.05zm10.041 18.075v2.008h-10.041v-12.05h10.042zm0-12.05h-10.041v-4.016h10.042z"/><path class="gc" d="M1079.107 1285.831h10.041v-2.008l-10.041-10.042z"/><path class="gd" d="M1089.148 1283.823v-10.042h-10.041z"/><path class="ge" d="M1079.108 1267.756h10.041v4.016h-10.041z"/><path class="gf" d="M1079.107 1265.748h-2.008v22.091h14.058v-22.091h-12.05zm10.041 18.075v2.008h-10.041v-12.05h10.042zm0-12.05h-10.041v-4.016h10.042z"/><path class="gc" d="M1115.257 1251.691l-10.042-10.041v12.05h10.042z"/><path class="gd" d="M1115.257 1241.649h-10.042l10.042 10.041z"/><path class="ge" d="M1105.215 1235.624h10.041v4.016h-10.041z"/><path class="gf" d="M1115.257 1255.706h2.008v-22.091h-14.058v22.091h12.05zm-10.041-20.083h10.041v4.016h-10.042zm0 6.025h10.041v12.05h-10.042z"/><path class="gc" d="M1133.332 1251.691l-10.042-10.041v12.05h10.042z"/><path class="gd" d="M1133.332 1241.649h-10.042l10.042 10.041z"/><path class="ge" d="M1123.29 1235.624h10.041v4.016h-10.041z"/><path class="gf" d="M1133.331 1255.706h2.008v-22.091h-14.058v22.091h12.05zm-10.042-20.083h10.042v4.016h-10.042zm0 6.025h10.042v12.05h-10.042z"/><path class="gc" d="M1115.257 1283.823l-10.042-10.042v12.05h10.042z"/><path class="gd" d="M1115.257 1273.781h-10.042l10.042 10.042z"/><path class="ge" d="M1105.215 1267.756h10.041v4.016h-10.041z"/><path class="gf" d="M1115.257 1287.839h2.008v-22.091h-14.058v22.091h12.05zm-10.041-20.083h10.041v4.016h-10.042zm0 6.025h10.041v12.05h-10.042z"/><path class="gc" d="M1133.332 1283.823l-10.042-10.042v12.05h10.042z"/><path class="gd" d="M1133.332 1273.781h-10.042l10.042 10.042z"/><path class="ge" d="M1123.29 1267.756h10.041v4.016h-10.041z"/><path class="gf" d="M1133.331 1287.839h2.008v-22.091h-14.058v22.091h12.05zm-10.042-20.083h10.042v4.016h-10.042zm0 6.025h10.042v12.05h-10.042z"/><path class="gc" d="M1149.397 1253.699h10.041v-2.008l-10.041-10.041z"/><path class="gd" d="M1159.439 1251.691v-10.042h-10.042z"/><path class="ge" d="M1149.397 1235.624h10.041v4.016h-10.041z"/><path class="gf" d="M1149.397 1233.616h-2.008v22.091h14.058v-22.091h-12.05zm10.041 18.075v2.008h-10.041v-12.05h10.041zm0-12.05h-10.041v-4.016h10.041z"/><path class="gc" d="M1177.514 1251.691l-10.041-10.041v12.05h10.041z"/><path class="gd" d="M1177.514 1241.649h-10.042l10.041 10.041z"/><path class="ge" d="M1167.472 1235.624h10.041v4.016h-10.041z"/><path class="gf" d="M1177.513 1255.706h2.008v-22.091h-14.058v22.091h12.05zm-10.042-20.083h10.042v4.016h-10.042zm0 6.025h10.042v12.05h-10.042z"/><path class="gc" d="M1149.397 1285.831h10.041v-2.008l-10.041-10.042z"/><path class="gd" d="M1159.439 1283.823v-10.042h-10.042z"/><path class="ge" d="M1149.397 1267.756h10.041v4.016h-10.041z"/><path class="gf" d="M1149.397 1265.748h-2.008v22.091h14.058v-22.091h-12.05zm10.041 18.075v2.008h-10.041v-12.05h10.041zm0-12.05h-10.041v-4.016h10.041z"/><path class="gc" d="M1177.514 1283.823l-10.041-10.042v12.05h10.041z"/><path class="gd" d="M1177.514 1273.781h-10.042l10.041 10.042z"/><path class="ge" d="M1167.472 1267.756h10.041v4.016h-10.041z"/><path class="gf" d="M1177.513 1287.839h2.008v-22.091h-14.058v22.091h12.05zm-10.042-20.083h10.042v4.016h-10.042zm0 6.025h10.042v12.05h-10.042zm12.051-58.97v-7.3h-6.022v4.564l-10.041-4.564-22.095 10.039-6.025-2.739v-7.3h-6.024v4.564l-10.042-4.567-22.091 10.042-6.025-2.739v-7.3h-6.024v4.564l-10.042-4.567L1053 1217.55v6.025l22.091-10.042 22.091 10.041 22.091-10.041 22.091 10.041 22.091-10.042 22.091 10.042v-6.024z"/></svg><svg viewBox="757 931 41.144 36.001" width="41.144" height="36.001" id="logoSymbol" y="554"><defs><style>.ha{fill:#fff}</style></defs><path class="ha" d="M768.602 936.023a2.453 2.453 0 0 0 2.512-2.512 2.453 2.453 0 0 0-2.512-2.511 2.453 2.453 0 0 0-2.512 2.512 2.453 2.453 0 0 0 2.512 2.511zm0-3.827a1.316 1.316 0 1 1-1.312 1.316 1.327 1.327 0 0 1 1.312-1.312zm26.791 14.472a.9.9 0 0 0-.6.12l-6.577-11.362a2.434 2.434 0 0 0 .718-1.794 2.512 2.512 0 0 0-5.023 0 2.434 2.434 0 0 0 .718 1.794l-6.579 11.482a1.773 1.773 0 0 0-.837-.12 2.444 2.444 0 0 0-2.392 1.914H761.9a2.444 2.444 0 0 0-2.392-1.914A2.292 2.292 0 0 0 757 949.18a2.453 2.453 0 0 0 2.512 2.512 2.472 2.472 0 0 0 2.388-1.794h13.041a2.482 2.482 0 0 0 .718 1.2l-6.459 11c-.239 0-.478-.12-.718-.12a2.512 2.512 0 1 0 0 5.023 2.662 2.662 0 0 0 2.512-2.033h12.8a2.581 2.581 0 0 0 2.506 2.033 2.453 2.453 0 0 0 2.512-2.512 2.858 2.858 0 0 0-.6-1.674l6.578-11.362a1.773 1.773 0 0 0 .837.12 2.453 2.453 0 0 0 2.512-2.512 2.825 2.825 0 0 0-2.746-2.393zm-35.881 3.708a1.316 1.316 0 1 1 1.316-1.316 1.255 1.255 0 0 1-1.316 1.316zm26.91-18.18a1.316 1.316 0 1 1-1.316 1.316 1.414 1.414 0 0 1 1.316-1.316zm-9.09 15.668a1.316 1.316 0 1 1-1.316 1.316 1.327 1.327 0 0 1 1.317-1.316zm-8.851 17.94a1.327 1.327 0 0 1-1.316-1.316 1.229 1.229 0 0 1 1.316-1.2 1.327 1.327 0 0 1 1.319 1.321 1.229 1.229 0 0 1-1.318 1.196zm15.309-2.033h-12.916a4.848 4.848 0 0 0-.6-1.076l6.459-11.243c.239 0 .359.12.6.12s.6-.12.837-.12l6.459 11.123a2.022 2.022 0 0 0-.838 1.197zm2.392 2.033a1.316 1.316 0 1 1 1.318-1.315 1.414 1.414 0 0 1-1.317 1.316zm.838-3.584a2.035 2.035 0 0 0-.837-.12h-.483l-6.454-11.245a2.6 2.6 0 0 0 .6-.957h13.274a4.848 4.848 0 0 0 .6 1.076zm5.98-13.638h-13.275a3.741 3.741 0 0 0-.6-1.2l6.7-11.482a2.213 2.213 0 0 0 1.435 0l6.578 11.362a2.274 2.274 0 0 0-.838 1.32zm2.392 1.794a1.316 1.316 0 1 1 1.316-1.316 1.255 1.255 0 0 1-1.315 1.316z"/></svg><svg viewBox="1607 1207 96.154 96.154" width="96.154" height="96.154" id="music" y="591"><defs><style>.ia{fill:#ecf0f1;stroke:#ecf0f1}.ia,.ie,.ih{stroke-width:2px}.ib{fill:#d1d4d1}.ic{fill:#bdc3c7}.id{fill:#7f8c8d}.ie{fill:#556080;stroke:#556080}.if{fill:#464f5d}.ig{fill:#e6e7e8}.ih{fill:#d1f7ef;stroke:#38454f}.ii{fill:#fff}.ij{fill:#86a0c0}.ik{fill:#81f90d}.il{fill:#ff8980}</style></defs><g transform="translate(1607 1207)"><path class="ia" d="M1 72.427h94.154v22.727H1z"/><path class="ib" d="M9.116 75.674a1.624 1.624 0 0 0-1.623 1.623v4.87a1.623 1.623 0 1 0 3.247 0v-4.87a1.624 1.624 0 0 0-1.624-1.623zm0 9.74a1.624 1.624 0 0 0-1.623 1.623v3.247a1.623 1.623 0 1 0 3.247 0v-3.247a1.624 1.624 0 0 0-1.624-1.623zm11.363-9.74a1.624 1.624 0 0 0-1.623 1.623v1.623a1.623 1.623 0 1 0 3.247 0v-1.623a1.624 1.624 0 0 0-1.624-1.623zm0 6.493a1.624 1.624 0 0 0-1.623 1.623v6.493a1.623 1.623 0 1 0 3.247 0V83.79a1.624 1.624 0 0 0-1.624-1.623zm11.364-6.493a1.624 1.624 0 0 0-1.623 1.623v6.493a1.623 1.623 0 1 0 3.247 0v-6.493a1.624 1.624 0 0 0-1.624-1.623zm0 11.363a1.624 1.624 0 0 0-1.623 1.623v1.623a1.623 1.623 0 1 0 3.247 0V88.66a1.624 1.624 0 0 0-1.624-1.623zm11.363-11.363a1.624 1.624 0 0 0-1.623 1.623v3.247a1.623 1.623 0 0 0 3.247 0v-3.247a1.624 1.624 0 0 0-1.624-1.623zm0 8.117a1.624 1.624 0 0 0-1.623 1.623v4.87a1.623 1.623 0 1 0 3.247 0v-4.87a1.624 1.624 0 0 0-1.624-1.623zm11.364-8.117a1.624 1.624 0 0 0-1.623 1.623v6.493a1.623 1.623 0 1 0 3.247 0v-6.493a1.624 1.624 0 0 0-1.624-1.623zm0 11.363a1.624 1.624 0 0 0-1.623 1.623v1.623a1.623 1.623 0 1 0 3.247 0V88.66a1.624 1.624 0 0 0-1.624-1.623zm11.363-11.363a1.624 1.624 0 0 0-1.623 1.623v1.623a1.623 1.623 0 1 0 3.247 0v-1.623a1.624 1.624 0 0 0-1.624-1.623zm0 6.493a1.624 1.624 0 0 0-1.623 1.623v6.493a1.623 1.623 0 1 0 3.247 0V83.79a1.624 1.624 0 0 0-1.624-1.623z"/><circle class="ic" cx="6.493" cy="6.493" r="6.493" transform="translate(77.297 80.544)"/><path class="id" d="M5.87 82.167h6.493v4.87H5.87zm11.363-3.247h6.493v4.87h-6.493zm11.364 4.87h6.493v4.87h-6.493zm11.363-3.247h6.493v4.87H39.96zm11.364 3.247h6.493v4.87h-6.493zm11.363-4.87h6.493v4.87h-6.493z"/><path class="ie" d="M1 23.727h94.154v48.7H1z"/><path class="if" d="M10.74 67.557a1.624 1.624 0 0 1-1.623-1.624v-4.87a1.623 1.623 0 1 1 3.247 0v4.87a1.624 1.624 0 0 1-1.624 1.624zm0-9.74a1.624 1.624 0 0 1-1.623-1.623V43.207a1.623 1.623 0 1 1 3.247 0v12.987a1.624 1.624 0 0 1-1.624 1.623zm12.986 9.74a1.624 1.624 0 0 1-1.623-1.623V54.57a1.623 1.623 0 1 1 3.247 0v11.364a1.624 1.624 0 0 1-1.624 1.623zm0-16.233a1.624 1.624 0 0 1-1.623-1.623v-6.494a1.623 1.623 0 1 1 3.247 0V49.7a1.624 1.624 0 0 1-1.624 1.624zm12.987 16.233a1.624 1.624 0 0 1-1.623-1.623V64.31a1.623 1.623 0 1 1 3.247 0v1.623a1.624 1.624 0 0 1-1.624 1.624zm0-6.493a1.624 1.624 0 0 1-1.623-1.623V43.207a1.623 1.623 0 0 1 3.247 0v16.234a1.624 1.624 0 0 1-1.624 1.623zM49.7 67.557a1.624 1.624 0 0 1-1.623-1.624v-14.61a1.623 1.623 0 1 1 3.247 0v14.61a1.624 1.624 0 0 1-1.624 1.624zm0-19.48a1.624 1.624 0 0 1-1.623-1.623v-3.247a1.623 1.623 0 0 1 3.247 0v3.247a1.624 1.624 0 0 1-1.624 1.623z"/><path class="ig" d="M9.116 36.713L7.493 35.09v-3.247l1.623-1.623h3.247l1.623 1.623v3.247l-1.623 1.623zm12.987 0L20.48 35.09v-3.247l1.623-1.623h3.247l1.623 1.623v3.247l-1.623 1.623zm12.987 0l-1.623-1.623v-3.247l1.623-1.623h3.247l1.623 1.623v3.247l-1.623 1.623zm12.987 0l-1.623-1.623v-3.247l1.623-1.623h3.247l1.623 1.623v3.247l-1.623 1.623z"/><circle class="ig" cx="14.61" cy="14.61" r="14.61" transform="translate(61.064 28.597)"/><path class="ih" d="M1 1h94.154v22.727H1z"/><path class="ii" d="M7.493 56.194h6.493v4.87H7.493zM20.48 49.7h6.493v4.87H20.48zm12.987 9.74h6.493v4.87h-6.493zm12.987-12.986h6.493v4.87h-6.493z"/><path class="ij" d="M13.987 20.48H7.493a1.624 1.624 0 0 1-1.623-1.623V5.87a1.624 1.624 0 0 1 1.623-1.623h6.493A1.624 1.624 0 0 1 15.61 5.87v12.987a1.624 1.624 0 0 1-1.623 1.623zm-4.87-3.247h3.247V7.494H9.117zM25.35 20.48h-6.494a1.624 1.624 0 0 1-1.623-1.623V5.87a1.624 1.624 0 0 1 1.623-1.623h6.493a1.624 1.624 0 0 1 1.624 1.623v12.987a1.624 1.624 0 0 1-1.623 1.623zm-4.87-3.247h3.247V7.494H20.48zm21.104 3.247H35.09a1.624 1.624 0 0 1-1.623-1.623V5.87a1.624 1.624 0 0 1 1.623-1.623h6.493a1.624 1.624 0 0 1 1.624 1.623v12.987a1.624 1.624 0 0 1-1.623 1.623zm-4.87-3.247h3.247V7.494h-3.247zm16.233 3.247h-6.494a1.623 1.623 0 1 1 0-3.247h4.87v-3.246h-4.87a1.624 1.624 0 0 1-1.623-1.623V5.87a1.624 1.624 0 0 1 1.623-1.623h6.493a1.623 1.623 0 1 1 0 3.247h-4.87v3.246h4.87a1.624 1.624 0 0 1 1.623 1.623v6.494a1.624 1.624 0 0 1-1.622 1.623z"/><circle class="ij" cx="1.623" cy="1.623" r="1.623" transform="translate(28.597 7.493)"/><circle class="ik" cx="1.623" cy="1.623" r="1.623" transform="translate(61.064 61.064)"/><circle class="ik" cx="1.623" cy="1.623" r="1.623" transform="translate(61.064 65.934)"/><circle class="ik" cx="1.623" cy="1.623" r="1.623" transform="translate(67.557 61.064)"/><circle class="ik" cx="1.623" cy="1.623" r="1.623" transform="translate(67.557 65.934)"/><circle class="il" cx="1.623" cy="1.623" r="1.623" transform="translate(74.05 61.064)"/><circle class="ik" cx="1.623" cy="1.623" r="1.623" transform="translate(74.05 65.934)"/><circle class="ik" cx="1.623" cy="1.623" r="1.623" transform="translate(80.544 61.064)"/><circle class="il" cx="1.623" cy="1.623" r="1.623" transform="translate(80.544 65.934)"/><circle class="ik" cx="1.623" cy="1.623" r="1.623" transform="translate(87.037 61.064)"/><circle class="ik" cx="1.623" cy="1.623" r="1.623" transform="translate(87.037 65.934)"/><circle class="ij" cx="1.623" cy="1.623" r="1.623" transform="translate(28.597 13.987)"/><circle class="ic" cx="1.623" cy="1.623" r="1.623" transform="translate(74.05 31.844)"/><circle class="ic" cx="1.623" cy="1.623" r="1.623" transform="translate(74.05 51.324)"/><path class="ij" d="M65.934 18.857h-3.247a1.623 1.623 0 0 1 0-3.247h3.247a1.623 1.623 0 0 1 0 3.247zm8.116 0h-3.247a1.623 1.623 0 1 1 0-3.247h3.247a1.623 1.623 0 1 1 0 3.247zm0-4.87h-3.247a1.623 1.623 0 1 1 0-3.247h3.247a1.623 1.623 0 1 1 0 3.247zm0-4.87h-3.247a1.623 1.623 0 1 1 0-3.247h3.247a1.623 1.623 0 1 1 0 3.247zm8.117 9.74H78.92a1.623 1.623 0 1 1 0-3.247h3.247a1.623 1.623 0 1 1 0 3.247zm0-4.87H78.92a1.623 1.623 0 1 1 0-3.247h3.247a1.623 1.623 0 1 1 0 3.247zm8.117 4.87h-3.247a1.623 1.623 0 1 1 0-3.247h3.247a1.623 1.623 0 1 1 0 3.247z"/><circle class="ic" cx="1.623" cy="1.623" r="1.623" transform="translate(83.791 41.584)"/><circle class="ic" cx="1.623" cy="1.623" r="1.623" transform="translate(64.31 41.584)"/><circle class="ic" cx="1.623" cy="1.623" r="1.623" transform="translate(80.544 35.09)"/><circle class="ic" cx="1.623" cy="1.623" r="1.623" transform="translate(67.557 48.077)"/><circle class="ic" cx="1.623" cy="1.623" r="1.623" transform="translate(80.544 48.077)"/><circle class="ic" cx="1.623" cy="1.623" r="1.623" transform="translate(67.557 35.09)"/><circle class="ii" cx="6.493" cy="6.493" r="6.493" transform="translate(77.297 77.297)"/><path class="ic" d="M83.791 85.414a1.619 1.619 0 0 1-1.148-.476l-4.592-4.592a1.626 1.626 0 0 1 2.3-2.3l4.592 4.592a1.623 1.623 0 0 1-1.148 2.771z"/></g></svg><svg viewBox="1595 2088.06 92.235 126.495" width="92.235" height="126.495" id="satellite" y="688"><defs><style>.ja{fill:#bdc3c7}.jb{fill:#4e5878}.jc{fill:#ecf0f1}.jd{fill:#f2d057}.je{fill:#556080}.jf,.jg{fill:#90bae1}.jg{opacity:.427}</style></defs><path class="ja" d="M1615.984 2171.124c19.274 14.281 46.074 4.846 46.074 4.846l-.073-.073a6.223 6.223 0 0 0 2.35-1.469c6.425-6.351-2.643-25.882-20.192-43.578-17.549-17.732-37.006-26.947-43.394-20.6a6.564 6.564 0 0 0-1.725 3.084c-13.916 27.649 12.37 54.376 16.96 57.79z"/><path class="jb" d="M1608.608 2177.182a5.836 5.836 0 0 0 11.528-1.762 27.735 27.735 0 0 1-4.846-2.9 22.338 22.338 0 0 1-2.35-2.129 5.818 5.818 0 0 0-4.332 6.791z"/><path class="jc" d="M1621.742 2153.062c16.337 16.484 34.436 25.075 40.384 19.164 5.984-5.911-2.46-24.083-18.8-40.567s-34.436-25.075-40.384-19.164 2.468 24.083 18.8 40.567z"/><g transform="translate(1628.957 2115.468)"><circle class="jd" cx="4.5" cy="4.5" r="4.5" transform="translate(19.043 .532)"/><path class="ja" d="M1.784 27.718a8.14 8.14 0 0 0 5.287 2.423L21.352 9.435l-1.725-1.689L.133 22.761a5.1 5.1 0 0 0 1.651 4.957z"/><path class="ja" d="M18.048 5.47A5.47 5.47 0 1 0 23.518 0a5.484 5.484 0 0 0-5.47 5.47zm1.872 0a3.6 3.6 0 1 1 3.6 3.6 3.6 3.6 0 0 1-3.6-3.6z"/></g><path class="je" d="M1597.701 2214.335a.523.523 0 0 0 .441.22h31.61a.523.523 0 0 0 .441-.22.462.462 0 0 0 .073-.477l-9.509-32.491a.472.472 0 0 0-.367-.367.637.637 0 0 0-.514.11 8.481 8.481 0 0 1-5.654 2.607c-3.378 0-5.654-2.827-5.69-2.827a.575.575 0 0 0-.551-.184.632.632 0 0 0-.441.367l-9.949 32.821a.713.713 0 0 0 .11.441z"/><path class="jf" d="M1644.399 2104.858a1.994 1.994 0 0 0 2.607 1.028c4.809-2.129 11.748.037 16.925 5.176 4.7 4.7 6.9 10.794 5.654 15.566a1.99 1.99 0 0 0 3.855.991c1.615-6.131-1.028-13.731-6.682-19.384-6.388-6.388-14.979-8.811-21.33-6.021a2.367 2.367 0 0 0-.587.4 2.031 2.031 0 0 0-.442 2.244z"/><path class="jg" d="M1645.317 2092.229a1.994 1.994 0 0 0 2.607 1.028c7.453-3.3 18.209-.037 26.176 7.893 7.2 7.2 10.573 16.631 8.627 24.047a1.99 1.99 0 0 0 3.855.991c2.276-8.738-1.505-19.678-9.655-27.828-9.068-9.068-21.624-12.666-30.545-8.7a2.367 2.367 0 0 0-.587.4 1.845 1.845 0 0 0-.478 2.169z"/></svg><svg viewBox="1319 2105 112.197 110.262" width="112.197" height="110.262" id="server" y="815"><defs><style>.ka{fill:#556080}.kb{fill:#424a60}.kc{fill:#7383bf}</style></defs><g transform="translate(1319 2104.5)"><path class="ka" d="M105.218 37.254H6.979A6.981 6.981 0 0 1 0 30.275V7.479A6.981 6.981 0 0 1 6.979.5h98.236a6.981 6.981 0 0 1 6.985 6.979v22.794a6.981 6.981 0 0 1-6.982 6.981z"/><path class="kb" d="M105.218 74.008H6.979A6.981 6.981 0 0 1 0 67.029v-22.8a6.981 6.981 0 0 1 6.979-6.975h98.236a6.98 6.98 0 0 1 6.979 6.979v22.794a6.979 6.979 0 0 1-6.976 6.981z"/><path class="ka" d="M105.218 110.762H6.979A6.981 6.981 0 0 1 0 103.783v-22.8a6.981 6.981 0 0 1 6.979-6.975h98.236a6.98 6.98 0 0 1 6.979 6.979v22.794a6.979 6.979 0 0 1-6.976 6.981z"/><circle class="kc" cx="6.771" cy="6.771" r="6.771" transform="translate(11.607 12.107)"/><circle class="kc" cx="1.934" cy="1.934" r="1.934" transform="translate(92.853 14.041)"/><circle class="kc" cx="1.934" cy="1.934" r="1.934" transform="translate(85.115 14.041)"/><circle class="kc" cx="1.934" cy="1.934" r="1.934" transform="translate(96.722 19.844)"/><circle class="kc" cx="1.934" cy="1.934" r="1.934" transform="translate(88.984 19.844)"/><circle class="kc" cx="1.934" cy="1.934" r="1.934" transform="translate(77.377 14.041)"/><circle class="kc" cx="1.934" cy="1.934" r="1.934" transform="translate(81.246 19.844)"/><circle class="kc" cx="1.934" cy="1.934" r="1.934" transform="translate(69.64 14.041)"/><circle class="kc" cx="1.934" cy="1.934" r="1.934" transform="translate(73.508 19.844)"/><circle class="kc" cx="1.934" cy="1.934" r="1.934" transform="translate(61.902 14.041)"/><circle class="kc" cx="1.934" cy="1.934" r="1.934" transform="translate(65.771 19.844)"/><circle class="kc" cx="6.771" cy="6.771" r="6.771" transform="translate(11.607 48.861)"/><circle class="kc" cx="1.934" cy="1.934" r="1.934" transform="translate(92.853 50.795)"/><circle class="kc" cx="1.934" cy="1.934" r="1.934" transform="translate(85.115 50.795)"/><circle class="kc" cx="1.934" cy="1.934" r="1.934" transform="translate(96.722 56.599)"/><circle class="kc" cx="1.934" cy="1.934" r="1.934" transform="translate(88.984 56.599)"/><circle class="kc" cx="1.934" cy="1.934" r="1.934" transform="translate(77.377 50.795)"/><circle class="kc" cx="1.934" cy="1.934" r="1.934" transform="translate(81.246 56.599)"/><circle class="kc" cx="1.934" cy="1.934" r="1.934" transform="translate(69.64 50.795)"/><circle class="kc" cx="1.934" cy="1.934" r="1.934" transform="translate(73.508 56.599)"/><circle class="kc" cx="1.934" cy="1.934" r="1.934" transform="translate(61.902 50.795)"/><circle class="kc" cx="1.934" cy="1.934" r="1.934" transform="translate(65.771 56.599)"/><circle class="kc" cx="6.771" cy="6.771" r="6.771" transform="translate(11.607 85.615)"/><circle class="kc" cx="1.934" cy="1.934" r="1.934" transform="translate(92.853 87.549)"/><circle class="kc" cx="1.934" cy="1.934" r="1.934" transform="translate(85.115 87.549)"/><circle class="kc" cx="1.934" cy="1.934" r="1.934" transform="translate(96.722 93.353)"/><circle class="kc" cx="1.934" cy="1.934" r="1.934" transform="translate(88.984 93.353)"/><circle class="kc" cx="1.934" cy="1.934" r="1.934" transform="translate(77.377 87.549)"/><circle class="kc" cx="1.934" cy="1.934" r="1.934" transform="translate(81.246 93.353)"/><circle class="kc" cx="1.934" cy="1.934" r="1.934" transform="translate(69.64 87.549)"/><circle class="kc" cx="1.934" cy="1.934" r="1.934" transform="translate(73.508 93.353)"/><circle class="kc" cx="1.934" cy="1.934" r="1.934" transform="translate(61.902 87.549)"/><circle class="kc" cx="1.934" cy="1.934" r="1.934" transform="translate(65.771 93.353)"/></g></svg><svg viewBox="3270 5468 197.5 337.6" width="197.5" height="337.6" id="smLogic_dec" y="926"><defs><style>.lcls-1{fill:#fff}</style></defs><g id="lsmLogic_dec" transform="translate(3270 5468)"><g id="lgroup"><path id="lpath" class="lcls-1" d="M85.1 23.5A23.5 23.5 0 1 0 108.6 0a23.537 23.537 0 0 0-23.5 23.5zm35.5 0a11.95 11.95 0 1 1-12-12 12.1 12.1 0 0 1 12 12z"/><path id="lpath-2" data-name="path" class="lcls-1" d="M197.4 307.4h-67.5a23.58 23.58 0 0 0-5.6-9.7l60.5-104.8a23.468 23.468 0 0 0 5.4.7 22.43 22.43 0 0 0 7.3-1.3v-12.8a12.132 12.132 0 0 1-7.3 2.5 11.95 11.95 0 1 1 7.3-21.4v-12.8a21.964 21.964 0 0 0-7.3-1.3 23.582 23.582 0 0 0-22.9 18.2H46.4a23.591 23.591 0 1 0-.3 11.6h121.6a23.342 23.342 0 0 0 6.9 11.2l-60.2 104.3a22.719 22.719 0 0 0-6.9-1.2 23.5 23.5 0 1 0 23 28.4h67v-11.6zM23.5 181.9a11.95 11.95 0 1 1 12-11.9 11.928 11.928 0 0 1-12 11.9zM107.4 326a11.95 11.95 0 1 1 12-11.9 11.928 11.928 0 0 1-12 11.9z"/></g></g></svg></svg>