<?xml version="1.0" encoding="utf-8"?>
<!-- Generator: Adobe Illustrator 20.1.0, SVG Export Plug-In . SVG Version: 6.00 Build 0)  -->
<svg version="1.1" id="Layer_1" xmlns="http://www.w3.org/2000/svg" xmlns:xlink="http://www.w3.org/1999/xlink" x="0px" y="0px"
	 width="78.1px" height="90.2px" viewBox="0 0 78.1 90.2" style="enable-background:new 0 0 78.1 90.2;" xml:space="preserve">
<style type="text/css">
	.st0{fill:#135495;}
</style>
<path id="alarm" transform="translate(2894.991 5023)" class="st0" d="M-2830.9-4978c0-13.9-11.3-25.2-25.2-25.2
	c-13.9,0-25.2,11.3-25.2,25.2v25.2h50.5V-4978z M-2856.2-4987.2c-5.1,0-9.3,4.2-9.3,9.3c0,1.3-1.1,2.2-2.3,2.2c-1.2,0-2.2-1-2.2-2.2
	c0-7.6,6.2-13.8,13.8-13.8c1.3,0,2.3,1,2.3,2.2C-2853.9-4988.3-2854.9-4987.3-2856.2-4987.2
	C-2856.2-4987.2-2856.2-4987.2-2856.2-4987.2L-2856.2-4987.2z M-2825.7-4948.2h-60.3c-4.1,0-7.5,4.7-7.5,8.8v6.6h75v-6.6
	C-2818.5-4943.5-2821.6-4948.2-2825.7-4948.2z M-2856.1-5007.9c1.3,0,2.3-1,2.3-2.3c0,0,0,0,0,0v-10.6c0-1.3-1-2.3-2.3-2.3
	c-1.2,0-2.3,1-2.3,2.3v10.6C-2858.4-5008.9-2857.4-5007.9-2856.1-5007.9C-2856.1-5007.9-2856.1-5007.9-2856.1-5007.9z
	 M-2873.9-5004.7c0.6,1.1,2,1.5,3.1,0.9c1.1-0.6,1.5-2,0.9-3.1c0,0,0,0,0,0l-5.3-9.2c-0.6-1.1-2-1.5-3.1-0.9c-1.1,0.6-1.5,2-0.9,3.1
	c0,0,0,0,0,0L-2873.9-5004.7z M-2893.9-4997.5l9.2,5.3c1.1,0.6,2.5,0.2,3.1-0.9c0.6-1.1,0.2-2.4-0.8-3.1l-9.2-5.3
	c-1.1-0.6-2.5-0.2-3.1,0.9C-2895.3-4999.5-2894.9-4998.1-2893.9-4997.5z M-2841.1-5003.9c1.1,0.6,2.5,0.3,3.1-0.8c0,0,0,0,0,0
	l5.3-9.2c0.6-1.1,0.2-2.5-0.9-3.1c-1.1-0.6-2.4-0.2-3.1,0.8l-5.3,9.2C-2842.6-5005.9-2842.2-5004.5-2841.1-5003.9
	C-2841.1-5003.9-2841.1-5003.9-2841.1-5003.9z M-2828.4-4991.9c0.4,0,0.8-0.1,1.1-0.3l9.2-5.3c1.1-0.6,1.5-2,0.9-3.1
	c-0.6-1.1-2-1.5-3.1-0.9c0,0,0,0,0,0l-9.2,5.3c-1.1,0.6-1.5,2-0.8,3.1C-2829.9-4992.3-2829.2-4991.9-2828.4-4991.9L-2828.4-4991.9z"
	/>
</svg>
