<?xml version="1.0" encoding="utf-8"?>
<!-- Generator: Adobe Illustrator 20.1.0, SVG Export Plug-In . SVG Version: 6.00 Build 0)  -->
<svg version="1.1" id="Layer_1" xmlns="http://www.w3.org/2000/svg" xmlns:xlink="http://www.w3.org/1999/xlink" x="0px" y="0px"
	 width="100.9px" height="90px" viewBox="0 0 100.9 90" style="enable-background:new 0 0 100.9 90;" xml:space="preserve">
<style type="text/css">
	.st0{fill:#135495;}
</style>
<path id="barrier" transform="translate(3258 4996.5)" class="st0" d="M-3160.6-4965.3h-70.7v-3.7c0-1.9-1.6-3.5-3.5-3.5h-19.7
	c-1.9,0-3.5,1.6-3.5,3.5v58.9c0,1.9,1.6,3.5,3.5,3.5c0,0,0,0,0,0h19.7c1.9,0,3.5-1.6,3.5-3.5l0,0v-31.3h70.7c1.9,0,3.5-1.6,3.5-3.5
	c0,0,0,0,0,0v-17.1C-3157.1-4963.7-3158.7-4965.3-3160.6-4965.3z M-3184.4-4958.3h9.9l-10.1,10.1h-9.9L-3184.4-4958.3z
	 M-3205.5-4948.2h-9.9l10.1-10.1h9.9L-3205.5-4948.2z M-3164.1-4957.7v9.5h-9.5L-3164.1-4957.7z M-3244.6-4954.4
	c-3.2,0-5.9-2.6-5.9-5.9c0-3.2,2.6-5.9,5.9-5.9c3.2,0,5.9,2.6,5.9,5.9S-3241.4-4954.4-3244.6-4954.4
	C-3244.6-4954.4-3244.6-4954.4-3244.6-4954.4L-3244.6-4954.4z M-3231.3-4953.2l5.1-5.1h9.9l-10.1,10.1h-4.9V-4953.2z M-3252-4976.5
	h14.8c1.9,0,3.5-1.6,3.5-3.5c0-1.9-1.6-3.5-3.5-3.5v-5.7c0-4.1-3.3-7.4-7.4-7.4s-7.4,3.3-7.4,7.4v5.7c-1.9,0-3.5,1.6-3.5,3.5
	C-3255.5-4978-3254-4976.5-3252-4976.5L-3252-4976.5z"/>
</svg>
