<svg xmlns="http://www.w3.org/2000/svg" viewBox="2538 5023.021 124.766 90.16">
  <defs>
    <style>
      .cls-1 {
        fill: #135495;
      }
    </style>
  </defs>
  <path id="path" class="cls-1" d="M123.679,106.551,57.34,40.213a4.459,4.459,0,0,0-6.288,0L26.215,65.05a4.545,4.545,0,0,0,0,6.359l6.268,6.339H14.673V67.38a4.318,4.318,0,0,0-4.42-4.305H4.473A4.364,4.364,0,0,0,0,67.38v35.126a4.605,4.605,0,0,0,4.473,4.587h5.78a4.56,4.56,0,0,0,4.42-4.587V92.421H47.156l35.022,34.951a6.592,6.592,0,0,0,7.121,1.12L122.846,111.7a3.03,3.03,0,0,0,.833-5.15ZM51.6,49.723a3.668,3.668,0,1,1,0,5.188A3.668,3.668,0,0,1,51.6,49.723Zm23.721,60.191-41.8-41.8,5.03-5.03,41.8,41.8Z" transform="translate(2538 4984.105)"/>
</svg>
