<?xml version="1.0" encoding="utf-8"?>
<!-- Generator: Adobe Illustrator 20.1.0, SVG Export Plug-In . SVG Version: 6.00 Build 0)  -->
<svg version="1.1" id="Layer_1" xmlns="http://www.w3.org/2000/svg" xmlns:xlink="http://www.w3.org/1999/xlink" x="0px" y="0px"
	 width="72.4px" height="89.8px" viewBox="0 0 72.4 89.8" style="enable-background:new 0 0 72.4 89.8;" xml:space="preserve">
<style type="text/css">
	.st0{fill:#135495;}
</style>
<path id="disabled" transform="translate(6283.62 5218.169)" class="st0" d="M-6251-5200.5c4.9,0,8.9-3.9,8.9-8.8s-3.9-8.9-8.8-8.9
	c-4.9,0-8.9,3.9-8.9,8.8c0,0,0,0,0,0C-6259.9-5204.4-6255.9-5200.5-6251-5200.5z M-6237.4-5150.3c-3,10.3-13.9,16.2-24.2,13.2
	c-10.3-3-16.2-13.9-13.2-24.2c1.6-5.5,5.6-10,10.8-12.3v-8.3c-14.5,4.3-22.8,19.4-18.5,33.9c4.3,14.5,19.4,22.8,33.9,18.5
	c7.6-2.2,13.8-7.6,17.1-14.8l-3.1-6.1L-6237.4-5150.3z M-6211.8-5139.8l-11.8-23.3c-0.9-1.7-2.7-2.8-4.6-2.8h-15.1v-3.5h13
	c2.1-0.1,3.8-1.8,3.9-3.9c0-2.1-1.7-3.9-3.9-3.9c0,0,0,0,0,0h-13v-11.7c0-4.3-3.4-7.8-7.7-7.8c-4.3,0-7.8,3.4-7.8,7.7
	c0,0.1,0,0.1,0,0.2v25.4c0,4.4,3.5,7.9,7.9,8c0,0,0,0,0,0h19.5l10.4,20.5c0.9,1.7,2.7,2.8,4.6,2.8c0.8,0,1.6-0.2,2.3-0.6
	C-6211.5-5134.1-6210.5-5137.2-6211.8-5139.8z"/>
</svg>
