<?xml version="1.0" encoding="utf-8"?>
<!-- Generator: Adobe Illustrator 20.1.0, SVG Export Plug-In . SVG Version: 6.00 Build 0)  -->
<svg version="1.1" id="Layer_1" xmlns="http://www.w3.org/2000/svg" xmlns:xlink="http://www.w3.org/1999/xlink" x="0px" y="0px"
	 width="54.3px" height="89.5px" viewBox="0 0 54.3 89.5" style="enable-background:new 0 0 54.3 89.5;" xml:space="preserve">
<style type="text/css">
	.st0{fill:#135495;}
</style>
<path id="fire-extinguisher" class="st0" d="M54.1,18.2c-2.5-3.5-6.1-6.1-10.3-7.2l-6.5-1.8c3.8-1.2,7.1-3.6,9.4-6.9
	c0.5-0.7,0.3-1.6-0.4-2.1C46,0,45.6-0.1,45.2,0L26.4,3.9C25.8,4,25.4,4.4,25.4,5v4.8h-1.8c-0.6,0-1.1,0.5-1.1,1.1v0.3
	c-11.7,0.3-21,9.9-21.1,21.6v16.8c-1,0.8-1.5,2.1-1.5,3.3v19.8c0,2.5,2,4.5,4.5,4.5s4.5-2,4.5-4.5V52.9c0-1.3-0.5-2.5-1.5-3.3V32.8
	c0-8.4,6.7-15.3,15-15.5v0.2c0,0.6,0.5,1.1,1.1,1.1h1.8v5.6C18.1,26.6,13,33.5,13,41.3v43.8c0,2.4,2,4.4,4.4,4.4h27
	c2.4,0,4.4-2,4.4-4.4V41.3c0-7.8-5-14.7-12.4-17.1v-6.9l16.1,3.3c0.8,0.2,1.6-0.4,1.8-1.2C54.4,19,54.3,18.6,54.1,18.2L54.1,18.2z
	 M39.2,49.9v23.5c0,1.5-1.2,2.7-2.7,2.7c0,0,0,0,0,0h-11c-1.5,0-2.7-1.2-2.7-2.7V49.9c0-1.5,1.2-2.7,2.7-2.7h11
	C38,47.2,39.2,48.4,39.2,49.9C39.2,49.9,39.2,49.9,39.2,49.9z"/>
</svg>
