<?xml version="1.0" encoding="utf-8"?>
<!-- Generator: Adobe Illustrator 20.1.0, SVG Export Plug-In . SVG Version: 6.00 Build 0)  -->
<svg version="1.1" id="Layer_1" xmlns="http://www.w3.org/2000/svg" xmlns:xlink="http://www.w3.org/1999/xlink" x="0px" y="0px"
	 width="106.9px" height="90px" viewBox="0 0 106.9 90" style="enable-background:new 0 0 106.9 90;" xml:space="preserve">
<style type="text/css">
	.st0{fill:#135495;}
</style>
<path id="fire-alarm" transform="translate(4792 5211.432)" class="st0" d="M-4687.3-5211.4h-102.5c-1.2,0-2.2,1-2.2,2.2v11.4
	c0,1.2,1,2.2,2.2,2.2c0,0,0,0,0,0h10.1c1.6,23,21.6,40.2,44.6,38.6c20.7-1.5,37.1-17.9,38.6-38.6h9.2c1.2,0,2.2-1,2.2-2.2l0,0v-11.4
	C-4685.1-5210.4-4686.1-5211.4-4687.3-5211.4z M-4738.1-5162c-19.1,0-34.9-14.6-36.5-33.6h73C-4703.1-5176.6-4719-5162-4738.1-5162z
	 M-4735.6-5142.3c-0.4,0-0.8,0.2-1,0.6c-0.6,1-5.8,10.2-5.8,13.5c0,3.7,3,6.8,6.8,6.8c3.7,0,6.8-3,6.8-6.8c0-3.3-5.2-12.5-5.8-13.5
	C-4734.8-5142.1-4735.2-5142.3-4735.6-5142.3z M-4771-5158.2c-0.4,0-0.8,0.2-1,0.6c-0.6,1-5.8,10.2-5.8,13.5c0,3.7,3,6.8,6.8,6.8
	c3.7,0,6.8-3,6.8-6.8c0,0,0,0,0,0c0-3.3-5.2-12.5-5.8-13.5C-4770.3-5158-4770.6-5158.2-4771-5158.2z M-4703.5-5158.2
	c-0.4,0-0.8,0.2-1,0.6c-0.6,1-5.8,10.2-5.8,13.5c0,3.7,3,6.8,6.8,6.8c3.7,0,6.8-3,6.8-6.8c0-3.3-5.2-12.5-5.8-13.5
	C-4702.8-5158-4703.1-5158.2-4703.5-5158.2z"/>
</svg>
