<?xml version="1.0" encoding="utf-8"?>
<!-- Generator: Adobe Illustrator 20.1.0, SVG Export Plug-In . SVG Version: 6.00 Build 0)  -->
<svg version="1.1" id="Layer_1" xmlns="http://www.w3.org/2000/svg" xmlns:xlink="http://www.w3.org/1999/xlink" x="0px" y="0px"
	 width="96.7px" height="90px" viewBox="0 0 96.7 90" style="enable-background:new 0 0 96.7 90;" xml:space="preserve">
<style type="text/css">
	.st0{fill:#135495;}
</style>
<path id="alarm" class="st0" d="M96.7,5c0-2.8-2.2-5-5-5l0,0H5C2.2,0,0,2.2,0,5l0,0v80c0,2.8,2.2,5,5,5l0,0h86.7c2.8,0,5-2.2,5-5
	l0,0V5z M82.9,69.1H13.8V34.7h69.1V69.1z M48.7,44.7c3.8,0,6.9,3.1,6.9,6.9c0,3.8-3.1,6.9-6.9,6.9c-3.8,0-6.9-3.1-6.9-6.9
	C41.8,47.8,44.9,44.7,48.7,44.7z M69.5,55.3h6.7v-6.7h-6.7v-3.5l-10,6.5l10,6.9V55.3z M27.6,58.5l10-6.9l-10-6.5v3.5h-6.7v6.7h6.7
	C27.6,55.3,27.6,58.5,27.6,58.5z"/>
</svg>
