<?xml version="1.0" encoding="utf-8"?>
<!-- Generator: Adobe Illustrator 20.1.0, SVG Export Plug-In . SVG Version: 6.00 Build 0)  -->
<svg version="1.1" id="Layer_1" xmlns="http://www.w3.org/2000/svg" xmlns:xlink="http://www.w3.org/1999/xlink" x="0px" y="0px"
	 width="62.9px" height="90.4px" viewBox="0 0 62.9 90.4" style="enable-background:new 0 0 62.9 90.4;" xml:space="preserve">
<style type="text/css">
	.st0{fill:#135495;}
</style>
<path id="metal-detector-gate" transform="translate(2917.014 5258.555)" class="st0" d="M-2861.4-5258.6h-48.3
	c-4.1,0-7.3,3.3-7.3,7.4v80.6c0,1.2,1,2.2,2.2,2.2c0,0,0,0,0,0h3.9c1.2,0,2.3-1,2.3-2.2v-72.9c0-0.7,0.5-1.2,1.2-1.2c0,0,0,0,0,0
	h43.7c0.7,0,1.3,0.5,1.3,1.2v72.9c0,1.2,0.9,2.2,2.1,2.2c0,0,0,0,0.1,0h3.9c1.2,0,2.2-1,2.2-2.2c0,0,0,0,0,0v-80.6
	C-2854.1-5255.2-2857.4-5258.5-2861.4-5258.6C-2861.4-5258.6-2861.4-5258.6-2861.4-5258.6z M-2893.5-5251.5c0,0.8-0.6,1.4-1.4,1.4
	h-7c-0.8,0-1.4-0.6-1.4-1.4v-1.2c0-0.8,0.6-1.4,1.4-1.4l0,0h7c0.8,0,1.4,0.6,1.4,1.4V-5251.5z M-2886.1-5249.2c-1.6,0-3-1.3-3-3
	c0-1.6,1.3-3,3-3s3,1.3,3,3l0,0C-2883.1-5250.5-2884.4-5249.2-2886.1-5249.2C-2886.1-5249.2-2886.1-5249.2-2886.1-5249.2z
	 M-2867.9-5251.5c0,0.8-0.6,1.4-1.4,1.4h-7c-0.8,0-1.4-0.6-1.4-1.4v-1.2c0-0.8,0.6-1.4,1.4-1.4l0,0h7c0.8,0,1.4,0.6,1.4,1.4V-5251.5
	z M-2873-5202.4l-2-16.8c-0.3-2.5-2.5-4.5-5-4.5h-11.2c-2.6,0-4.7,1.9-5,4.5l-1.9,16.8c0,0.3,0.1,0.6,0.2,0.9
	c0.2,0.2,0.5,0.4,0.8,0.4l3.4,0l-0.8,7.1c0,0.3,0.1,0.6,0.3,0.9c0.2,0.2,0.5,0.4,0.8,0.4h0.3v22.4c0,1.2,1,2.2,2.2,2.2h2.2
	c1.2,0,2.1-0.9,2.2-2.1c0,0,0,0,0,0v-22.4h1.7v22.4c0,1.2,1,2.2,2.2,2.2c0,0,0,0,0,0h2.2c1.2,0,2.2-1,2.2-2.1c0,0,0,0,0,0v-22.4h0.3
	c0.3,0,0.6-0.1,0.9-0.4c0.2-0.2,0.3-0.6,0.3-0.9l-0.7-7.1h3.4C-2873.4-5201.1-2873-5201.7-2873-5202.4
	C-2873-5202.4-2873-5202.4-2873-5202.4z M-2885.6-5237.8c3.3,0,6,2.7,6,6c0,3.3-2.7,6-6,6c-3.3,0-6-2.7-6-6
	C-2891.6-5235.1-2888.9-5237.8-2885.6-5237.8z"/>
</svg>
