<?xml version="1.0" encoding="utf-8"?>
<!-- Generator: Adobe Illustrator 20.1.0, SVG Export Plug-In . SVG Version: 6.00 Build 0)  -->
<svg version="1.1" id="Layer_1" xmlns="http://www.w3.org/2000/svg" xmlns:xlink="http://www.w3.org/1999/xlink" x="0px" y="0px"
	 width="75.2px" height="90px" viewBox="0 0 75.2 90" style="enable-background:new 0 0 75.2 90;" xml:space="preserve">
<style type="text/css">
	.st0{fill:#135495;}
</style>
<path id="hood" transform="translate(4414.538 5251)" class="st0" d="M-4397.5-5183.8c-0.1-1.7-1.5-2.9-3.2-2.8
	c-1.5,0.1-2.7,1.3-2.8,2.8c0,0.6-0.2,1.1-0.6,1.5c-2.4,3-2.4,7.2,0,10.1c0.8,0.9,0.8,2.2,0,3.1c-1.2,1.4-1.8,3.2-1.8,5.1
	c0,1.7,1.3,3,3,3c1.7,0,3-1.3,3-3c0-0.6,0.2-1.1,0.6-1.5c2.4-3,2.4-7.2,0-10.1c-0.8-0.9-0.8-2.2,0-3.1
	C-4398.1-5180.1-4397.4-5181.9-4397.5-5183.8z M-4372.8-5183.8c-0.1-1.7-1.5-2.9-3.2-2.8c-1.5,0.1-2.7,1.3-2.8,2.8
	c0,0.6-0.2,1.1-0.6,1.5c-2.4,3-2.4,7.2,0,10.1c0.8,0.9,0.8,2.2,0,3.1c-1.2,1.4-1.8,3.2-1.8,5.1c0,1.7,1.3,3,3,3c1.7,0,3-1.3,3-3
	c0-0.6,0.2-1.1,0.6-1.5c2.4-3,2.4-7.2,0-10.1c-0.8-0.9-0.8-2.2,0-3.1C-4373.4-5180.1-4372.7-5181.9-4372.8-5183.8z M-4348.1-5183.8
	c-0.1-1.7-1.5-2.9-3.2-2.8c-1.5,0.1-2.7,1.3-2.8,2.8c0,0.6-0.2,1.1-0.6,1.5c-2.4,3-2.4,7.2,0,10.1c0.8,0.9,0.8,2.2,0,3.1
	c-1.2,1.4-1.8,3.2-1.8,5.1c0,1.7,1.3,3,3,3c1.7,0,3-1.3,3-3c0-0.6,0.2-1.1,0.6-1.5c2.4-3,2.4-7.2,0-10.1c-0.8-0.9-0.8-2.2,0-3.1
	C-4348.7-5180.1-4348-5181.9-4348.1-5183.8z M-4353.3-5221.8c-0.8-0.6-1.7-0.9-2.7-1h-42c-1,0-1.9,0.4-2.7,1l-9.2,7.9
	c-0.6,0.5-0.5,1,0.4,1h65c0.8,0,1-0.4,0.4-1L-4353.3-5221.8z M-4414.5-5208.5C-4414.5-5208.5-4414.5-5208.5-4414.5-5208.5v14.9
	c0,1.7,1.3,3,3,3h69.2c1.7,0,3-1.3,3-3v-14.9H-4414.5z M-4356.7-5248c0-1.7-1.3-3-3-3h-34.6c-1.7,0-3,1.3-3,3v21h40.6V-5248z
	 M-4371.9-5231.6c-0.8,0.8-2.1,0.8-3,0c-1.2-1.1-3-1.1-4.2,0c-0.8,0.9-2.1,0.9-3,0.2c-0.9-0.8-0.9-2.1-0.2-3
	c0.1-0.1,0.1-0.1,0.2-0.2c2.8-2.8,7.3-2.8,10.1,0C-4371.1-5233.8-4371.1-5232.5-4371.9-5231.6L-4371.9-5231.6z M-4368-5237.2
	c-0.8,0.8-2.1,0.8-3,0c-3.3-3.3-8.7-3.3-12,0c0,0,0,0,0,0c-0.8,0.9-2.1,1-3,0.2c-0.9-0.8-1-2.1-0.2-3c0.1-0.1,0.1-0.1,0.2-0.2
	c5-5,13-5,17.9,0c0,0,0,0,0,0C-4367.2-5239.3-4367.2-5238-4368-5237.2z"/>
</svg>
