<?xml version="1.0" encoding="utf-8"?>
<!-- Generator: Adobe Illustrator 20.1.0, SVG Export Plug-In . SVG Version: 6.00 Build 0)  -->
<svg version="1.1" id="Layer_1" xmlns="http://www.w3.org/2000/svg" xmlns:xlink="http://www.w3.org/1999/xlink" x="0px" y="0px"
	 width="105.4px" height="90.4px" viewBox="0 0 105.4 90.4" style="enable-background:new 0 0 105.4 90.4;" xml:space="preserve">
<style type="text/css">
	.st0{fill:#135495;}
</style>
<path id="bull-horn-announcer" transform="translate(4608 5003.248)" class="st0" d="M-4504.8-4970.9c-1.4-1.4-3.3-2.2-5.3-2.2l0,0
	v-22.6c-0.1-4.1-3.4-7.5-7.5-7.5c-18.1,15.1-35.6,22.6-52.7,22.6h-28.2c-2.5,0-4.9,1-6.6,2.8c-1.8,1.7-2.8,4.1-2.8,6.6v11.3
	c0,2.5,1,4.9,2.8,6.6c1.7,1.8,4.1,2.8,6.6,2.8h7.2c-0.7,2.1-1.1,4.3-1.3,6.5c-0.2,1.9-0.3,3.9-0.2,5.8c0.1,2,0.4,4,0.9,5.9
	c0.5,2.3,1,4.1,1.4,5.2s1,3,1.9,5.6c0.9,2.5,1.5,4.2,1.7,5.1c2.2,1.8,4.9,3,7.8,3.3c3.3,0.5,6.7,0.3,9.9-0.7c3.2-1,5.4-2.6,6.6-4.9
	c-1.5-1.2-2.7-2.2-3.6-3c-1-0.9-2-1.9-2.8-2.9c-0.8-1-1.5-2-2-3.2c-0.4-1.1-0.5-2.3-0.4-3.4c0.2-1.4,0.6-2.7,1.4-3.9
	c-1.5-1.4-2.3-3.4-2.4-5.4c-0.1-2.1,0.6-4.2,1.8-5.9c1.3-1.9,3.2-3.2,5.4-3.9c15.5,1.3,31.4,8.7,47.7,22.3c4.1-0.1,7.5-3.4,7.5-7.5
	v-22.6c4.2,0,7.5-3.4,7.5-7.5C-4502.6-4967.6-4503.4-4969.5-4504.8-4970.9L-4504.8-4970.9z M-4517.7-4937.6
	c-15.3-11.7-30.4-18.4-45.2-20v-15.9c14.7-1.6,29.7-8.3,45.2-20.2V-4937.6z"/>
</svg>
