<?xml version="1.0" encoding="utf-8"?>
<!-- Generator: Adobe Illustrator 20.1.0, SVG Export Plug-In . SVG Version: 6.00 Build 0)  -->
<svg version="1.1" id="Layer_1" xmlns="http://www.w3.org/2000/svg" xmlns:xlink="http://www.w3.org/1999/xlink" x="0px" y="0px"
	 width="83.6px" height="90.5px" viewBox="0 0 83.6 90.5" style="enable-background:new 0 0 83.6 90.5;" xml:space="preserve">
<style type="text/css">
	.st0{fill:#135495;}
</style>
<path id="internet-socket" transform="translate(8200 5212.471)" class="st0" d="M-8125.8-5212.5h-64.8c-5.2,0-9.4,4.2-9.4,9.4v64.8
	c0,5.2,4.2,9.4,9.4,9.4h1.1v5.2c0,1,0.8,1.7,1.7,1.7h59.2c1,0,1.7-0.8,1.7-1.7v-5.2h1.1c5.2,0,9.4-4.2,9.4-9.4v-64.8
	C-8116.4-5208.3-8120.6-5212.5-8125.8-5212.5z M-8130.3-5125.4h-55.7v-3.5h55.7V-5125.4z M-8119.9-5138.3c0,3.2-2.6,5.9-5.9,5.9
	h-64.8c-3.2,0-5.9-2.6-5.9-5.9v-64.8c0-3.2,2.6-5.9,5.9-5.9h64.8c3.2,0,5.9,2.6,5.9,5.9L-8119.9-5138.3z M-8130.3-5203.8h-55.8
	c-1,0-1.7,0.8-1.7,1.7v34.9c0,1,0.8,1.7,1.7,1.7h12.2v12.1c0,1,0.8,1.7,1.7,1.7h27.9c1,0,1.7-0.8,1.7-1.7v-12.1h12.2
	c1,0,1.7-0.8,1.7-1.7v-34.9C-8128.6-5203-8129.4-5203.8-8130.3-5203.8z M-8132.1-5168.9h-12.2c-1,0-1.7,0.8-1.7,1.7v12.1h-24.4
	v-12.1c0-1-0.8-1.7-1.7-1.7h-12.2v-31.4h3.5v17.4c0,1,0.8,1.7,1.7,1.7s1.7-0.8,1.7-1.7v-17.4h3.5v17.4c0,1,0.8,1.7,1.7,1.7
	s1.7-0.8,1.7-1.7v-17.4h3.5v17.4c0,1,0.8,1.7,1.7,1.7s1.7-0.8,1.7-1.7v-17.4h3.5v17.4c0,1,0.8,1.7,1.7,1.7s1.7-0.8,1.7-1.7v-17.4
	h3.5v17.4c0,1,0.8,1.7,1.7,1.7c1,0,1.7-0.8,1.7-1.7v-17.4h3.5v17.4c0,1,0.8,1.7,1.7,1.7s1.7-0.8,1.7-1.7v-17.4h3.5v17.4
	c0,1,0.8,1.7,1.7,1.7s1.7-0.8,1.7-1.7v-17.4h3.5L-8132.1-5168.9z M-8158.2-5179.4c-1,0-1.7,0.8-1.7,1.7v1.7c0,1,0.8,1.7,1.7,1.7
	c1,0,1.7-0.8,1.7-1.7c0,0,0,0,0,0v-1.7C-8156.5-5178.6-8157.2-5179.4-8158.2-5179.4z M-8165.2-5179.4c-1,0-1.7,0.8-1.7,1.7v1.7
	c0,1,0.8,1.7,1.7,1.7c1,0,1.7-0.8,1.7-1.7c0,0,0,0,0,0v-1.7C-8163.4-5178.6-8164.2-5179.4-8165.2-5179.4z M-8172.2-5179.4
	c-1,0-1.7,0.8-1.7,1.7v1.7c0,1,0.8,1.7,1.7,1.7c1,0,1.7-0.8,1.7-1.7c0,0,0,0,0,0v-1.7C-8170.4-5178.6-8171.2-5179.4-8172.2-5179.4z
	 M-8179.1-5179.4c-1,0-1.7,0.8-1.7,1.7v1.7c0,1,0.8,1.7,1.7,1.7s1.7-0.8,1.7-1.7l0,0v-1.7
	C-8177.4-5178.6-8178.2-5179.4-8179.1-5179.4z M-8137.3-5179.4c-1,0-1.7,0.8-1.7,1.7v1.7c0,1,0.8,1.7,1.7,1.7c1,0,1.7-0.8,1.7-1.7
	c0,0,0,0,0,0v-1.7C-8135.6-5178.6-8136.3-5179.4-8137.3-5179.4z M-8144.3-5179.4c-1,0-1.7,0.8-1.7,1.7v1.7c0,1,0.8,1.7,1.7,1.7
	c1,0,1.7-0.8,1.7-1.7c0,0,0,0,0,0v-1.7C-8142.5-5178.6-8143.3-5179.4-8144.3-5179.4z M-8151.2-5179.4c-1,0-1.7,0.8-1.7,1.7v1.7
	c0,1,0.8,1.7,1.7,1.7c1,0,1.7-0.8,1.7-1.7c0,0,0,0,0,0v-1.7C-8149.5-5178.6-8150.3-5179.4-8151.2-5179.4z"/>
</svg>
