<?xml version="1.0" encoding="utf-8"?>
<!-- Generator: Adobe Illustrator 20.1.0, SVG Export Plug-In . SVG Version: 6.00 Build 0)  -->
<svg version="1.1" id="Layer_1" xmlns="http://www.w3.org/2000/svg" xmlns:xlink="http://www.w3.org/1999/xlink" x="0px" y="0px"
	 width="90.9px" height="90.2px" viewBox="0 0 90.9 90.2" style="enable-background:new 0 0 90.9 90.2;" xml:space="preserve">
<style type="text/css">
	.st0{fill:#135495;}
</style>
<path id="laptop" transform="translate(8014.7 5025.56)" class="st0" d="M-7929.4-5025.6h-32.2c-3.1,0-5.6,2.5-5.6,5.6v23.1
	c0,3.1,2.5,5.6,5.6,5.6h13.8v3.8h-4.2c-1.3,0-2.3,1-2.3,2.2s1,2.3,2.2,2.3c0,0,0.1,0,0.1,0h12.9c1.3,0,2.3-1,2.3-2.2s-1-2.3-2.2-2.3
	c0,0-0.1,0-0.1,0h-4.2v-3.8h13.8c3.1,0,5.6-2.5,5.6-5.6v-23.1C-7923.8-5023-7926.3-5025.5-7929.4-5025.6z M-7928.3-4996.8
	c0,0.6-0.5,1-1,1c0,0,0,0,0,0h-32.2c-0.6,0-1-0.5-1-1c0,0,0,0,0,0v-23.1c0-0.6,0.5-1,1-1c0,0,0,0,0,0h32.2c0.6,0,1,0.5,1,1
	c0,0,0,0,0,0V-4996.8z M-8014.7-4972.4v23.1c0,3.1,2.5,5.6,5.6,5.6h13.8v3.8h-4.2c-1.3,0-2.3,1-2.3,2.2s1,2.3,2.2,2.3
	c0,0,0.1,0,0.1,0h12.9c1.3,0,2.3-1,2.3-2.2c0-1.3-1-2.3-2.2-2.3c0,0-0.1,0-0.1,0h-4.2v-3.8h13.8c3.1,0,5.6-2.5,5.6-5.6v-23.1
	c0-3.1-2.5-5.6-5.6-5.6h-32.2C-8012.2-4978-8014.7-4975.5-8014.7-4972.4z M-7975.9-4972.4v23.1c0,0.6-0.5,1-1,1c0,0,0,0,0,0h-32.2
	c-0.6,0-1-0.5-1-1c0,0,0,0,0,0v-23.1c0-0.6,0.5-1,1-1c0,0,0,0,0,0h32.2C-7976.3-4973.5-7975.9-4973-7975.9-4972.4
	C-7975.9-4972.4-7975.9-4972.4-7975.9-4972.4z M-7975.4-5006.1c1.3,0,2.3-1,2.3-2.2s-1-2.3-2.2-2.3c0,0-0.1,0-0.1,0h-17.6
	c-1.3,0-2.3,1-2.3,2.3c0,0,0,0,0,0v18.1l-1.9-1.9c-0.9-0.9-2.3-0.9-3.2,0c-0.9,0.9-0.9,2.3,0,3.2l0,0l5.8,5.8c0.4,0.4,1,0.7,1.6,0.7
	c0.6,0,1.2-0.2,1.6-0.7l5.8-5.8c0.9-0.9,0.9-2.3,0-3.2c-0.9-0.9-2.3-0.9-3.2,0l0,0l-1.9,1.9v-15.8L-7975.4-5006.1L-7975.4-5006.1z
	 M-7963.1-4953.8c-1.3,0-2.3,1.1-2.2,2.3c0,1.2,1,2.2,2.2,2.2h17.6c1.3,0,2.3-1,2.3-2.3c0,0,0,0,0,0v-18.1l1.9,1.9
	c0.9,0.9,2.3,0.9,3.2,0.1c0.9-0.9,0.9-2.3,0.1-3.2c0,0,0,0-0.1-0.1l-5.8-5.8c-0.9-0.9-2.3-0.9-3.2,0c0,0,0,0,0,0l-5.8,5.8
	c-0.9,0.9-0.9,2.3,0,3.2c0.9,0.9,2.3,0.9,3.2,0l1.9-1.9v15.8L-7963.1-4953.8L-7963.1-4953.8z"/>
</svg>
