<?xml version="1.0" encoding="iso-8859-1"?>
<!-- Generator: Adobe Illustrator 18.0.0, SVG Export Plug-In . SVG Version: 6.00 Build 0)  -->
<!DOCTYPE svg PUBLIC "-//W3C//DTD SVG 1.1//EN" "http://www.w3.org/Graphics/SVG/1.1/DTD/svg11.dtd">
<svg version="1.1" id="Capa_1" xmlns="http://www.w3.org/2000/svg" xmlns:xlink="http://www.w3.org/1999/xlink" x="0px" y="0px"
	 viewBox="0 0 482.491 482.491" style="enable-background:new 0 0 482.491 482.491;" xml:space="preserve">
<g>
	<path d="M272.657,245.643V200.5c0-13.581-8.62-25.147-20.686-29.53V10.725C251.971,4.802,247.169,0,241.246,0
		c-5.923,0-10.725,4.802-10.725,10.725V170.97c-12.067,4.383-20.686,15.949-20.686,29.53v45.143
		c-80.733,14.292-143.028,82.66-147.967,166.215h358.756C415.685,328.303,353.39,259.935,272.657,245.643z"/>
	<path d="M241.246,482.491c37.521,0,70.537-19.643,89.315-49.183h-178.63C170.708,462.848,203.725,482.491,241.246,482.491z"/>
</g>
<g>
</g>
<g>
</g>
<g>
</g>
<g>
</g>
<g>
</g>
<g>
</g>
<g>
</g>
<g>
</g>
<g>
</g>
<g>
</g>
<g>
</g>
<g>
</g>
<g>
</g>
<g>
</g>
<g>
</g>
</svg>
