<?xml version="1.0" encoding="iso-8859-1"?>
<!-- Generator: Adobe Illustrator 18.0.0, SVG Export Plug-In . SVG Version: 6.00 Build 0)  -->
<!DOCTYPE svg PUBLIC "-//W3C//DTD SVG 1.1//EN" "http://www.w3.org/Graphics/SVG/1.1/DTD/svg11.dtd">
<svg version="1.1" id="Capa_1" xmlns="http://www.w3.org/2000/svg" xmlns:xlink="http://www.w3.org/1999/xlink" x="0px" y="0px"
	 viewBox="0 0 277.203 277.203" style="enable-background:new 0 0 277.203 277.203;" xml:space="preserve">
<path d="M237.17,259.343l-54.571-114.744c-2.069-4.362-6.466-7.143-11.294-7.143h-4.458v-29.581
	c14.233-3.215,24.898-15.953,24.898-31.145c0-17.609-14.327-31.937-31.937-31.937h-21.843C122.703,27.705,95.591,15.551,63.824,13
	v-0.5c0-6.903-5.597-12.5-12.5-12.5s-12.5,5.597-12.5,12.5v128.461c0,6.903,5.597,12.5,12.5,12.5s12.5-5.597,12.5-12.5v-0.5
	c31.768-2.551,58.881-14.705,74.143-31.795h3.879v28.79h-4.458c-4.828,0-9.225,2.78-11.294,7.143L71.702,259.343
	c-2.959,6.237-0.301,13.692,5.937,16.651c6.239,2.958,13.692,0.301,16.651-5.937l17.887-37.785l37.209,21.644
	c1.555,0.904,3.291,1.356,5.028,1.356s3.474-0.452,5.028-1.356l37.104-21.584l18.036,37.725c2.96,6.24,10.416,8.894,16.651,5.937
	C237.47,273.035,240.129,265.58,237.17,259.343z M138.628,83.666V69.794h21.181c3.825,0,6.937,3.111,6.937,6.937
	c0,3.824-3.111,6.936-6.936,6.936H138.628z M141.847,169.723l-0.023,56.657l-21.045-12.242L141.847,169.723z M166.823,226.485
	l0.023-56.762l21.097,44.476L166.823,226.485z"/>
<g>
</g>
<g>
</g>
<g>
</g>
<g>
</g>
<g>
</g>
<g>
</g>
<g>
</g>
<g>
</g>
<g>
</g>
<g>
</g>
<g>
</g>
<g>
</g>
<g>
</g>
<g>
</g>
<g>
</g>
</svg>
