<?xml version="1.0" encoding="utf-8"?>
<!-- Generator: Adobe Illustrator 20.1.0, SVG Export Plug-In . SVG Version: 6.00 Build 0)  -->
<svg version="1.1" id="Layer_1" xmlns="http://www.w3.org/2000/svg" xmlns:xlink="http://www.w3.org/1999/xlink" x="0px" y="0px"
	 width="41.1px" height="36px" viewBox="0 0 41.1 36" style="enable-background:new 0 0 41.1 36;" xml:space="preserve">
<style type="text/css">
	.st0{fill:#FFFFFF;}
</style>
<path id="logo_bw" transform="translate(757 931)" class="st0" d="M-745.4-926c1.4,0,2.5-1,2.5-2.4c0,0,0-0.1,0-0.1
	c0-1.4-1-2.5-2.4-2.5c0,0-0.1,0-0.1,0c-1.4,0-2.5,1-2.5,2.4c0,0,0,0.1,0,0.1c0,1.4,1,2.5,2.4,2.5C-745.5-926-745.4-926-745.4-926z
	 M-745.4-929.8c0.7,0,1.3,0.6,1.3,1.3c0,0.7-0.6,1.3-1.3,1.3s-1.3-0.6-1.3-1.3c0,0,0,0,0,0C-746.7-929.2-746.1-929.8-745.4-929.8
	L-745.4-929.8z M-718.6-915.3c-0.2,0-0.4,0-0.6,0.1l-6.6-11.4c0.5-0.5,0.7-1.1,0.7-1.8c0-1.4-1.2-2.5-2.6-2.5
	c-1.3,0-2.4,1.1-2.5,2.5c0,0.7,0.2,1.3,0.7,1.8l-6.6,11.5c-0.3-0.1-0.6-0.1-0.8-0.1c-1.1,0-2.1,0.8-2.4,1.9h-12.9
	c-0.2-1.1-1.2-1.9-2.4-1.9c-1.3-0.1-2.4,0.8-2.5,2.1c0,0.1,0,0.2,0,0.3c0,1.4,1,2.5,2.4,2.5c0,0,0.1,0,0.1,0c1.1,0,2.1-0.7,2.4-1.8
	h13c0.1,0.5,0.4,0.9,0.7,1.2l-6.5,11c-0.2,0-0.5-0.1-0.7-0.1c-1.4,0-2.5,1.1-2.6,2.5c0,1.4,1.1,2.5,2.5,2.6c0,0,0.1,0,0.1,0
	c1.2,0,2.2-0.9,2.5-2h12.8c0.3,1.2,1.3,2,2.5,2c1.4,0,2.5-1,2.5-2.4c0,0,0-0.1,0-0.1c0-0.6-0.2-1.2-0.6-1.7l6.6-11.4
	c0.3,0.1,0.6,0.1,0.8,0.1c1.4,0,2.5-1,2.5-2.4c0,0,0-0.1,0-0.1C-716.1-914.3-717.2-915.3-718.6-915.3z M-754.5-911.6
	c-0.7,0-1.3-0.6-1.3-1.3s0.6-1.3,1.3-1.3s1.3,0.6,1.3,1.3l0,0c0,0.7-0.5,1.3-1.2,1.3C-754.4-911.6-754.4-911.6-754.5-911.6z
	 M-727.6-929.8c0.7,0,1.3,0.6,1.3,1.3s-0.6,1.3-1.3,1.3s-1.3-0.6-1.3-1.3C-728.8-929.2-728.3-929.8-727.6-929.8z M-736.7-914.1
	c0.7,0,1.3,0.6,1.3,1.3s-0.6,1.3-1.3,1.3s-1.3-0.6-1.3-1.3l0,0C-738-913.5-737.4-914.1-736.7-914.1L-736.7-914.1z M-745.5-896.2
	c-0.7,0-1.3-0.6-1.3-1.3c0-0.7,0.6-1.2,1.3-1.2c0,0,0,0,0.1,0c0.7,0,1.3,0.6,1.3,1.3C-744.2-896.7-744.8-896.2-745.5-896.2
	C-745.5-896.2-745.5-896.2-745.5-896.2L-745.5-896.2z M-730.2-898.2h-12.9c-0.2-0.4-0.4-0.7-0.6-1.1l6.5-11.2c0.2,0,0.4,0.1,0.6,0.1
	c0.2,0,0.6-0.1,0.8-0.1l6.5,11.1C-729.8-899.1-730.1-898.7-730.2-898.2L-730.2-898.2z M-727.8-896.2c-0.7,0-1.3-0.6-1.3-1.3
	s0.6-1.3,1.3-1.3c0.7,0,1.3,0.6,1.3,1.3C-726.5-896.8-727.1-896.2-727.8-896.2L-727.8-896.2z M-727-899.8c-0.3-0.1-0.6-0.1-0.8-0.1
	h-0.5l-6.5-11.2c0.3-0.3,0.5-0.6,0.6-1h13.3c0.2,0.4,0.4,0.7,0.6,1.1L-727-899.8z M-721-913.4h-13.3c-0.1-0.4-0.3-0.8-0.6-1.2
	l6.7-11.5c0.5,0.2,1,0.2,1.4,0l6.6,11.4C-720.6-914.4-720.9-913.9-721-913.4z M-718.6-911.6c-0.7,0-1.3-0.6-1.3-1.3s0.6-1.3,1.3-1.3
	s1.3,0.6,1.3,1.3c0,0.7-0.5,1.3-1.2,1.3C-718.5-911.6-718.6-911.6-718.6-911.6L-718.6-911.6z"/>
</svg>
