<?xml version="1.0" encoding="utf-8"?>
<!-- Generator: Adobe Illustrator 20.1.0, SVG Export Plug-In . SVG Version: 6.00 Build 0)  -->
<svg version="1.1" id="Layer_1" xmlns="http://www.w3.org/2000/svg" xmlns:xlink="http://www.w3.org/1999/xlink" x="0px" y="0px"
	 width="22.4px" height="18.2px" viewBox="0 0 22.4 18.2" style="enable-background:new 0 0 22.4 18.2;" xml:space="preserve">
<style type="text/css">
	.st0{fill:#FFFFFF;}
</style>
<path transform="translate(557 730.5)" class="st0" d="M-556.1-728.4h20.7c0.5-0.1,0.9-0.5,0.8-1.1c0.1-0.5-0.3-1-0.8-1.1h-20.7
	c-0.5,0.1-0.9,0.5-0.8,1.1C-557-728.9-556.7-728.4-556.1-728.4z M-556.1-720.4h20.7c0.6-0.1,1-0.7,0.8-1.3c-0.1-0.4-0.4-0.7-0.8-0.8
	h-20.7c-0.6,0.1-1,0.7-0.8,1.3C-556.9-720.8-556.5-720.4-556.1-720.4z M-556.1-712.3h20.7c0.6-0.1,1-0.7,0.8-1.3
	c-0.1-0.4-0.4-0.7-0.8-0.8h-20.7c-0.6,0.1-1,0.7-0.8,1.3C-556.9-712.7-556.5-712.4-556.1-712.3z"/>
</svg>
