<?xml version="1.0" encoding="utf-8"?>
<!-- Generator: Adobe Illustrator 20.1.0, SVG Export Plug-In . SVG Version: 6.00 Build 0)  -->
<svg version="1.1" id="Layer_1" xmlns="http://www.w3.org/2000/svg" xmlns:xlink="http://www.w3.org/1999/xlink" x="0px" y="0px"
	 width="96.2px" height="89.8px" viewBox="0 0 96.2 89.8" style="enable-background:new 0 0 96.2 89.8;" xml:space="preserve">
<style type="text/css">
	.st0{fill:#135495;}
</style>
<path id="networking" transform="translate(7659.4 5013.212)" class="st0" d="M-7617.7-4975.7c-1.3,0-2.4,1.1-2.4,2.4
	s1.1,2.4,2.4,2.4h12.7c1.3,0,2.4-1.1,2.4-2.4s-1.1-2.4-2.4-2.4l0,0h-4v-3.4h13.4c3.1,0,5.7-2.5,5.7-5.7v-22.7c0-3.1-2.5-5.7-5.7-5.7
	h-31.6c-3.1,0-5.7,2.5-5.7,5.7v22.7c0,3.1,2.5,5.7,5.7,5.7h13.4v3.4L-7617.7-4975.7L-7617.7-4975.7z M-7628-4984.8v-22.7
	c0-0.5,0.4-0.9,0.9-0.9c0,0,0,0,0,0h31.6c0.5,0,0.9,0.4,0.9,0.9c0,0,0,0,0,0v22.7c0,0.5-0.4,0.9-0.9,0.9c0,0,0,0,0,0h-31.6
	C-7627.6-4983.9-7628-4984.3-7628-4984.8z M-7629.1-4925.8c0-1.3-1.1-2.4-2.4-2.4c0,0,0,0,0,0h-4v-3.4h13.4c3.1,0,5.7-2.5,5.7-5.7
	v-22.7c0-3.1-2.5-5.7-5.7-5.7h-31.6c-3.1,0-5.7,2.5-5.7,5.7v22.7c0,3.1,2.5,5.7,5.7,5.7h13.4v3.4h-4c-1.3,0-2.4,1.1-2.4,2.4
	s1.1,2.4,2.4,2.4h12.7C-7630.2-4923.4-7629.1-4924.5-7629.1-4925.8z M-7654.6-4937.3v-22.7c0-0.5,0.4-0.9,0.9-0.9c0,0,0,0,0,0h31.6
	c0.5,0,0.9,0.4,0.9,0.9c0,0,0,0,0,0v22.7c0,0.5-0.4,0.9-0.9,0.9c0,0,0,0,0,0h-31.6C-7654.2-4936.4-7654.6-4936.8-7654.6-4937.3z
	 M-7568.9-4931.6c3.1,0,5.7-2.5,5.7-5.7v-22.7c0-3.1-2.5-5.7-5.7-5.7h-31.6c-3.1,0-5.7,2.5-5.7,5.7v22.7c0,3.1,2.5,5.7,5.7,5.7h13.4
	v3.4h-4c-1.3,0-2.4,1.1-2.4,2.4s1.1,2.4,2.4,2.4h12.7c1.3,0,2.4-1.1,2.4-2.4s-1.1-2.4-2.4-2.4l0,0h-4v-3.4L-7568.9-4931.6z
	 M-7601.4-4937.3v-22.7c0-0.5,0.4-0.9,0.9-0.9c0,0,0,0,0,0h31.6c0.5,0,0.9,0.4,0.9,0.9c0,0,0,0,0,0v22.7c0,0.5-0.4,0.9-0.9,0.9
	c0,0,0,0,0,0h-31.6C-7601-4936.4-7601.4-4936.8-7601.4-4937.3z M-7651.6-5001.6c-1.3,0-2.4,1.1-2.4,2.4c0,0,0,0,0,0v25.9
	c0,1.3,1.1,2.4,2.4,2.4c1.3,0,2.4-1.1,2.4-2.4l0,0v-23.5h9.9c1.3,0,2.4-1.1,2.4-2.4c0-1.3-1.1-2.4-2.4-2.4L-7651.6-5001.6
	L-7651.6-5001.6z M-7585.7-4999.2c0,1.3,1.1,2.4,2.4,2.4c0,0,0,0,0,0h9.9v23.5c0,1.3,1.1,2.4,2.4,2.4c1.3,0,2.4-1.1,2.4-2.4l0,0
	v-25.9c0-1.3-1.1-2.4-2.4-2.4c0,0,0,0,0,0h-12.3C-7584.6-5001.6-7585.7-5000.6-7585.7-4999.2
	C-7585.7-4999.2-7585.7-4999.2-7585.7-4999.2z"/>
</svg>
