<?xml version="1.0" encoding="utf-8"?>
<!-- Generator: Adobe Illustrator 20.1.0, SVG Export Plug-In . SVG Version: 6.00 Build 0)  -->
<svg version="1.1" id="Layer_1" xmlns="http://www.w3.org/2000/svg" xmlns:xlink="http://www.w3.org/1999/xlink" x="0px" y="0px"
	 width="14.6px" height="25.2px" viewBox="0 0 14.6 25.2" style="enable-background:new 0 0 14.6 25.2;" xml:space="preserve">
<style type="text/css">
	.st0{fill:#FFFFFF;}
</style>
<path id="path" class="st0" d="M12.9,0H1.7C0.8,0,0,0.8,0,1.7v21.8c0,0.9,0.8,1.7,1.7,1.7c0,0,0,0,0,0h11.2c0.9,0,1.7-0.8,1.7-1.7v0
	V1.7C14.6,0.8,13.9,0,12.9,0C12.9,0,12.9,0,12.9,0z M5.5,1.2h3.6c0.1,0,0.2,0.1,0.2,0.2c0,0.1-0.1,0.2-0.2,0.2H5.5
	c-0.1,0-0.2-0.1-0.2-0.2C5.3,1.3,5.4,1.2,5.5,1.2L5.5,1.2z M7.3,24.3c-0.5,0-0.8-0.4-0.8-0.9s0.4-0.9,0.9-0.9c0.5,0,0.8,0.4,0.8,0.9
	C8.2,23.9,7.8,24.3,7.3,24.3C7.3,24.3,7.3,24.3,7.3,24.3L7.3,24.3z M13.4,22H1.2V2.7h12.2L13.4,22z"/>
</svg>
