<?xml version="1.0" encoding="utf-8"?>
<!-- Generator: Adobe Illustrator 20.1.0, SVG Export Plug-In . SVG Version: 6.00 Build 0)  -->
<svg version="1.1" id="Layer_1" xmlns="http://www.w3.org/2000/svg" xmlns:xlink="http://www.w3.org/1999/xlink" x="0px" y="0px"
	 width="94.3px" height="90px" viewBox="0 0 94.3 90" style="enable-background:new 0 0 94.3 90;" xml:space="preserve">
<style type="text/css">
	.st0{fill:#135495;}
</style>
<path id="radio" transform="translate(5965 5032.436)" class="st0" d="M-5879.8-5010.8h-9.2l-57.6-18.5c-0.4-2.1-2.5-3.5-4.6-3.1
	c-2.1,0.4-3.5,2.5-3.1,4.6c0.4,2.1,2.5,3.5,4.6,3.1c0.8-0.2,1.5-0.6,2.1-1.2l46.7,15h-55c-5,0-9.1,4.1-9.1,9.1v50.2
	c0,5,4.1,9.1,9.1,9.1h76.1c5,0,9.1-4.1,9.1-9.1v-50.2C-5870.7-5006.7-5874.8-5010.8-5879.8-5010.8z M-5874.4-4951.5
	c0,3-2.4,5.4-5.5,5.5h-76.1c-3,0-5.4-2.4-5.5-5.5v-50.2c0-3,2.4-5.4,5.5-5.5h76.1c3,0,5.4,2.4,5.5,5.5V-4951.5z M-5955.7-4999.6
	h74.5v17.9h-55.7v-10.8c0-0.8-0.7-1.5-1.5-1.5c-0.8,0-1.5,0.7-1.5,1.5v10.8h-15.7V-4999.6z M-5949.4-4973v19.5
	c0,1.5-1.2,2.7-2.7,2.7s-2.7-1.2-2.7-2.7v-19.5c0-1.5,1.2-2.7,2.7-2.7S-5949.4-4974.5-5949.4-4973z M-5939.5-4973v19.5
	c0,1.5-1.2,2.7-2.7,2.7s-2.7-1.2-2.7-2.7v-19.5c0-1.5,1.2-2.7,2.7-2.7S-5939.5-4974.5-5939.5-4973z M-5929.7-4973v19.5
	c0,1.5-1.2,2.7-2.7,2.7c-1.5,0-2.7-1.2-2.7-2.7v-19.5c0-1.5,1.2-2.7,2.7-2.7C-5930.9-4975.7-5929.7-4974.5-5929.7-4973z
	 M-5919.8-4973v19.5c0,1.5-1.2,2.7-2.7,2.7c-1.5,0-2.7-1.2-2.7-2.7v-19.5c0-1.5,1.2-2.7,2.7-2.7
	C-5921-4975.7-5919.8-4974.5-5919.8-4973z M-5910-4973v19.5c0,1.5-1.2,2.7-2.7,2.7c-1.5,0-2.7-1.2-2.7-2.7v-19.5
	c0-1.5,1.2-2.7,2.7-2.7C-5911.2-4975.7-5910-4974.5-5910-4973z M-5900.1-4973v19.5c0,1.5-1.2,2.7-2.7,2.7c-1.5,0-2.7-1.2-2.7-2.7
	v-19.5c0-1.5,1.2-2.7,2.7-2.7C-5901.3-4975.7-5900.1-4974.5-5900.1-4973z M-5881.2-4969.9c0,3.2-2.6,5.8-5.8,5.8s-5.8-2.6-5.8-5.8
	s2.6-5.8,5.8-5.8C-5883.8-4975.7-5881.2-4973.1-5881.2-4969.9C-5881.2-4969.9-5881.2-4969.9-5881.2-4969.9L-5881.2-4969.9z
	 M-5882.2-4955.6c0,2.7-2.2,4.9-4.9,4.9s-4.9-2.2-4.9-4.9s2.2-4.9,4.9-4.9S-5882.2-4958.3-5882.2-4955.6
	C-5882.2-4955.6-5882.2-4955.6-5882.2-4955.6z"/>
</svg>
