<?xml version="1.0" encoding="utf-8"?>
<!-- Generator: Adobe Illustrator 20.1.0, SVG Export Plug-In . SVG Version: 6.00 Build 0)  -->
<svg version="1.1" id="Layer_1" xmlns="http://www.w3.org/2000/svg" xmlns:xlink="http://www.w3.org/1999/xlink" x="0px" y="0px"
	 width="101px" height="90.3px" viewBox="0 0 101 90.3" style="enable-background:new 0 0 101 90.3;" xml:space="preserve">
<style type="text/css">
	.st0{fill:#135495;}
</style>
<path id="server" transform="translate(7826.9 5175.672)" class="st0" d="M-7748.7-5161.5h-28.7c-1.4,0-2.5,1.1-2.5,2.5
	c0,1.4,1.1,2.5,2.5,2.5h28.7c1.4,0,2.5-1.1,2.5-2.5C-7746.2-5160.3-7747.3-5161.5-7748.7-5161.5z M-7800.8-5162.2
	c1.8,0,3.3,1.5,3.3,3.3s-1.5,3.3-3.3,3.3s-3.3-1.5-3.3-3.3S-7802.6-5162.2-7800.8-5162.2z M-7748.7-5133h-28.7
	c-1.4,0-2.5,1.1-2.5,2.5c0,1.4,1.1,2.5,2.5,2.5h28.7c1.4,0,2.5-1.1,2.5-2.5C-7746.2-5131.9-7747.3-5133-7748.7-5133z
	 M-7800.8-5133.8c1.8,0,3.3,1.5,3.3,3.3s-1.5,3.3-3.3,3.3s-3.3-1.5-3.3-3.3S-7802.6-5133.8-7800.8-5133.8z M-7725.9-5100v-4.2
	c0-4.9-2.4-9.4-6.4-12.1c4-2.7,6.4-7.3,6.4-12.1v-4.2c0-4.9-2.4-9.4-6.4-12.1c4-2.7,6.4-7.3,6.4-12.1v-4.2c0-8.1-6.6-14.6-14.7-14.6
	h-71.7c-8.1,0-14.6,6.6-14.7,14.6v4.2c0,4.9,2.4,9.4,6.4,12.1c-4,2.7-6.4,7.3-6.4,12.1v4.2c0,4.9,2.4,9.4,6.4,12.1
	c-4,2.7-6.4,7.3-6.4,12.1v4.2c0,8.1,6.6,14.7,14.7,14.7h71.7C-7732.5-5085.4-7725.9-5091.9-7725.9-5100z M-7821.8-5156.8v-4.2
	c0-5.3,4.3-9.6,9.6-9.6h71.7c5.3,0,9.6,4.3,9.6,9.6v4.2c0,5.3-4.3,9.6-9.6,9.6h-71.7C-7817.5-5147.3-7821.8-5151.5-7821.8-5156.8z
	 M-7821.8-5128.4v-4.2c0-5.3,4.3-9.6,9.6-9.6h71.7c5.3,0,9.6,4.3,9.6,9.6v4.2c0,5.3-4.3,9.6-9.6,9.6h-71.7
	C-7817.5-5118.8-7821.8-5123.1-7821.8-5128.4z M-7821.8-5100v-4.2c0-5.3,4.3-9.6,9.6-9.6h71.7c5.3,0,9.6,4.3,9.6,9.6v4.2
	c0,5.3-4.3,9.6-9.6,9.6h-71.7C-7817.5-5090.4-7821.8-5094.7-7821.8-5100L-7821.8-5100z M-7748.7-5104.6h-28.7
	c-1.4,0-2.5,1.1-2.5,2.5c0,1.4,1.1,2.5,2.5,2.5h28.7c1.4,0,2.5-1.1,2.5-2.5C-7746.2-5103.5-7747.3-5104.6-7748.7-5104.6z
	 M-7800.8-5105.3c1.8,0,3.3,1.5,3.3,3.3s-1.5,3.3-3.3,3.3s-3.3-1.5-3.3-3.3S-7802.6-5105.3-7800.8-5105.3z"/>
</svg>
