<?xml version="1.0" encoding="iso-8859-1"?>
<!-- Generator: Adobe Illustrator 19.0.0, SVG Export Plug-In . SVG Version: 6.00 Build 0)  -->
<svg version="1.1" id="Capa_1" xmlns="http://www.w3.org/2000/svg" xmlns:xlink="http://www.w3.org/1999/xlink" x="0px" y="0px"
	 viewBox="0 0 460 460" style="enable-background:new 0 0 460 460;" xml:space="preserve">
<g id="XMLID_107_">
	<rect id="XMLID_108_" x="15" width="30.003" height="460"/>
	<path id="XMLID_109_" d="M324.987,185v15h-30.003v-45c0-41.25-32.147-85.288-71.438-97.861L75.006,9.604v440.781l148.539-47.527
		c39.292-12.572,71.439-56.608,71.439-97.858v-45h30.003v15H445v-90H324.987z"/>
	<path id="XMLID_110_" d="M354.99,360.333c0,11.102,6.036,20.789,15.002,25.977V460h30.003v-73.69
		c8.965-5.188,15.002-14.875,15.002-25.977c0-16.569-13.433-30-30.003-30S354.99,343.764,354.99,360.333z"/>
	<rect id="XMLID_138_" x="324.987" y="300.333" width="120.013" height="30"/>
</g>
<g>
</g>
<g>
</g>
<g>
</g>
<g>
</g>
<g>
</g>
<g>
</g>
<g>
</g>
<g>
</g>
<g>
</g>
<g>
</g>
<g>
</g>
<g>
</g>
<g>
</g>
<g>
</g>
<g>
</g>
</svg>
