<?xml version="1.0" encoding="utf-8"?>
<!-- Generator: Adobe Illustrator 20.1.0, SVG Export Plug-In . SVG Version: 6.00 Build 0)  -->
<svg version="1.1" id="Layer_1" xmlns="http://www.w3.org/2000/svg" xmlns:xlink="http://www.w3.org/1999/xlink" x="0px" y="0px"
	 width="87.2px" height="90px" viewBox="0 0 87.2 90" style="enable-background:new 0 0 87.2 90;" xml:space="preserve">
<style type="text/css">
	.st0{fill:#135495;}
</style>
<path id="technology" transform="translate(6310.993 5030.814)" class="st0" d="M-6269.6-4996.3l-14.7-15l6.6-6.7
	c1.6,0.3,3.2-0.3,4.4-1.4c2-2,2-5.2,0-7.3c-1.9-2-5.1-2-7-0.1c0,0-0.1,0.1-0.1,0.1c-1.1,1.2-1.7,2.8-1.4,4.4l-6.6,6.7l-14.6-15
	c-0.2-0.2-0.5-0.3-0.8-0.3c-0.3,0-0.6,0.2-0.8,0.4c-6.1,7.3-7.7,17.4-4.1,26.3c-3.2,3.9-2.9,9.5,0.6,13.1c3.4,3.5,9,3.8,12.8,0.6
	c8.7,3.7,18.7,2.1,25.7-4.1C-6269.2-4995.1-6269.1-4995.8-6269.6-4996.3C-6269.6-4996.3-6269.6-4996.3-6269.6-4996.3L-6269.6-4996.3
	z M-6230.6-4983.4h-32.2c-3.8,0-6.8,3.1-6.8,6.9v20.8c0,3.8,3,6.9,6.8,6.9h8.7l-1.5,5.1c-0.2,0.7-0.1,1.4,0.3,2
	c0.4,0.6,1.1,0.9,1.8,0.9h13.7c0.7,0,1.4-0.3,1.8-0.9c0.4-0.6,0.5-1.3,0.3-2l-1.5-5.1h8.7c3.8,0,6.8-3.1,6.8-6.9v-20.8
	C-6223.8-4980.3-6226.8-4983.4-6230.6-4983.4z M-6229.7-4955.7c0,0.5-0.4,0.9-0.9,0.9c0,0,0,0,0,0h-32.2c-0.5,0-0.9-0.4-0.9-0.9
	v-20.8c0-0.5,0.4-0.9,0.9-0.9h32.2c0.5,0,0.9,0.4,0.9,0.9V-4955.7z M-6261.9-5020.1h26.2v26.7c0,1.6,1.3,3,2.9,3s3-1.3,3-2.9
	c0,0,0,0,0,0v-29.7c0-1.6-1.3-3-2.9-3c0,0,0,0,0,0h-29.1c-1.7,0-3,1.4-3,3.1C-6264.8-5021.4-6263.5-5020.1-6261.9-5020.1z
	 M-6275.4-4952.2h-26.2v-26.7c0-1.6-1.3-3-3-3c-1.6,0-2.9,1.3-2.9,3v29.7c0,1.6,1.3,3,2.9,3c0,0,0,0,0,0h29.1c1.7,0,3-1.4,2.9-3.1
	C-6272.5-4950.9-6273.8-4952.2-6275.4-4952.2z"/>
</svg>
