<?xml version="1.0" encoding="iso-8859-1"?>
<!-- Generator: Adobe Illustrator 18.1.1, SVG Export Plug-In . SVG Version: 6.00 Build 0)  -->
<svg version="1.1" id="Capa_1" xmlns="http://www.w3.org/2000/svg" xmlns:xlink="http://www.w3.org/1999/xlink" x="0px" y="0px"
	 viewBox="0 0 612.003 612.003" style="enable-background:new 0 0 612.003 612.003;" xml:space="preserve">
<g>
	<path d="M593.739,0h-390.61c-8.47,0-15.339,6.866-15.339,15.339v323.756H51.132H18.264c-8.47,0-15.339,6.866-15.339,15.339
		s6.869,15.339,15.339,15.339h17.529v226.888c0,8.473,6.869,15.339,15.339,15.339h208.739c8.47,0,15.339-6.866,15.339-15.339
		V136.069h246.448v460.595c0,8.473,6.869,15.339,15.339,15.339h56.742c8.47,0,15.339-6.866,15.339-15.339V15.339
		C609.078,6.866,602.209,0,593.739,0z M283.113,84.321h-16.474c-8.47,0-15.339-6.866-15.339-15.339s6.869-15.339,15.339-15.339
		h16.474c8.47,0,15.339,6.866,15.339,15.339C298.452,77.456,291.583,84.321,283.113,84.321z M344.892,84.321h-16.474
		c-8.47,0-15.339-6.866-15.339-15.339s6.869-15.339,15.339-15.339h16.474c8.47,0,15.339,6.866,15.339,15.339
		C360.231,77.456,353.362,84.321,344.892,84.321z M406.671,84.321h-16.474c-8.47,0-15.339-6.866-15.339-15.339
		s6.869-15.339,15.339-15.339h16.474c8.47,0,15.339,6.866,15.339,15.339C422.01,77.456,415.141,84.321,406.671,84.321z
		 M468.45,84.321h-16.474c-8.47,0-15.339-6.866-15.339-15.339s6.869-15.339,15.339-15.339h16.474c8.47,0,15.339,6.866,15.339,15.339
		C483.789,77.456,476.921,84.321,468.45,84.321z M530.23,84.321h-16.474c-8.47,0-15.339-6.866-15.339-15.339
		s6.869-15.339,15.339-15.339h16.474c8.47,0,15.339,6.866,15.339,15.339C545.569,77.456,538.703,84.321,530.23,84.321z"/>
</g>
<g>
</g>
<g>
</g>
<g>
</g>
<g>
</g>
<g>
</g>
<g>
</g>
<g>
</g>
<g>
</g>
<g>
</g>
<g>
</g>
<g>
</g>
<g>
</g>
<g>
</g>
<g>
</g>
<g>
</g>
</svg>
