<?xml version="1.0" encoding="utf-8"?>
<!-- Generator: Adobe Illustrator 20.1.0, SVG Export Plug-In . SVG Version: 6.00 Build 0)  -->
<svg version="1.1" id="Layer_1" xmlns="http://www.w3.org/2000/svg" xmlns:xlink="http://www.w3.org/1999/xlink" x="0px" y="0px"
	 width="152.5px" height="90px" viewBox="0 0 152.5 90" style="enable-background:new 0 0 152.5 90;" xml:space="preserve">
<style type="text/css">
	.st0{fill:#135495;}
</style>
<path id="time" transform="translate(6644 5017.452)" class="st0" d="M-6498.4-5017.5H-6637c-3.8,0-6.9,3.1-7,6.9c0,0,0,0,0,0v76.1
	c0,3.8,3.1,7,6.9,7c0,0,0,0,0,0h138.6c3.8,0,7-3.1,7-7c0,0,0,0,0,0v-76.1C-6491.5-5014.3-6494.6-5017.5-6498.4-5017.5z
	 M-6502.4-4941.4h-130v-62.2h130V-4941.4z M-6619.4-4955.1h13.1c2.4,0,4.4-1.9,4.4-4.3c0,0,0-0.1,0-0.1v-25.7c0-2.5-2-4.4-4.4-4.5
	h-13.1c-2.5,0-4.4,2-4.5,4.5v25.7c0,2.4,1.9,4.4,4.3,4.5C-6619.5-4955.1-6619.4-4955.1-6619.4-4955.1z M-6619.4-4985.3h13.1v25.7
	h-13.1V-4985.3z M-6596-4983.1c1.2,0,2.2-1,2.2-2.2h13.1v6.1c0,2,0.1,1.9-1.4,3.2l-6.1,5.3c-0.9,0.5-1.4,1.6-1.2,2.6v10.7
	c-0.2,1.1,0.5,2,1.6,2.2c0.2,0,0.4,0,0.6,0c1.1,0.2,2.1-0.5,2.2-1.6c0-0.2,0-0.4,0-0.6v-8.6c0-1.6,0.1-1.6,1.2-2.7l6.2-5.4
	c1.3-1.1,1.2-1.2,1.2-2.8v-12.9h-19.8c-1.2,0-2.2,1-2.2,2.2v2.2C-6598.3-4984.1-6597.3-4983.1-6596-4983.1z M-6570.6-4957.9h1.8
	c0.6,0,1,0,1.3-0.5c0.2-0.3,0.3-0.7,0.3-1.1v-1.4c0.1-0.4,0-0.8-0.3-1.2c-0.4-0.5-0.8-0.5-1.3-0.5h-1.8c-0.6,0-1,0-1.3,0.5
	c-0.2,0.3-0.3,0.8-0.3,1.2v1.4c-0.1,0.4,0,0.8,0.3,1.1C-6571.6-4957.9-6571.2-4957.9-6570.6-4957.9z M-6570.6-4976.7h1.8
	c0.6,0,1,0,1.3-0.5c0.2-0.3,0.3-0.7,0.3-1.2v-1.4c0.1-0.4,0-0.8-0.3-1.1c-0.4-0.5-0.8-0.5-1.3-0.5h-1.8c-0.6,0-1,0-1.3,0.5
	c-0.2,0.3-0.3,0.7-0.3,1.1v1.4c-0.1,0.4,0,0.8,0.3,1.2C-6571.6-4976.7-6571.2-4976.7-6570.6-4976.7z M-6556.8-4955.1h13.1
	c2.4,0,4.4-1.9,4.4-4.3c0-0.1,0-0.1,0-0.2v-25.7c0-2.5-2-4.4-4.4-4.5h-13.1c-2.5,0-4.5,2-4.5,4.5v25.7c0,2.4,1.9,4.4,4.3,4.5
	C-6556.9-4955.1-6556.8-4955.1-6556.8-4955.1z M-6556.8-4985.3h13.1v25.7h-13.1V-4985.3z M-6529.2-4955.1h13.1
	c2.4,0,4.4-1.9,4.5-4.3c0,0,0-0.1,0-0.1v-25.7c0-2.5-2-4.4-4.5-4.5h-13.1c-2.5,0-4.4,2-4.5,4.5v25.7c0,2.4,1.9,4.4,4.3,4.5
	C-6529.3-4955.1-6529.3-4955.1-6529.2-4955.1z M-6529.2-4985.3h13.1v25.7h-13.1V-4985.3z"/>
</svg>
