<?xml version="1.0" encoding="iso-8859-1"?>
<!-- Generator: Adobe Illustrator 18.0.0, SVG Export Plug-In . SVG Version: 6.00 Build 0)  -->
<!DOCTYPE svg PUBLIC "-//W3C//DTD SVG 1.1//EN" "http://www.w3.org/Graphics/SVG/1.1/DTD/svg11.dtd">
<svg version="1.1" id="Capa_1" xmlns="http://www.w3.org/2000/svg" xmlns:xlink="http://www.w3.org/1999/xlink" x="0px" y="0px"
	 viewBox="0 0 60 60" style="enable-background:new 0 0 60 60;" xml:space="preserve">
<path d="M51,7.5h8c0.552,0,1-0.447,1-1s-0.448-1-1-1h-8c-1.858,0-3.411,1.28-3.858,3H45.09c0.478-2.833,2.942-5,5.91-5h7
	c0.552,0,1-0.447,1-1s-0.448-1-1-1h-7c-4.072,0-7.436,3.06-7.931,7H0v50h60v-50H49.278C49.625,7.905,50.263,7.5,51,7.5z M11,19.241
	c0.918-0.902,1.923-1.714,3-2.427v33.372c-1.077-0.713-2.082-1.525-3-2.427V19.241z M16,15.664c0.961-0.487,1.958-0.913,3-1.242
	v38.155c-1.042-0.328-2.039-0.755-3-1.242V15.664z M21,13.903c0.974-0.198,1.98-0.302,3-0.352v39.898
	c-1.02-0.051-2.026-0.154-3-0.352V13.903z M26,13.551c1.02,0.051,2.026,0.154,3,0.352v39.194c-0.974,0.198-1.98,0.302-3,0.352
	V13.551z M31,14.422c1.042,0.328,2.039,0.755,3,1.242v35.672c-0.961,0.487-1.958,0.913-3,1.242V14.422z M36,16.814
	c1.077,0.713,2.082,1.525,3,2.427v28.518c-0.918,0.902-1.923,1.714-3,2.427V16.814z M41,21.551c2.5,3.339,4,7.467,4,11.949
	s-1.5,8.611-4,11.949V21.551z M9,21.551v23.898C6.5,42.111,5,37.982,5,33.5S6.5,24.889,9,21.551z M56,54.5H42v-6h14V54.5z"/>
<g>
</g>
<g>
</g>
<g>
</g>
<g>
</g>
<g>
</g>
<g>
</g>
<g>
</g>
<g>
</g>
<g>
</g>
<g>
</g>
<g>
</g>
<g>
</g>
<g>
</g>
<g>
</g>
<g>
</g>
</svg>
