<?xml version="1.0" encoding="utf-8"?>
<!-- Generator: Adobe Illustrator 20.1.0, SVG Export Plug-In . SVG Version: 6.00 Build 0)  -->
<svg version="1.1" id="Layer_1" xmlns="http://www.w3.org/2000/svg" xmlns:xlink="http://www.w3.org/1999/xlink" x="0px" y="0px"
	 width="88.3px" height="89.8px" viewBox="0 0 88.3 89.8" style="enable-background:new 0 0 88.3 89.8;" xml:space="preserve">
<style type="text/css">
	.st0{fill:#135495;}
</style>
<path id="wifi" class="st0" d="M88.3,80.1V61.9c0-5.4-4.4-9.7-9.7-9.7H46.4V26.7c4.7-1.2,7.6-6.1,6.3-10.8s-6.1-7.6-10.8-6.3
	s-7.6,6.1-6.3,10.8c0.8,3.1,3.2,5.5,6.3,6.3v25.5H9.7c-5.4,0-9.7,4.4-9.7,9.7v18.2c0,5.4,4.4,9.7,9.7,9.7h68.9
	C84,89.9,88.3,85.5,88.3,80.1z M39.8,18.1c0-2.4,2-4.4,4.4-4.4s4.4,2,4.4,4.4s-2,4.4-4.4,4.4l0,0C41.8,22.5,39.8,20.6,39.8,18.1z
	 M83.8,80.1c0,2.9-2.4,5.2-5.3,5.3H9.6c-2.9,0-5.2-2.4-5.3-5.3V61.9c0-2.9,2.4-5.2,5.3-5.3h68.9c2.9,0,5.2,2.4,5.3,5.3L83.8,80.1
	L83.8,80.1z M68.8,68.8H43.5c-1.2,0.1-2.2,1.1-2.2,2.3c0,1.2,1,2.1,2.2,2.2h25.3c1.2,0.1,2.3-0.9,2.3-2.2
	C71.2,69.9,70.2,68.8,68.8,68.8C69,68.8,68.9,68.8,68.8,68.8z M22.9,68.2c1.6,0,2.9,1.3,2.9,2.9S24.5,74,22.9,74S20,72.7,20,71.1
	C20,69.5,21.3,68.2,22.9,68.2z M74.3,35.8c0.4,0.3,0.8,0.4,1.3,0.4c0.7,0,1.4-0.4,1.8-1c7.3-10.3,7.3-24,0-34.3
	c-0.7-1-2.1-1.2-3.1-0.5s-1.2,2.1-0.5,3.1l0,0c6.2,8.7,6.2,20.4,0,29.1C73,33.7,73.3,35.1,74.3,35.8z M61.6,26.2
	c0.4,0.3,0.8,0.4,1.3,0.4c0.7,0,1.4-0.4,1.8-1c3.2-4.5,3.2-10.5,0-15c-0.7-1-2.1-1.2-3.1-0.5s-1.2,2.1-0.5,3.1l0,0
	c2.1,2.9,2.1,6.9,0,9.8C60.4,24,60.6,25.4,61.6,26.2L61.6,26.2z M14.1,0.5C13.1-0.2,11.7,0,11,1l0,0c-7.2,10.3-7.2,24,0,34.3
	c0.4,0.6,1.1,1,1.8,1c0.5,0,0.9-0.1,1.3-0.4c1-0.7,1.2-2.1,0.5-3.1c-6.2-8.7-6.2-20.4,0-29.1C15.3,2.6,15.1,1.2,14.1,0.5L14.1,0.5z
	 M26.7,10.1c-1-0.7-2.4-0.5-3.1,0.5c-3.2,4.5-3.2,10.5,0,15c0.4,0.6,1.1,1,1.8,1c0.5,0,0.9-0.1,1.3-0.4c1-0.7,1.2-2.1,0.5-3.1
	c-2.1-2.9-2.1-6.9,0-9.8C28,12.2,27.8,10.9,26.7,10.1C26.8,10.1,26.8,10.1,26.7,10.1z"/>
</svg>
