<svg xmlns="http://www.w3.org/2000/svg" viewBox="-8406.729 654 136.93 99.156">
  <defs>
    <style>
      .cls-1 {
        fill: #afb9d2;
      }

      .cls-2 {
        fill: #e4eaf6;
      }

      .cls-3 {
        fill: #d7deed;
      }

      .cls-4 {
        fill: #464655;
      }

      .cls-5 {
        fill: #707487;
      }

      .cls-6 {
        fill: #959cb3;
      }
    </style>
  </defs>
  <g id="technology-1" transform="translate(-8406.729 583.379)">
    <g transform="translate(4.722 162.694)">
      <path class="cls-1" d="M466.117,421.979h-4.722a2.361,2.361,0,0,1-2.361-2.361V414.9h9.443v4.722A2.361,2.361,0,0,1,466.117,421.979Z" transform="translate(-340.992 -414.896)"/>
      <path class="cls-1" d="M24.738,421.979H20.016a2.361,2.361,0,0,1-2.361-2.361V414.9H27.1v4.722A2.361,2.361,0,0,1,24.738,421.979Z" transform="translate(-17.655 -414.896)"/>
    </g>
    <path class="cls-2" d="M132.208,165.055H4.722A4.721,4.721,0,0,1,0,160.333V75.343a4.722,4.722,0,0,1,4.722-4.722H132.208a4.722,4.722,0,0,1,4.722,4.722v84.991A4.722,4.722,0,0,1,132.208,165.055Z"/>
    <path class="cls-3" d="M95.563,173.267H24.738a7.083,7.083,0,0,1-7.083-7.083V95.359a7.083,7.083,0,0,1,7.083-7.083H95.563a7.083,7.083,0,0,1,7.083,7.083v70.826A7.083,7.083,0,0,1,95.563,173.267Z" transform="translate(-12.933 -12.933)"/>
    <circle class="cls-4" cx="37.773" cy="37.773" r="37.773" transform="translate(9.444 80.064)"/>
    <g transform="translate(23.114 93.958)">
      <path class="cls-5" d="M176.237,174.935,190.178,159a3.283,3.283,0,0,1,4.793-.16l.006.006a9,9,0,0,1-.437,13.132L183.2,181.9" transform="translate(-152.218 -157.881)"/>
      <path class="cls-5" d="M116.649,253.618l-13.941,15.933a3.283,3.283,0,0,1-4.793.16l-.006-.006a9,9,0,0,1,.437-13.132l11.337-9.92" transform="translate(-92.907 -222.912)"/>
      <path class="cls-5" d="M182.163,247.692,198.1,261.633a3.283,3.283,0,0,1,.16,4.793l-.006.006a9,9,0,0,1-13.132-.437l-9.92-11.337" transform="translate(-151.457 -223.673)"/>
      <path class="cls-5" d="M103.479,188.1,87.546,174.163a3.283,3.283,0,0,1-.16-4.793l.006-.006a9,9,0,0,1,13.132.437l9.92,11.337" transform="translate(-86.425 -164.363)"/>
    </g>
    <g transform="translate(9.443 80.064)">
      <circle class="cls-6" cx="9.443" cy="9.443" r="9.443" transform="translate(28.33 28.33)"/>
      <circle class="cls-6" cx="2.361" cy="2.361" r="2.361"/>
      <circle class="cls-6" cx="2.361" cy="2.361" r="2.361" transform="translate(70.826)"/>
      <circle class="cls-6" cx="2.361" cy="2.361" r="2.361" transform="translate(0 70.825)"/>
      <circle class="cls-6" cx="2.361" cy="2.361" r="2.361" transform="translate(70.826 70.825)"/>
    </g>
  </g>
</svg>
