<svg xmlns="http://www.w3.org/2000/svg" viewBox="1069 2099 106.016 122.585"><defs><style>.a{fill:#e9a868;}.b{fill:#ce2e2e;}.c{fill:#e84a4a;}.d{fill:#f2d057;}</style></defs><g transform="translate(1038.25 2099)"><path class="a" d="M198.75,228.754v-4.041A56.776,56.776,0,0,0,255.462,168H259.5a60.755,60.755,0,0,1-60.754,60.754Z" transform="translate(-122.738 -122.738)"/><path class="b" d="M76.012,0A45.262,45.262,0,1,1,30.75,45.262,45.263,45.263,0,0,1,76.012,0Z"/><path class="c" d="M97.93,30A37.18,37.18,0,1,1,60.75,67.18,37.181,37.181,0,0,1,97.93,30Z" transform="translate(-21.917 -21.917)"/><path class="d" d="M184.138,148a5.388,5.388,0,1,1-5.388,5.388A5.394,5.394,0,0,1,184.138,148Z" transform="translate(-108.126 -108.126)"/><circle class="d" cx="7.746" cy="7.746" r="7.746" transform="translate(121.274 37.516)"/><path class="d" d="M156.792,357.776l-.008,26.194H107.75V357.776Z" transform="translate(-56.255 -261.385)"/><path class="a" d="M137.75,387.776V397.8h32.872l0-10.029Z" transform="translate(-78.172 -283.303)"/></g></svg>