<svg xmlns="http://www.w3.org/2000/svg" viewBox="805 2101 130.869 119.389"><defs><style>.a{fill:#8697cb;}.b{fill:#556080;}.c{fill:#bdc3c7;}.d{fill:#ecf0f1;}.e{fill:#363e51;}.f{fill:#90bae1;}.g{fill:none;stroke:#556080;stroke-width:2px;}</style></defs><g transform="translate(805 2098)"><rect class="a" width="9.184" height="13.776" transform="matrix(0.816, -0.578, 0.578, 0.816, 0.254, 86.345)"/><path class="b" d="M17.8,40.584,14.232,37.95l-.643.08c-2.684.333-5.375-1.364-7.565-3.846l-3.8,2.7L15.491,55.615l10.929-4.7C22.716,48.969,19.492,44.778,17.8,40.584Z" transform="translate(2.877 40.414)"/><path class="b" d="M41.191,44.912a13.7,13.7,0,0,1,0,13.776H63.712V44.912Z" transform="translate(53.381 54.316)"/><path class="b" d="M40.722,60.987A13.786,13.786,0,0,1,49.607,54c-5.4-4.932-5.857-13.711-7.152-21.084L22.933,45c6.385,4.714,14.616,9.287,15.989,17.1h0Z" transform="translate(29.72 38.764)"/><path class="c" d="M101.63,30.046,19.8,80.2C14.83,83.245,5.928,77.77,2.881,72.8L0,68.1,99.835,6.912l2.881,4.7C105.763,16.585,106.6,27,101.63,30.046Z" transform="translate(0 5.07)"/><path class="d" d="M98.453,15.642l-1.029-1.678a2.3,2.3,0,0,0-4.225.84c-.239,1.5-.824,3.474-2.275,4.362L9.944,68.8a2.3,2.3,0,0,0-.636,3.338c3.4,4.523,10.226,9.1,16.7,9.1h0a10.583,10.583,0,0,0,5.618-1.492L95.852,40.381c3.428-2.1,5.437-6.284,5.657-11.781A24.207,24.207,0,0,0,98.453,15.642Z" transform="translate(11.466 12.792)"/><path class="e" d="M64.776,73.257H55.794A4.794,4.794,0,0,1,51,68.463V45.706a4.794,4.794,0,0,1,4.794-4.794h8.982Z" transform="translate(66.093 49.132)"/><path class="f" d="M45.072,40.912A16.072,16.072,0,1,0,61.143,56.984,16.089,16.089,0,0,0,45.072,40.912Zm0,20.664a4.592,4.592,0,1,1,4.592-4.592A4.6,4.6,0,0,1,45.072,61.576Z" transform="translate(37.582 49.132)"/><path class="g" d="M45,42.031H63.368V3" transform="translate(58.318)"/></g></svg>