<svg xmlns="http://www.w3.org/2000/svg" viewBox="809 1207.385 85.575 93.03"><defs><style>.a{fill:#e84a4a;}.b,.h{fill:#2d4151;}.c{fill:#f2d057;}.d{fill:#f75f5f;}.e{fill:#ce2e2e;}.f{fill:#695a69;}.g{fill:#f9c032;}.h{opacity:0.34;}.i{fill:#6eb1e2;}.j{fill:#fff;}</style></defs><g transform="translate(793.08 1207.385)"><path class="a" d="M204.428,2.5l-7.648,2.5V0Z" transform="translate(-138.514)"/><rect class="b" width="0.937" height="11.239" transform="translate(58.266)"/><path class="c" d="M100.638,72.412a147.342,147.342,0,0,0,.742,51.023H15.92a147.346,147.346,0,0,0,.719-51.164c-.059-.375-.122-.752-.185-1.126-.157-.939-.328-1.873-.506-2.81l-.028-.157s.835-.464,1.308-.7A191.073,191.073,0,0,0,58.65,39.7a191.048,191.048,0,0,0,41,27.571c.612.305,1.729.908,1.729.908l-.028.157c-.178.937-.349,1.871-.506,2.81C100.774,71.566,100.706,71.99,100.638,72.412Z" transform="translate(0 -30.405)"/><g transform="translate(15.92 37.774)"><path class="a" d="M20.38,161.33h.1c.007.052.016.105.026.157.157.937.311,1.871.45,2.81.059.375.115.752.166,1.126a164.684,164.684,0,0,1-.642,51.164H15.92a147.346,147.346,0,0,0,.719-51.164c-.059-.375-.122-.752-.185-1.126-.157-.939-.328-1.873-.506-2.81" transform="translate(-15.92 -161.33)"/><path class="a" d="M358.477,161.33h-.115l-.028.157c-.178.937-.349,1.871-.506,2.81-.073.421-.14.845-.208,1.267a147.343,147.343,0,0,0,.742,51.023H353.8a164.717,164.717,0,0,1-.663-51.023c.061-.421.122-.845.185-1.267.14-.939.293-1.873.452-2.81.009-.052.016-.105.026-.157h.1" transform="translate(-272.902 -161.33)"/></g><g transform="translate(32.829 37.774)"><path class="a" d="M100.086,216.587H88.14a242.481,242.481,0,0,0,.323-52.29q-.151-1.486-.323-2.967h11.946q.091,1.482.173,2.967A450.891,450.891,0,0,1,100.086,216.587Z" transform="translate(-88.14 -161.33)"/><path class="a" d="M266.853,216.587H254.907a450.891,450.891,0,0,1-.173-52.29q.081-1.486.173-2.967h11.946q-.172,1.482-.323,2.967A242.482,242.482,0,0,0,266.853,216.587Z" transform="translate(-215.211 -161.33)"/></g><path class="d" d="M128.19,68.174c-5.178-7.756-9.833-17.444-13.9-28.479-4.062,11.035-8.717,20.724-13.9,28.479H88.576a132.213,132.213,0,0,0,25.719-28.479,132.207,132.207,0,0,0,25.719,28.479Z" transform="translate(-55.644 -30.401)"/><path class="e" d="M126.42,270.963V234.423a2.093,2.093,0,0,1,2.093-2.093h29.529a2.093,2.093,0,0,1,2.093,2.093v36.539Z" transform="translate(-84.628 -177.933)"/><rect class="f" width="30.438" height="36.994" transform="translate(43.431 56.036)"/><path class="g" d="M211.977,239.33v32.623a5.629,5.629,0,0,1-1.99-.393c-5.287-2.035-9.752-11.616-12.058-20.045-.494-1.805-.887-3.557-1.171-5.172a29.944,29.944,0,0,1-.508-4.982,16.126,16.126,0,0,1,.129-2.03Z" transform="translate(-138.108 -183.294)"/><path class="g" d="M149.147,241.36a29.945,29.945,0,0,1-.508,4.982c-1.6,9.152-6.811,22.747-13.229,25.217a5.628,5.628,0,0,1-1.99.393V239.33h15.6A16.126,16.126,0,0,1,149.147,241.36Z" transform="translate(-89.989 -183.294)"/><path class="h" d="M101.444,162c-.178.937-.349,1.871-.506,2.81-.073.421-.14.845-.208,1.267a4.277,4.277,0,0,1-7.736-2.517,4.277,4.277,0,1,1-8.553,0,4.278,4.278,0,0,1-8.555,0,4.277,4.277,0,1,1-8.553,0,4.278,4.278,0,0,1-8.555,0,4.277,4.277,0,1,1-8.553,0,4.277,4.277,0,1,1-8.553,0,4.277,4.277,0,1,1-8.553,0,4.277,4.277,0,1,1-8.553,0,4.278,4.278,0,0,1-7.834,2.376c-.059-.375-.122-.752-.185-1.126-.157-.939-.328-1.873-.506-2.81Z" transform="translate(-0.092 -124.07)"/><g transform="translate(15.92 37.774)"><path class="i" d="M24.473,161.33a4.277,4.277,0,1,1-8.553,0" transform="translate(-15.92 -161.33)"/><path class="j" d="M61,161.33a4.277,4.277,0,1,1-8.553,0" transform="translate(-43.897 -161.33)"/><path class="i" d="M97.534,161.33a4.277,4.277,0,1,1-8.553,0" transform="translate(-71.875 -161.33)"/><path class="j" d="M134.064,161.33a4.277,4.277,0,1,1-8.553,0" transform="translate(-99.852 -161.33)"/><path class="i" d="M170.6,161.33a4.277,4.277,0,1,1-8.553,0" transform="translate(-127.829 -161.33)"/><path class="j" d="M207.128,161.33a4.278,4.278,0,1,1-8.556,0" transform="translate(-155.806 -161.33)"/><path class="i" d="M243.667,161.33a4.277,4.277,0,1,1-8.553,0" transform="translate(-183.792 -161.33)"/><path class="j" d="M280.2,161.33a4.277,4.277,0,1,1-8.553,0" transform="translate(-211.77 -161.33)"/><path class="i" d="M316.728,161.33a4.277,4.277,0,1,1-8.553,0" transform="translate(-239.747 -161.33)"/><path class="j" d="M344.706,161.33a4.277,4.277,0,1,0,8.553,0" transform="translate(-267.724 -161.33)"/></g><path class="h" d="M161.868,239.33H133.42v32.623a5.628,5.628,0,0,0,1.99-.393V243.544h13.615c-.085.868-.212,1.8-.386,2.8.283,1.616.677,3.367,1.171,5.172.494-1.805.887-3.557,1.171-5.172.124-.707.226-1.873.306-2.8h10.582v28.015a5.628,5.628,0,0,0,1.99.393V239.33Z" transform="translate(-89.989 -183.294)"/><path class="j" d="M148.049,195.512a202.13,202.13,0,0,1-44.36,0l.874-7.912a194.149,194.149,0,0,0,42.613,0Z" transform="translate(-67.219 -143.676)"/><g transform="translate(47.879 45.53)"><path class="i" d="M157.482,195.149a1.155,1.155,0,0,1,.107.7,1.833,1.833,0,0,1-.3.75,4.042,4.042,0,0,1-.937,1.048,2.3,2.3,0,0,1-1.629.429,3.117,3.117,0,0,1-1.272-.379l-.163.218a1.222,1.222,0,0,0-.111,1.217,1.77,1.77,0,0,0,1.549.862,2.865,2.865,0,0,0,1.669-.273,1.05,1.05,0,0,0,.391-.344l.012-.028.011-.009q.169-.247.336-.494a.311.311,0,0,1,.422-.092.292.292,0,0,1,.09.4l-.324.487a1.579,1.579,0,0,1-.557.549,2.649,2.649,0,0,1-.827.314,4.393,4.393,0,0,1-1.271.068,2.945,2.945,0,0,1-1.314-.4,2.038,2.038,0,0,1-.746-.806,1.8,1.8,0,0,1-.158-.933,1.727,1.727,0,0,1,.336-.861l.175-.225a1.71,1.71,0,0,1-.415-.551,1.393,1.393,0,0,1-.128-.755,1.507,1.507,0,0,1,1.228-1.324.293.293,0,0,1,.111.576.909.909,0,0,0-.747.812.974.974,0,0,0,.3.771q.3-.413.6-.828a6,6,0,0,1,1.021-1.135,1.99,1.99,0,0,1,1.374-.447A1.35,1.35,0,0,1,157.482,195.149Zm-3.075,1.231q-.3.421-.609.84a2.515,2.515,0,0,0,.973.272,2.112,2.112,0,0,0,2.021-1.22.881.881,0,0,0,.164-.864.777.777,0,0,0-.682-.367C155.553,194.99,155.011,195.539,154.407,196.38Z" transform="translate(-152.418 -194.457)"/><path class="i" d="M172.381,203.845q-.631.956-1.285,1.9a.29.29,0,0,0-.048.308.54.54,0,0,0,.45.229c.463.025.854-.4,1.093-.753q.169-.26.337-.52a.319.319,0,0,1,.42-.091.292.292,0,0,1,.1.4q-.166.261-.335.522a2.525,2.525,0,0,1-.677.72,1.469,1.469,0,0,1-.966.3,1.165,1.165,0,0,1-.971-.552.829.829,0,0,1,.087-.888q.658-.945,1.292-1.9a.315.315,0,0,1,.415-.087A.275.275,0,0,1,172.381,203.845Zm.675-1.078a.346.346,0,0,1-.361.325.341.341,0,0,1-.333-.354.336.336,0,0,1,.362-.324A.342.342,0,0,1,173.055,202.767Z" transform="translate(-166.192 -200.55)"/><path class="i" d="M181.961,203.389c-.052.105-.095.2.092.37q.407.353.819.7a.29.29,0,0,1,.056.369q-.458.741-.929,1.478a.34.34,0,0,0-.048.358.443.443,0,0,0,.377.163c.453.008.828-.424,1.055-.791q.16-.266.319-.531a.319.319,0,0,1,.416-.106.292.292,0,0,1,.112.4q-.158.267-.317.533a2.525,2.525,0,0,1-.651.743,1.464,1.464,0,0,1-.945.337,1.029,1.029,0,0,1-.909-.466.872.872,0,0,1,.066-.939q.41-.629.809-1.262-.293-.253-.582-.507-.595.945-1.212,1.884a.334.334,0,0,1-.271.135.47.47,0,0,1-.152-.045.291.291,0,0,1-.1-.4q.7-1.048,1.365-2.106a.8.8,0,0,1,.117-.608.3.3,0,0,1,.409-.1A.282.282,0,0,1,181.961,203.389Z" transform="translate(-173.485 -200.968)"/><path class="i" d="M198.771,204.172a1.016,1.016,0,0,1-.041,1.058.311.311,0,0,1-.41.117.29.29,0,0,1-.119-.395.481.481,0,0,0,.059-.477.415.415,0,0,0-.373-.147.808.808,0,0,0-.555.242,2.935,2.935,0,0,0-.514.694q-.313.536-.632,1.07a.7.7,0,0,0-.009.708,1.086,1.086,0,0,0,.978.4h.011a1.679,1.679,0,0,0,1.528-.95l.184-.335a.316.316,0,0,1,.412-.129.285.285,0,0,1,.135.393l-.193.346-.01.01a2.272,2.272,0,0,1-2.041,1.247h-.021a1.6,1.6,0,0,1-1.508-.692,1.253,1.253,0,0,1-.181-.66,1.172,1.172,0,0,1,.186-.629q.321-.532.636-1.066c.38-.632.82-1.215,1.582-1.229A1,1,0,0,1,198.771,204.172Z" transform="translate(-185.392 -201.571)"/><path class="i" d="M212.531,203.89q-.689,1.358-1.42,2.706a.292.292,0,0,0-.015.311.527.527,0,0,0,.473.179c.463-.026.8-.485.995-.866q.145-.277.289-.554a.316.316,0,0,1,.408-.136.292.292,0,0,1,.141.388q-.143.278-.287.556a2.667,2.667,0,0,1-.585.788,1.469,1.469,0,0,1-.928.405,1.162,1.162,0,0,1-.981-.387,1.472,1.472,0,0,1-1.035.479,1.029,1.029,0,0,1-.932-.417,1,1,0,0,1,.044-1.059q.726-1.271,1.413-2.552a.306.306,0,0,1,.4-.124.293.293,0,0,1,.128.392q-.682,1.284-1.4,2.559a.471.471,0,0,0-.057.477.429.429,0,0,0,.385.142.85.85,0,0,0,.566-.254,2.787,2.787,0,0,0,.5-.711q.7-1.285,1.363-2.579a.306.306,0,0,1,.4-.132A.292.292,0,0,1,212.531,203.89Z" transform="translate(-195.385 -201.362)"/><path class="i" d="M227.985,202.025a.52.52,0,0,1-.03.119c-.162.433.106.877.393,1.347a4.544,4.544,0,0,1,.407.76,1.194,1.194,0,0,1,0,.9,2.144,2.144,0,0,1-.14.266,1.631,1.631,0,0,0,.782-.865q.136-.282.27-.564a.32.32,0,0,1,.4-.15.292.292,0,0,1,.155.383q-.133.283-.268.565a2.516,2.516,0,0,1-.557.808,1.468,1.468,0,0,1-.914.438l-.413.037a2.172,2.172,0,0,1-1.557-.285c0-.01-.011-.019-.023-.028a.28.28,0,0,1,.022-.41.3.3,0,0,1,.169-.08h.041a.365.365,0,0,1,.212.081,1.23,1.23,0,0,0,.756.037.771.771,0,0,0,.5-.442c.136-.324-.1-.7-.366-1.146a4.829,4.829,0,0,1-.385-.727q-.461.943-.942,1.882a.323.323,0,0,1-.411.136.291.291,0,0,1-.139-.389q.734-1.414,1.422-2.839l.027-.031a.331.331,0,0,1,.439-.106A.292.292,0,0,1,227.985,202.025Z" transform="translate(-208.71 -199.984)"/></g><g transform="translate(37.461 44.763)"><circle class="b" cx="0.644" cy="0.644" r="0.644" transform="translate(0.351)"/><circle class="b" cx="0.644" cy="0.644" r="0.644" transform="translate(0 5.21)"/><circle class="b" cx="0.644" cy="0.644" r="0.644" transform="translate(40.74)"/><circle class="b" cx="0.644" cy="0.644" r="0.644" transform="translate(41.091 5.21)"/></g></g></svg>