<svg xmlns="http://www.w3.org/2000/svg" viewBox="-8724.991 652 102.87 101.984">
  <defs>
    <style>
      .cls-1 {
        fill: #445;
      }

      .cls-2 {
        fill: #5a5d6f;
      }

      .cls-3 {
        fill: #6f7588;
      }

      .cls-4 {
        fill: #929cb4;
      }

      .cls-5 {
        fill: #b3e671;
      }

      .cls-6 {
        fill: #ffd75b;
      }
    </style>
  </defs>
  <g id="technology" transform="translate(-8724.991 649.793)">
    <rect class="cls-1" width="7.094" height="74.492" transform="translate(47.888 23.491)"/>
    <path class="cls-2" d="M102.87,463.015v3.547a1.774,1.774,0,0,1-1.774,1.774H1.774A1.774,1.774,0,0,1,0,466.562v-3.547a1.774,1.774,0,0,1,1.774-1.774H101.1A1.774,1.774,0,0,1,102.87,463.015Z" transform="translate(0 -366.806)"/>
    <rect class="cls-1" width="19.51" height="7.094" transform="translate(41.68 94.436)"/>
    <path class="cls-3" d="M233.971,460.415H228.65a3.547,3.547,0,0,1-3.547-3.547v-5.321A3.547,3.547,0,0,1,228.65,448h5.321a3.547,3.547,0,0,1,3.547,3.547v5.321A3.547,3.547,0,0,1,233.971,460.415Z" transform="translate(-179.876 -356.225)"/>
    <path class="cls-4" d="M99.323,27.038H3.547A3.547,3.547,0,0,1,0,23.491V5.754A3.547,3.547,0,0,1,3.547,2.207H99.323a3.547,3.547,0,0,1,3.547,3.547V23.491A3.547,3.547,0,0,1,99.323,27.038Z" transform="translate(0 0)"/>
    <circle class="cls-5" cx="2.66" cy="2.66" r="2.66" transform="translate(92.229 7.528)"/>
    <circle class="cls-6" cx="2.66" cy="2.66" r="2.66" transform="translate(92.229 16.396)"/>
    <g transform="translate(5.321 7.528)">
      <path class="cls-2" d="M28.256,42.878A1.774,1.774,0,0,1,26.482,41.1V30.463a1.774,1.774,0,0,1,3.547,0V41.1A1.774,1.774,0,0,1,28.256,42.878Z" transform="translate(-26.482 -28.689)"/>
      <path class="cls-2" d="M63.567,42.878A1.774,1.774,0,0,1,61.793,41.1V30.463a1.774,1.774,0,0,1,3.547,0V41.1A1.774,1.774,0,0,1,63.567,42.878Z" transform="translate(-54.698 -28.689)"/>
      <path class="cls-2" d="M98.877,42.878A1.774,1.774,0,0,1,97.1,41.1V30.463a1.774,1.774,0,0,1,3.547,0V41.1A1.774,1.774,0,0,1,98.877,42.878Z" transform="translate(-82.914 -28.689)"/>
      <path class="cls-2" d="M134.187,42.878a1.774,1.774,0,0,1-1.774-1.774V30.463a1.774,1.774,0,1,1,3.547,0V41.1A1.774,1.774,0,0,1,134.187,42.878Z" transform="translate(-111.129 -28.689)"/>
      <path class="cls-2" d="M169.5,42.878a1.774,1.774,0,0,1-1.774-1.774V30.463a1.774,1.774,0,0,1,3.547,0V41.1A1.774,1.774,0,0,1,169.5,42.878Z" transform="translate(-139.346 -28.689)"/>
      <path class="cls-2" d="M204.808,42.878a1.774,1.774,0,0,1-1.774-1.774V30.463a1.774,1.774,0,0,1,3.547,0V41.1A1.774,1.774,0,0,1,204.808,42.878Z" transform="translate(-167.561 -28.689)"/>
    </g>
    <path class="cls-3" d="M282.645,42.878h-33.7a1.774,1.774,0,0,1-1.774-1.774V30.463a1.774,1.774,0,0,1,1.774-1.774h33.7a1.774,1.774,0,0,1,1.774,1.774V41.1A1.774,1.774,0,0,1,282.645,42.878Z" transform="translate(-197.511 -21.161)"/>
    <path class="cls-2" d="M293.205,58.719H266.6a1.774,1.774,0,0,1-1.774-1.774h0a1.774,1.774,0,0,1,1.774-1.774h26.6a1.774,1.774,0,0,1,1.774,1.774h0A1.774,1.774,0,0,1,293.205,58.719Z" transform="translate(-211.618 -42.323)"/>
    <path class="cls-4" d="M99.323,168.279H3.547A3.547,3.547,0,0,1,0,164.732V147a3.547,3.547,0,0,1,3.547-3.547H99.323A3.547,3.547,0,0,1,102.87,147v17.736A3.547,3.547,0,0,1,99.323,168.279Z" transform="translate(0 -112.863)"/>
    <circle class="cls-5" cx="2.66" cy="2.66" r="2.66" transform="translate(92.229 35.906)"/>
    <circle class="cls-6" cx="2.66" cy="2.66" r="2.66" transform="translate(92.229 44.774)"/>
    <g transform="translate(5.321 35.906)">
      <path class="cls-2" d="M28.256,184.119a1.774,1.774,0,0,1-1.774-1.774V171.7a1.774,1.774,0,1,1,3.547,0v10.642A1.774,1.774,0,0,1,28.256,184.119Z" transform="translate(-26.482 -169.93)"/>
      <path class="cls-2" d="M63.567,184.119a1.774,1.774,0,0,1-1.774-1.774V171.7a1.774,1.774,0,1,1,3.547,0v10.642A1.774,1.774,0,0,1,63.567,184.119Z" transform="translate(-54.698 -169.93)"/>
      <path class="cls-2" d="M98.877,184.119a1.774,1.774,0,0,1-1.774-1.774V171.7a1.774,1.774,0,1,1,3.547,0v10.642A1.774,1.774,0,0,1,98.877,184.119Z" transform="translate(-82.914 -169.93)"/>
      <path class="cls-2" d="M134.187,184.119a1.774,1.774,0,0,1-1.774-1.774V171.7a1.774,1.774,0,1,1,3.547,0v10.642A1.774,1.774,0,0,1,134.187,184.119Z" transform="translate(-111.129 -169.93)"/>
      <path class="cls-2" d="M169.5,184.119a1.774,1.774,0,0,1-1.774-1.774V171.7a1.774,1.774,0,1,1,3.547,0v10.642A1.774,1.774,0,0,1,169.5,184.119Z" transform="translate(-139.346 -169.93)"/>
      <path class="cls-2" d="M204.808,184.119a1.774,1.774,0,0,1-1.774-1.774V171.7a1.774,1.774,0,1,1,3.547,0v10.642A1.774,1.774,0,0,1,204.808,184.119Z" transform="translate(-167.561 -169.93)"/>
    </g>
    <path class="cls-3" d="M282.645,184.119h-33.7a1.774,1.774,0,0,1-1.774-1.774V171.7a1.774,1.774,0,0,1,1.774-1.774h33.7a1.774,1.774,0,0,1,1.774,1.774v10.642A1.774,1.774,0,0,1,282.645,184.119Z" transform="translate(-197.511 -134.024)"/>
    <path class="cls-2" d="M293.205,199.96H266.6a1.774,1.774,0,0,1-1.774-1.774h0a1.774,1.774,0,0,1,1.774-1.774h26.6a1.774,1.774,0,0,1,1.774,1.774h0A1.774,1.774,0,0,1,293.205,199.96Z" transform="translate(-211.618 -155.186)"/>
    <path class="cls-4" d="M99.323,309.521H3.547A3.547,3.547,0,0,1,0,305.973V288.237a3.547,3.547,0,0,1,3.547-3.547H99.323a3.547,3.547,0,0,1,3.547,3.547v17.736A3.547,3.547,0,0,1,99.323,309.521Z" transform="translate(0 -225.727)"/>
    <circle class="cls-5" cx="2.66" cy="2.66" r="2.66" transform="translate(92.229 64.284)"/>
    <circle class="cls-6" cx="2.66" cy="2.66" r="2.66" transform="translate(92.229 73.152)"/>
    <g transform="translate(5.321 64.284)">
      <path class="cls-2" d="M28.256,325.361a1.774,1.774,0,0,1-1.774-1.774V312.946a1.774,1.774,0,1,1,3.547,0v10.642A1.774,1.774,0,0,1,28.256,325.361Z" transform="translate(-26.482 -311.172)"/>
      <path class="cls-2" d="M63.567,325.361a1.774,1.774,0,0,1-1.774-1.774V312.946a1.774,1.774,0,1,1,3.547,0v10.642A1.774,1.774,0,0,1,63.567,325.361Z" transform="translate(-54.698 -311.172)"/>
      <path class="cls-2" d="M98.877,325.361a1.774,1.774,0,0,1-1.774-1.774V312.946a1.774,1.774,0,1,1,3.547,0v10.642A1.774,1.774,0,0,1,98.877,325.361Z" transform="translate(-82.914 -311.172)"/>
      <path class="cls-2" d="M134.187,325.361a1.774,1.774,0,0,1-1.774-1.774V312.946a1.774,1.774,0,1,1,3.547,0v10.642A1.774,1.774,0,0,1,134.187,325.361Z" transform="translate(-111.129 -311.172)"/>
      <path class="cls-2" d="M169.5,325.361a1.774,1.774,0,0,1-1.774-1.774V312.946a1.774,1.774,0,1,1,3.547,0v10.642A1.774,1.774,0,0,1,169.5,325.361Z" transform="translate(-139.346 -311.172)"/>
      <path class="cls-2" d="M204.808,325.361a1.774,1.774,0,0,1-1.774-1.774V312.946a1.774,1.774,0,1,1,3.547,0v10.642A1.774,1.774,0,0,1,204.808,325.361Z" transform="translate(-167.561 -311.172)"/>
    </g>
    <path class="cls-3" d="M282.645,325.361h-33.7a1.774,1.774,0,0,1-1.774-1.774V312.946a1.774,1.774,0,0,1,1.774-1.774h33.7a1.774,1.774,0,0,1,1.774,1.774v10.642A1.774,1.774,0,0,1,282.645,325.361Z" transform="translate(-197.511 -246.888)"/>
    <path class="cls-2" d="M293.205,341.2H266.6a1.774,1.774,0,0,1-1.774-1.774h0a1.774,1.774,0,0,1,1.774-1.774h26.6a1.774,1.774,0,0,1,1.774,1.774h0A1.774,1.774,0,0,1,293.205,341.2Z" transform="translate(-211.618 -268.049)"/>
  </g>
</svg>
