<svg xmlns="http://www.w3.org/2000/svg" viewBox="-8002 311.945 114.349 100.056">
  <defs>
    <style>
      .cls-1 {
        fill: #7383bf;
      }

      .cls-2 {
        fill: #556080;
      }
    </style>
  </defs>
  <g id="Group_2" data-name="Group 2" transform="translate(-9710 -637)">
    <g id="Group_1" data-name="Group 1">
      <circle id="Ellipse_1" data-name="Ellipse 1" class="cls-1" cx="5.5" cy="5.5" r="5.5" transform="translate(1735 951)"/>
      <circle id="Ellipse_2" data-name="Ellipse 2" class="cls-1" cx="5.5" cy="5.5" r="5.5" transform="translate(1784 951)"/>
      <circle id="Ellipse_3" data-name="Ellipse 3" class="cls-1" cx="5.5" cy="5.5" r="5.5" transform="translate(1809 994)"/>
      <circle id="Ellipse_4" data-name="Ellipse 4" class="cls-1" cx="5.5" cy="5.5" r="5.5" transform="translate(1784 1036)"/>
      <circle id="Ellipse_5" data-name="Ellipse 5" class="cls-1" cx="5.5" cy="5.5" r="5.5" transform="translate(1734 1037)"/>
      <circle id="Ellipse_6" data-name="Ellipse 6" class="cls-1" cx="5.5" cy="5.5" r="5.5" transform="translate(1710 994)"/>
      <circle id="Ellipse_7" data-name="Ellipse 7" class="cls-1" cx="5.5" cy="5.5" r="5.5" transform="translate(1759 994)"/>
    </g>
    <g id="logo_bw" transform="translate(1708 948.945)">
      <path id="path" class="cls-2" d="M14.581,13.961a6.816,6.816,0,0,0,6.981-6.981A6.816,6.816,0,0,0,14.581,0,6.816,6.816,0,0,0,7.6,6.981,6.816,6.816,0,0,0,14.581,13.961Zm0-10.637a3.657,3.657,0,1,1-3.657,3.657A3.689,3.689,0,0,1,14.581,3.324Z" transform="translate(17.663)"/>
      <path id="path-2" data-name="path" class="cls-2" d="M106.7,43.313a2.491,2.491,0,0,0-1.662.332L86.759,12.067a6.765,6.765,0,0,0,1.994-4.986,6.981,6.981,0,0,0-13.961,0,6.765,6.765,0,0,0,1.994,4.986L58.5,43.978a4.929,4.929,0,0,0-2.327-.332,6.792,6.792,0,0,0-6.648,5.319h-35.9a6.792,6.792,0,0,0-6.648-5.319A6.37,6.37,0,0,0,0,50.294a6.816,6.816,0,0,0,6.981,6.981,6.87,6.87,0,0,0,6.648-4.986H49.862a6.9,6.9,0,0,0,1.994,3.324L33.906,86.194c-.665,0-1.33-.332-1.994-.332a6.981,6.981,0,1,0,0,13.961c3.324,0,5.983-2.327,6.981-5.651H74.46a7.172,7.172,0,0,0,6.981,5.651,6.816,6.816,0,0,0,6.981-6.981,7.942,7.942,0,0,0-1.662-4.654L105.042,56.61a4.929,4.929,0,0,0,2.327.332,6.816,6.816,0,0,0,6.981-6.981A7.852,7.852,0,0,0,106.7,43.313ZM6.981,53.618a3.657,3.657,0,1,1,3.657-3.657A3.488,3.488,0,0,1,6.981,53.618ZM81.773,3.092a3.657,3.657,0,1,1-3.657,3.657C78.449,4.754,79.779,3.092,81.773,3.092ZM56.51,46.638a3.657,3.657,0,1,1-3.657,3.657A3.689,3.689,0,0,1,56.51,46.638ZM31.911,96.5a3.689,3.689,0,0,1-3.657-3.657,3.417,3.417,0,0,1,3.657-3.324,3.689,3.689,0,0,1,3.657,3.657A3.417,3.417,0,0,1,31.911,96.5ZM74.46,90.848H38.56A13.474,13.474,0,0,0,36.9,87.856L54.848,56.61c.665,0,1,.332,1.662.332s1.662-.332,2.327-.332l17.95,30.914A5.62,5.62,0,0,0,74.46,90.848ZM81.108,96.5a3.657,3.657,0,1,1,3.657-3.657A3.929,3.929,0,0,1,81.108,96.5Zm2.327-9.972a5.657,5.657,0,0,0-2.327-.332h-1.33L61.828,54.948a7.238,7.238,0,0,0,1.662-2.659h36.9a13.473,13.473,0,0,0,1.662,2.992Zm16.621-37.895h-36.9A10.4,10.4,0,0,0,61.5,45.308L80.111,13.4a6.15,6.15,0,0,0,3.989,0l18.283,31.579A6.32,6.32,0,0,0,100.056,48.632Zm6.648,4.986a3.657,3.657,0,1,1,3.657-3.657A3.488,3.488,0,0,1,106.7,53.618Z" transform="translate(0 0.232)"/>
    </g>
  </g>
</svg>
