<svg xmlns="http://www.w3.org/2000/svg" viewBox="1334 1206.561 106.711 94.453"><defs><style>.a{fill:#dfd0c6;}.b{fill:#83727a;}.c{fill:#a08a8a;}.d{fill:#695a69;}.e{fill:#c8b2a8;}</style></defs><g transform="translate(1334 1178.993)"><path class="a" d="M20.189,115.886v-.721h14.42V43.784H0v90.848H20.189V115.886Zm5.047-58.4V55.32h3.605v7.931H25.236V57.483Zm0,20.189V75.509h3.605V83.44H25.236V77.672Zm0,20.189V95.7h3.605v7.931H25.236V97.86ZM20.189,57.483V55.32h3.605v7.931H20.189Zm0,20.189V75.509h3.605V83.44H20.189Zm0,20.189V95.7h3.605v7.931H20.189ZM9.373,118.049v5.768H5.768v-7.931H9.373Zm0-20.189v5.768H5.768V95.7H9.373Zm0-20.189V83.44H5.768V75.509H9.373Zm0-20.189v5.768H5.768V55.32H9.373Zm5.047,60.566v5.768H10.815v-7.931H14.42Zm0-20.189v5.768H10.815V95.7H14.42Zm0-20.189V83.44H10.815V75.509H14.42Zm0-20.189v5.768H10.815V55.32H14.42Z" transform="translate(0 -12.611)"/><rect class="b" width="5.047" height="59.123" transform="translate(74.986 62.898)"/><rect class="b" width="5.047" height="59.123" transform="translate(85.08 62.898)"/><rect class="b" width="5.047" height="59.123" transform="translate(95.174 62.898)"/><path class="c" d="M90.811,374.595v17.3h49.751v-17.3Zm5.768,6.489v5.047H93.7V378.2h2.884Zm3.605,0v5.047H97.3V378.2h2.884v2.884Zm5.768,0v5.047h-2.884V378.2h2.884Zm3.605,0v5.047h-2.884V378.2h2.884v2.884Zm5.768,0v5.047h-2.884V378.2h2.884Zm3.605,0v5.047h-2.884V378.2h2.884Zm5.768,0v5.047h-2.884V378.2H124.7Zm3.605,0v5.047H125.42V378.2H128.3Zm5.768,0v5.047h-2.884V378.2h2.884Zm3.605,0v5.047h-2.884V378.2h2.884Z" transform="translate(-70.622 -269.878)"/><path class="d" d="M155.676,173.875h5.047v39.656h5.047V173.875h5.047v39.656h5.047V173.875h5.047v39.656h5.047V173.875h5.047V233h5.047V173.875H201.1V233h5.047V173.875h5.047V233h5.047V173.875h5.047V233h5.047V173.875h1.442V170.27h-72.1Z" transform="translate(-121.067 -110.977)"/><path class="e" d="M34.609,29.731V27.568H0v3.605H34.609Z"/><rect class="c" width="72.102" height="3.605" transform="translate(34.609 55.688)"/><rect class="d" width="3.605" height="2.163" transform="translate(5.768 42.709)"/><path class="c" d="M25.946,111.173h3.605V109.01L25.946,105.4Z" transform="translate(-20.178 -60.533)"/><path class="b" d="M29.551,109.01V105.4H25.946Z" transform="translate(-20.178 -60.533)"/><rect class="d" width="3.605" height="2.163" transform="translate(10.815 42.709)"/><path class="c" d="M48.649,111.173h3.605V109.01L48.649,105.4Z" transform="translate(-37.834 -60.533)"/><path class="b" d="M52.254,109.01V105.4H48.649Z" transform="translate(-37.834 -60.533)"/><rect class="d" width="3.605" height="2.163" transform="translate(20.189 42.709)"/><path class="c" d="M94.416,109.01,90.811,105.4v5.768h3.605Z" transform="translate(-70.622 -60.533)"/><path class="b" d="M94.416,105.4H90.811l3.605,3.605Z" transform="translate(-70.622 -60.533)"/><rect class="d" width="3.605" height="2.163" transform="translate(25.236 42.709)"/><path class="c" d="M117.119,109.01l-3.605-3.605v5.768h3.605Z" transform="translate(-88.278 -60.533)"/><path class="b" d="M117.119,105.4h-3.605l3.605,3.605Z" transform="translate(-88.278 -60.533)"/><rect class="d" width="3.605" height="2.163" transform="translate(5.768 62.898)"/><path class="c" d="M25.946,201.984h3.605v-2.163l-3.605-3.605Z" transform="translate(-20.178 -131.155)"/><path class="b" d="M29.551,199.821v-3.605H25.946Z" transform="translate(-20.178 -131.155)"/><rect class="d" width="3.605" height="2.163" transform="translate(10.815 62.898)"/><path class="c" d="M48.649,201.984h3.605v-2.163l-3.605-3.605Z" transform="translate(-37.834 -131.155)"/><path class="b" d="M52.254,199.821v-3.605H48.649Z" transform="translate(-37.834 -131.155)"/><rect class="d" width="3.605" height="2.163" transform="translate(20.189 62.898)"/><path class="c" d="M94.416,199.821l-3.605-3.605v5.768h3.605Z" transform="translate(-70.622 -131.155)"/><path class="b" d="M94.416,196.216H90.811l3.605,3.605Z" transform="translate(-70.622 -131.155)"/><rect class="d" width="3.605" height="2.163" transform="translate(25.236 62.898)"/><path class="c" d="M117.119,199.821l-3.605-3.605v5.768h3.605Z" transform="translate(-88.278 -131.155)"/><path class="b" d="M117.119,196.216h-3.605l3.605,3.605Z" transform="translate(-88.278 -131.155)"/><rect class="d" width="3.605" height="2.163" transform="translate(5.768 83.086)"/><path class="c" d="M25.946,292.8h3.605v-2.163l-3.605-3.605Z" transform="translate(-20.178 -201.778)"/><path class="b" d="M29.551,290.632v-3.605H25.946Z" transform="translate(-20.178 -201.778)"/><rect class="d" width="3.605" height="2.163" transform="translate(10.815 83.086)"/><path class="c" d="M48.649,292.8h3.605v-2.163l-3.605-3.605Z" transform="translate(-37.834 -201.778)"/><path class="b" d="M52.254,290.632v-3.605H48.649Z" transform="translate(-37.834 -201.778)"/><rect class="d" width="3.605" height="2.163" transform="translate(20.189 83.086)"/><path class="c" d="M94.416,290.632l-3.605-3.605V292.8h3.605Z" transform="translate(-70.622 -201.778)"/><path class="b" d="M94.416,287.027H90.811l3.605,3.605Z" transform="translate(-70.622 -201.778)"/><rect class="d" width="3.605" height="2.163" transform="translate(25.236 83.086)"/><path class="c" d="M117.119,290.632l-3.605-3.605V292.8h3.605Z" transform="translate(-88.278 -201.778)"/><path class="b" d="M117.119,287.027h-3.605l3.605,3.605Z" transform="translate(-88.278 -201.778)"/><rect class="d" width="3.605" height="2.163" transform="translate(5.768 103.275)"/><path class="c" d="M25.946,383.606h3.605v-2.163l-3.605-3.605Z" transform="translate(-20.178 -272.4)"/><path class="b" d="M29.551,381.443v-3.605H25.946Z" transform="translate(-20.178 -272.4)"/><rect class="d" width="3.605" height="2.163" transform="translate(10.815 103.275)"/><path class="c" d="M48.649,383.606h3.605v-2.163l-3.605-3.605Z" transform="translate(-37.834 -272.4)"/><path class="b" d="M52.254,381.443v-3.605H48.649Z" transform="translate(-37.834 -272.4)"/><path class="b" d="M103.784,398.742h2.884V393.7l-2.884-2.884Z" transform="translate(-80.711 -282.489)"/><path class="d" d="M106.668,393.7v-2.884h-2.884Z" transform="translate(-80.711 -282.489)"/><path class="b" d="M120,398.742h2.884V393.7L120,390.811Z" transform="translate(-93.322 -282.489)"/><path class="d" d="M122.884,393.7v-2.884H120Z" transform="translate(-93.322 -282.489)"/><path class="b" d="M145.946,390.811v7.931h2.884V393.7Z" transform="translate(-113.5 -282.489)"/><path class="d" d="M145.946,390.811l2.884,2.884v-2.884Z" transform="translate(-113.5 -282.489)"/><path class="b" d="M162.162,398.742h2.884V393.7l-2.884-2.884Z" transform="translate(-126.111 -282.489)"/><path class="d" d="M165.046,393.7v-2.884h-2.884Z" transform="translate(-126.111 -282.489)"/><path class="b" d="M188.108,398.742h2.884V393.7l-2.884-2.884Z" transform="translate(-146.289 -282.489)"/><path class="d" d="M190.992,393.7v-2.884h-2.884Z" transform="translate(-146.289 -282.489)"/><path class="b" d="M204.324,398.742h2.884V393.7l-2.884-2.884Z" transform="translate(-158.9 -282.489)"/><path class="d" d="M207.208,393.7v-2.884h-2.884Z" transform="translate(-158.9 -282.489)"/><path class="b" d="M230.27,398.742h2.884V393.7l-2.884-2.884Z" transform="translate(-179.078 -282.489)"/><path class="d" d="M233.154,393.7v-2.884H230.27Z" transform="translate(-179.078 -282.489)"/><path class="b" d="M246.487,398.742h2.884V393.7l-2.884-2.884Z" transform="translate(-191.69 -282.489)"/><path class="d" d="M249.371,393.7v-2.884h-2.884Z" transform="translate(-191.69 -282.489)"/><path class="b" d="M272.432,398.742h2.884V393.7l-2.884-2.884Z" transform="translate(-211.867 -282.489)"/><path class="d" d="M275.316,393.7v-2.884h-2.884Z" transform="translate(-211.867 -282.489)"/><path class="b" d="M288.649,390.811v7.931h2.884V393.7Z" transform="translate(-224.478 -282.489)"/><path class="d" d="M288.649,390.811l2.884,2.884v-2.884Z" transform="translate(-224.478 -282.489)"/><path class="b" d="M90.811,226.142v2.163h49.75V186.486h-5.047v39.656h-5.047V186.486H125.42v39.656h-5.047V186.486h-5.047v39.656h-5.047V186.486h-5.047v39.656Z" transform="translate(-70.622 -123.588)"/></g></svg>