<svg xmlns="http://www.w3.org/2000/svg" viewBox="1053 1207.508 132.546 94.389"><defs><style>.a{fill:#e17277;}.b{fill:#bf515a;}.c{fill:#95ffff;}.d{fill:#80d7f0;}.e{fill:#6eb1e2;}.f{fill:#695a69;}.g{fill:#f2d057;}.h{fill:#e9a868;}.i{fill:#7cdaaf;}.j{fill:#65b1a8;}</style></defs><g transform="translate(1053 1138.417)"><path class="a" d="M44.182,100.951,22.091,90.909,0,100.951v70.29H44.182Zm-24.1,44.182v20.083H6.025V143.124H20.083v2.008Zm0-32.133v20.083H6.025V110.992H20.083V113Zm18.075,32.133v20.083H24.1V143.124H38.157v2.008Zm0-32.133v20.083H24.1V110.992H38.157V113Z" transform="translate(0 -15.793)"/><rect class="b" width="44.182" height="8.033" transform="translate(0 155.447)"/><path class="c" d="M29.091,204.777H39.132v-2.008L29.091,192.727Z" transform="translate(-21.058 -89.495)"/><path class="d" d="M39.132,202.769V192.727H29.091Z" transform="translate(-21.058 -89.495)"/><rect class="e" width="10.041" height="4.016" transform="translate(8.033 97.207)"/><path class="f" d="M23.826,163.636H21.818v22.091H35.876V163.636H23.826Zm10.041,18.075v2.008H23.826v-12.05H33.868Zm0-12.05H23.826v-4.016H33.868Z" transform="translate(-15.793 -68.437)"/><path class="c" d="M94.545,204.777h10.041v-2.008L94.545,192.727Z" transform="translate(-68.438 -89.495)"/><path class="d" d="M104.586,202.769V192.727H94.545Z" transform="translate(-68.438 -89.495)"/><rect class="e" width="10.041" height="4.016" transform="translate(26.108 97.207)"/><path class="f" d="M89.28,163.636H87.272v22.091H101.33V163.636H89.28Zm10.041,18.075v2.008H89.28v-12.05H99.322Zm0-12.05H89.28v-4.016H99.322Z" transform="translate(-63.173 -68.437)"/><path class="g" d="M204.182,171.24v-70.29L182.091,90.909,160,100.951v70.29ZM184.1,131.075V110.992h14.058v22.091H184.1Zm0,32.132V143.124h14.058v22.091H184.1Zm-18.075-32.132V110.992h14.058v22.091H166.025Zm0,32.132V143.124h14.058v22.091H166.025Z" transform="translate(-115.818 -15.793)"/><rect class="h" width="44.182" height="8.033" transform="translate(44.182 155.447)"/><path class="i" d="M320,100.951v70.29h44.182v-70.29L342.091,90.909Zm20.083,44.182v20.083H326.025V143.124h14.058Zm0-32.133v20.083H326.025V110.992h14.058Zm4.017,18.075V110.992h14.058v22.091H344.1Zm0,32.132V143.124h14.058v22.091H344.1Z" transform="translate(-231.636 -15.793)"/><rect class="j" width="44.182" height="8.033" transform="translate(88.364 155.447)"/><path class="c" d="M29.091,321.141H39.132v-2.008L29.091,309.091Z" transform="translate(-21.058 -173.727)"/><path class="d" d="M39.132,319.133V309.091H29.091Z" transform="translate(-21.058 -173.727)"/><rect class="e" width="10.041" height="4.016" transform="translate(8.033 129.339)"/><path class="f" d="M23.826,280H21.818v22.091H35.876V280H23.826Zm10.041,18.075v2.008H23.826v-12.05H33.868Zm0-12.05H23.826v-4.016H33.868Z" transform="translate(-15.793 -152.669)"/><path class="c" d="M94.545,321.141h10.041v-2.008L94.545,309.091Z" transform="translate(-68.438 -173.727)"/><path class="d" d="M104.586,319.133V309.091H94.545Z" transform="translate(-68.438 -173.727)"/><rect class="e" width="10.041" height="4.016" transform="translate(26.108 129.339)"/><path class="f" d="M89.28,280H87.272v22.091H101.33V280H89.28Zm10.041,18.075v2.008H89.28v-12.05H99.322Zm0-12.05H89.28v-4.016H99.322Z" transform="translate(-63.173 -152.669)"/><path class="c" d="M199.133,202.769l-10.042-10.041v12.05h10.042Z" transform="translate(-136.876 -89.495)"/><path class="d" d="M199.133,192.727H189.091l10.042,10.041Z" transform="translate(-136.876 -89.495)"/><rect class="e" width="10.041" height="4.016" transform="translate(52.215 97.207)"/><path class="f" d="M193.868,185.727h2.008V163.636H181.818v22.091h12.05Zm-10.041-20.083h10.041v4.016H183.826Zm0,6.025h10.041v12.05H183.826Z" transform="translate(-131.611 -68.438)"/><path class="c" d="M264.587,202.769l-10.042-10.041v12.05h10.042Z" transform="translate(-184.255 -89.495)"/><path class="d" d="M264.587,192.727H254.545l10.042,10.041Z" transform="translate(-184.255 -89.495)"/><rect class="e" width="10.041" height="4.016" transform="translate(70.29 97.207)"/><path class="f" d="M259.322,185.727h2.008V163.636H247.272v22.091h12.05ZM249.28,165.644h10.042v4.016H249.28Zm0,6.025h10.042v12.05H249.28Z" transform="translate(-178.991 -68.438)"/><path class="c" d="M199.133,319.133l-10.042-10.042v12.05h10.042Z" transform="translate(-136.876 -173.727)"/><path class="d" d="M199.133,309.091H189.091l10.042,10.042Z" transform="translate(-136.876 -173.727)"/><rect class="e" width="10.041" height="4.016" transform="translate(52.215 129.339)"/><path class="f" d="M193.868,302.091h2.008V280H181.818v22.091h12.05Zm-10.041-20.083h10.041v4.016H183.826Zm0,6.025h10.041v12.05H183.826Z" transform="translate(-131.611 -152.669)"/><path class="c" d="M264.587,319.133l-10.042-10.042v12.05h10.042Z" transform="translate(-184.255 -173.727)"/><path class="d" d="M264.587,309.091H254.545l10.042,10.042Z" transform="translate(-184.255 -173.727)"/><rect class="e" width="10.041" height="4.016" transform="translate(70.29 129.339)"/><path class="f" d="M259.322,302.091h2.008V280H247.272v22.091h12.05ZM249.28,282.008h10.042v4.016H249.28Zm0,6.025h10.042v12.05H249.28Z" transform="translate(-178.991 -152.669)"/><path class="c" d="M349.091,204.777h10.041v-2.008l-10.041-10.041Z" transform="translate(-252.694 -89.495)"/><path class="d" d="M359.133,202.769V192.727H349.091Z" transform="translate(-252.694 -89.495)"/><rect class="e" width="10.041" height="4.016" transform="translate(96.397 97.207)"/><path class="f" d="M343.826,163.636h-2.008v22.091h14.058V163.636h-12.05Zm10.041,18.075v2.008H343.826v-12.05h10.041Zm0-12.05H343.826v-4.016h10.041Z" transform="translate(-247.429 -68.437)"/><path class="c" d="M424.587,202.769l-10.041-10.041v12.05h10.041Z" transform="translate(-300.073 -89.495)"/><path class="d" d="M424.587,192.727H414.545l10.041,10.041Z" transform="translate(-300.073 -89.495)"/><rect class="e" width="10.041" height="4.016" transform="translate(114.472 97.207)"/><path class="f" d="M419.322,185.727h2.008V163.636H407.272v22.091h12.05ZM409.28,165.644h10.042v4.016H409.28Zm0,6.025h10.042v12.05H409.28Z" transform="translate(-294.809 -68.438)"/><path class="c" d="M349.091,321.141h10.041v-2.008l-10.041-10.042Z" transform="translate(-252.694 -173.727)"/><path class="d" d="M359.133,319.133V309.091H349.091Z" transform="translate(-252.694 -173.727)"/><rect class="e" width="10.041" height="4.016" transform="translate(96.397 129.339)"/><path class="f" d="M343.826,280h-2.008v22.091h14.058V280h-12.05Zm10.041,18.075v2.008H343.826v-12.05h10.041Zm0-12.05H343.826v-4.016h10.041Z" transform="translate(-247.429 -152.669)"/><path class="c" d="M424.587,319.133l-10.041-10.042v12.05h10.041Z" transform="translate(-300.073 -173.727)"/><path class="d" d="M424.587,309.091H414.545l10.041,10.042Z" transform="translate(-300.073 -173.727)"/><rect class="e" width="10.041" height="4.016" transform="translate(114.472 129.339)"/><path class="f" d="M419.322,302.091h2.008V280H407.272v22.091h12.05ZM409.28,282.008h10.042v4.016H409.28Zm0,6.025h10.042v12.05H409.28Z" transform="translate(-294.809 -152.669)"/><path class="f" d="M126.522,76.394v-7.3H120.5v4.564l-10.041-4.564L88.364,79.133l-6.025-2.739v-7.3H76.315v4.564L66.273,69.091,44.182,79.133l-6.025-2.739v-7.3H32.133v4.564L22.091,69.091,0,79.133v6.025L22.091,75.116,44.182,85.157,66.273,75.116,88.364,85.157l22.091-10.042,22.091,10.042V79.133Z"/></g></svg>