<svg xmlns="http://www.w3.org/2000/svg" viewBox="-9078 646 114.57 114.569">
  <defs>
    <style>
      .cls-1 {
        fill: #b7d6ca;
      }

      .cls-2 {
        fill: #96b5a5;
      }

      .cls-3 {
        fill: #fff;
      }

      .cls-4 {
        fill: #fff6d6;
      }

      .cls-5 {
        fill: #ffedad;
      }

      .cls-6 {
        fill: #ffd23d;
      }
    </style>
  </defs>
  <g id="light" transform="translate(-9078 646)">
    <path class="cls-1" d="M7.472,57.285A49.869,49.869,0,0,1,57.285,7.472V0a57.285,57.285,0,0,0,0,114.569V107.1A49.869,49.869,0,0,1,7.472,57.285Z"/>
    <path class="cls-2" d="M230,0V7.472a49.813,49.813,0,1,1,0,99.626v7.472A57.285,57.285,0,0,0,230,0Z" transform="translate(-172.715)"/>
    <path class="cls-3" d="M30,79.813a49.869,49.869,0,0,0,49.813,49.813v-7.472a12.453,12.453,0,0,1,0-24.906V89.775a9.963,9.963,0,0,1,0-19.925V62.378a12.453,12.453,0,0,1,0-24.906V30A49.869,49.869,0,0,0,30,79.813Zm23.927,27.4A12.453,12.453,0,1,1,66.381,94.759,12.453,12.453,0,0,1,53.927,107.212Zm0-54.794A12.453,12.453,0,1,1,41.474,64.871,12.453,12.453,0,0,1,53.927,52.418Z" transform="translate(-22.528 -22.528)"/>
    <path class="cls-4" d="M242.453,49.925A12.453,12.453,0,0,1,230,62.378V69.85a9.963,9.963,0,1,1,0,19.925v7.472a12.453,12.453,0,1,1,0,24.906v7.472A49.813,49.813,0,1,0,230,30v7.472A12.453,12.453,0,0,1,242.453,49.925Zm13.432,2.493a12.453,12.453,0,1,1-12.453,12.453A12.453,12.453,0,0,1,255.885,52.418Zm0,29.888a12.453,12.453,0,1,1-12.453,12.453A12.453,12.453,0,0,1,255.885,82.305Z" transform="translate(-172.715 -22.528)"/>
    <path class="cls-5" d="M180,72.453a12.453,12.453,0,0,0,12.453,12.453V60A12.453,12.453,0,0,0,180,72.453Z" transform="translate(-135.169 -45.056)"/>
    <path class="cls-6" d="M242.453,72.453A12.453,12.453,0,0,0,230,60V84.906A12.453,12.453,0,0,0,242.453,72.453Z" transform="translate(-172.715 -45.056)"/>
    <path class="cls-6" d="M239.963,199.963A9.963,9.963,0,0,0,230,190v19.925A9.963,9.963,0,0,0,239.963,199.963Z" transform="translate(-172.715 -142.678)"/>
    <path class="cls-5" d="M190,199.963a9.963,9.963,0,0,0,9.963,9.963V190A9.963,9.963,0,0,0,190,199.963Z" transform="translate(-142.678 -142.678)"/>
    <path class="cls-4" d="M88.522,144.914V120.008a12.453,12.453,0,1,0,0,24.906Z" transform="translate(-57.123 -90.118)"/>
    <path class="cls-5" d="M138.522,132.461a12.453,12.453,0,0,0-12.453-12.453v24.906A12.453,12.453,0,0,0,138.522,132.461Z" transform="translate(-94.67 -90.118)"/>
    <path class="cls-4" d="M76.069,252.461a12.453,12.453,0,0,0,12.453,12.453V240.008A12.453,12.453,0,0,0,76.069,252.461Z" transform="translate(-57.123 -180.231)"/>
    <path class="cls-5" d="M126.069,240.008v24.906a12.453,12.453,0,1,0,0-24.906Z" transform="translate(-94.67 -180.231)"/>
    <path class="cls-5" d="M180,312.453a12.453,12.453,0,0,0,12.453,12.453V300A12.453,12.453,0,0,0,180,312.453Z" transform="translate(-135.169 -225.281)"/>
    <path class="cls-6" d="M242.453,312.453A12.453,12.453,0,0,0,230,300v24.906A12.453,12.453,0,0,0,242.453,312.453Z" transform="translate(-172.715 -225.281)"/>
    <path class="cls-5" d="M296.384,264.914V240.008a12.453,12.453,0,1,0,0,24.906Z" transform="translate(-213.214 -180.231)"/>
    <path class="cls-6" d="M346.384,252.461a12.453,12.453,0,0,0-12.453-12.453v24.906A12.453,12.453,0,0,0,346.384,252.461Z" transform="translate(-250.761 -180.231)"/>
    <path class="cls-5" d="M296.384,144.914V120.008a12.453,12.453,0,1,0,0,24.906Z" transform="translate(-213.214 -90.118)"/>
    <path class="cls-6" d="M346.384,132.461a12.453,12.453,0,0,0-12.453-12.453v24.906A12.453,12.453,0,0,0,346.384,132.461Z" transform="translate(-250.761 -90.118)"/>
  </g>
</svg>
