<svg xmlns="http://www.w3.org/2000/svg" viewBox="757 931 41.144 36.001"><defs><style>.a{fill:#fff;}</style></defs><g transform="translate(757 931)"><path class="a" d="M10.112,5.023a2.453,2.453,0,0,0,2.512-2.512A2.453,2.453,0,0,0,10.112,0,2.453,2.453,0,0,0,7.6,2.512,2.453,2.453,0,0,0,10.112,5.023Zm0-3.827A1.316,1.316,0,1,1,8.8,2.512,1.327,1.327,0,0,1,10.112,1.2Z" transform="translate(1.49)"/><path class="a" d="M38.393,15.648a.9.9,0,0,0-.6.12L31.216,4.406a2.434,2.434,0,0,0,.718-1.794,2.512,2.512,0,0,0-5.023,0,2.434,2.434,0,0,0,.718,1.794L21.05,15.888a1.773,1.773,0,0,0-.837-.12,2.444,2.444,0,0,0-2.392,1.914H4.9a2.444,2.444,0,0,0-2.392-1.914A2.292,2.292,0,0,0,0,18.16a2.453,2.453,0,0,0,2.512,2.512A2.472,2.472,0,0,0,4.9,18.878H17.941a2.482,2.482,0,0,0,.718,1.2l-6.459,11c-.239,0-.478-.12-.718-.12a2.512,2.512,0,1,0,0,5.023,2.662,2.662,0,0,0,2.512-2.033h12.8A2.581,2.581,0,0,0,29.3,35.981a2.453,2.453,0,0,0,2.512-2.512,2.858,2.858,0,0,0-.6-1.674l6.578-11.362a1.773,1.773,0,0,0,.837.12,2.453,2.453,0,0,0,2.512-2.512A2.825,2.825,0,0,0,38.393,15.648ZM2.512,19.356a1.316,1.316,0,1,1,1.316-1.316A1.255,1.255,0,0,1,2.512,19.356ZM29.422,1.176a1.316,1.316,0,1,1-1.316,1.316A1.414,1.414,0,0,1,29.422,1.176Zm-9.09,15.668a1.316,1.316,0,1,1-1.316,1.316A1.327,1.327,0,0,1,20.333,16.844Zm-8.851,17.94a1.327,1.327,0,0,1-1.316-1.316,1.229,1.229,0,0,1,1.316-1.2A1.327,1.327,0,0,1,12.8,33.589,1.229,1.229,0,0,1,11.482,34.785Zm15.309-2.033H13.874a4.848,4.848,0,0,0-.6-1.076l6.459-11.243c.239,0,.359.12.6.12s.6-.12.837-.12l6.459,11.123A2.022,2.022,0,0,0,26.791,32.752Zm2.392,2.033A1.316,1.316,0,1,1,30.5,33.469,1.414,1.414,0,0,1,29.183,34.785ZM30.02,31.2a2.035,2.035,0,0,0-.837-.12H28.7L22.246,19.835a2.6,2.6,0,0,0,.6-.957H36.12a4.848,4.848,0,0,0,.6,1.076ZM36,17.562H22.725a3.741,3.741,0,0,0-.6-1.2l6.7-11.482a2.213,2.213,0,0,0,1.435,0l6.578,11.362A2.274,2.274,0,0,0,36,17.562Zm2.392,1.794a1.316,1.316,0,1,1,1.316-1.316A1.255,1.255,0,0,1,38.393,19.356Z" transform="translate(0 0.02)"/></g></svg>