<svg xmlns="http://www.w3.org/2000/svg" viewBox="557 740 22.414 18.16"><defs><style>.a{fill:#fff;}</style></defs><g transform="translate(557 730.5)"><g transform="translate(0 9.5)"><path class="a" d="M.846,11.637H21.568a.977.977,0,0,0,.846-1.068A.977.977,0,0,0,21.568,9.5H.846A.977.977,0,0,0,0,10.568.977.977,0,0,0,.846,11.637Z" transform="translate(0 -9.5)"/><path class="a" d="M.846,26.637H21.568a1.1,1.1,0,0,0,0-2.137H.846a1.1,1.1,0,0,0,0,2.137Z" transform="translate(0 -16.488)"/><path class="a" d="M.846,41.637H21.568a1.1,1.1,0,0,0,0-2.137H.846a1.1,1.1,0,0,0,0,2.137Z" transform="translate(0 -23.476)"/></g></g></svg>