<svg xmlns="http://www.w3.org/2000/svg" viewBox="1607 1207 96.154 96.154"><defs><style>.a{fill:#ecf0f1;stroke:#ecf0f1;}.a,.e,.h{stroke-width:2px;}.b{fill:#d1d4d1;}.c{fill:#bdc3c7;}.d{fill:#7f8c8d;}.e{fill:#556080;stroke:#556080;}.f{fill:#464f5d;}.g{fill:#e6e7e8;}.h{fill:#d1f7ef;stroke:#38454f;}.i{fill:#fff;}.j{fill:#86a0c0;}.k{fill:#81f90d;}.l{fill:#ff8980;}</style></defs><g transform="translate(1607 1207)"><rect class="a" width="94.154" height="22.727" transform="translate(1 72.427)"/><g transform="translate(7.493 75.674)"><path class="b" d="M6.623,47A1.624,1.624,0,0,0,5,48.623v4.87a1.623,1.623,0,1,0,3.247,0v-4.87A1.624,1.624,0,0,0,6.623,47Z" transform="translate(-5 -47)"/><path class="b" d="M6.623,53A1.624,1.624,0,0,0,5,54.623V57.87a1.623,1.623,0,1,0,3.247,0V54.623A1.624,1.624,0,0,0,6.623,53Z" transform="translate(-5 -43.26)"/><path class="b" d="M13.623,47A1.624,1.624,0,0,0,12,48.623v1.623a1.623,1.623,0,1,0,3.247,0V48.623A1.624,1.624,0,0,0,13.623,47Z" transform="translate(-0.637 -47)"/><path class="b" d="M13.623,51A1.624,1.624,0,0,0,12,52.623v6.493a1.623,1.623,0,1,0,3.247,0V52.623A1.624,1.624,0,0,0,13.623,51Z" transform="translate(-0.637 -44.507)"/><path class="b" d="M20.623,47A1.624,1.624,0,0,0,19,48.623v6.493a1.623,1.623,0,1,0,3.247,0V48.623A1.624,1.624,0,0,0,20.623,47Z" transform="translate(3.727 -47)"/><path class="b" d="M20.623,54A1.624,1.624,0,0,0,19,55.623v1.623a1.623,1.623,0,1,0,3.247,0V55.623A1.624,1.624,0,0,0,20.623,54Z" transform="translate(3.727 -42.637)"/><path class="b" d="M27.623,47A1.624,1.624,0,0,0,26,48.623V51.87a1.623,1.623,0,0,0,3.247,0V48.623A1.624,1.624,0,0,0,27.623,47Z" transform="translate(8.09 -47)"/><path class="b" d="M27.623,52A1.624,1.624,0,0,0,26,53.623v4.87a1.623,1.623,0,1,0,3.247,0v-4.87A1.624,1.624,0,0,0,27.623,52Z" transform="translate(8.09 -43.883)"/><path class="b" d="M34.623,47A1.624,1.624,0,0,0,33,48.623v6.493a1.623,1.623,0,1,0,3.247,0V48.623A1.624,1.624,0,0,0,34.623,47Z" transform="translate(12.454 -47)"/><path class="b" d="M34.623,54A1.624,1.624,0,0,0,33,55.623v1.623a1.623,1.623,0,1,0,3.247,0V55.623A1.624,1.624,0,0,0,34.623,54Z" transform="translate(12.454 -42.637)"/><path class="b" d="M41.623,47A1.624,1.624,0,0,0,40,48.623v1.623a1.623,1.623,0,1,0,3.247,0V48.623A1.624,1.624,0,0,0,41.623,47Z" transform="translate(16.817 -47)"/><path class="b" d="M41.623,51A1.624,1.624,0,0,0,40,52.623v6.493a1.623,1.623,0,1,0,3.247,0V52.623A1.624,1.624,0,0,0,41.623,51Z" transform="translate(16.817 -44.507)"/></g><circle class="c" cx="6.493" cy="6.493" r="6.493" transform="translate(77.297 80.544)"/><g transform="translate(5.87 78.92)"><rect class="d" width="6.493" height="4.87" transform="translate(0 3.247)"/><rect class="d" width="6.493" height="4.87" transform="translate(11.363)"/><rect class="d" width="6.493" height="4.87" transform="translate(22.727 4.87)"/><rect class="d" width="6.493" height="4.87" transform="translate(34.09 1.623)"/><rect class="d" width="6.493" height="4.87" transform="translate(45.454 4.87)"/><rect class="d" width="6.493" height="4.87" transform="translate(56.817)"/></g><rect class="e" width="94.154" height="48.7" transform="translate(1 23.727)"/><path class="f" d="M7.623,45.117A1.624,1.624,0,0,1,6,43.493v-4.87a1.623,1.623,0,1,1,3.247,0v4.87A1.624,1.624,0,0,1,7.623,45.117Z" transform="translate(3.117 22.44)"/><path class="f" d="M7.623,42.233A1.624,1.624,0,0,1,6,40.61V27.623a1.623,1.623,0,1,1,3.247,0V40.61A1.624,1.624,0,0,1,7.623,42.233Z" transform="translate(3.117 15.584)"/><path class="f" d="M15.623,47.61A1.624,1.624,0,0,1,14,45.987V34.623a1.623,1.623,0,1,1,3.247,0V45.987A1.624,1.624,0,0,1,15.623,47.61Z" transform="translate(8.103 19.947)"/><path class="f" d="M15.623,35.74A1.624,1.624,0,0,1,14,34.117V27.623a1.623,1.623,0,1,1,3.247,0v6.493A1.624,1.624,0,0,1,15.623,35.74Z" transform="translate(8.103 15.584)"/><path class="f" d="M23.623,43.87A1.624,1.624,0,0,1,22,42.247V40.623a1.623,1.623,0,1,1,3.247,0v1.623A1.624,1.624,0,0,1,23.623,43.87Z" transform="translate(13.09 23.687)"/><path class="f" d="M23.623,45.48A1.624,1.624,0,0,1,22,43.857V27.623a1.623,1.623,0,0,1,3.247,0V43.857A1.624,1.624,0,0,1,23.623,45.48Z" transform="translate(13.09 15.584)"/><path class="f" d="M31.623,48.857A1.624,1.624,0,0,1,30,47.233V32.623a1.623,1.623,0,1,1,3.247,0v14.61A1.624,1.624,0,0,1,31.623,48.857Z" transform="translate(18.077 18.7)"/><path class="f" d="M31.623,32.493A1.624,1.624,0,0,1,30,30.87V27.623a1.623,1.623,0,0,1,3.247,0V30.87A1.624,1.624,0,0,1,31.623,32.493Z" transform="translate(18.077 15.584)"/><path class="g" d="M6.623,25.493,5,23.87V20.623L6.623,19H9.87l1.623,1.623V23.87L9.87,25.493Z" transform="translate(2.493 11.22)"/><path class="g" d="M14.623,25.493,13,23.87V20.623L14.623,19H17.87l1.623,1.623V23.87L17.87,25.493Z" transform="translate(7.48 11.22)"/><path class="g" d="M22.623,25.493,21,23.87V20.623L22.623,19H25.87l1.623,1.623V23.87L25.87,25.493Z" transform="translate(12.467 11.22)"/><path class="g" d="M30.623,25.493,29,23.87V20.623L30.623,19H33.87l1.623,1.623V23.87L33.87,25.493Z" transform="translate(17.454 11.22)"/><circle class="g" cx="14.61" cy="14.61" r="14.61" transform="translate(61.064 28.597)"/><rect class="h" width="94.154" height="22.727" transform="translate(1 1)"/><rect class="i" width="6.493" height="4.87" transform="translate(7.493 56.194)"/><rect class="i" width="6.493" height="4.87" transform="translate(20.48 49.7)"/><rect class="i" width="6.493" height="4.87" transform="translate(33.467 59.44)"/><rect class="i" width="6.493" height="4.87" transform="translate(46.454 46.454)"/><path class="j" d="M12.117,19.233H5.623A1.624,1.624,0,0,1,4,17.61V4.623A1.624,1.624,0,0,1,5.623,3h6.493A1.624,1.624,0,0,1,13.74,4.623V17.61A1.624,1.624,0,0,1,12.117,19.233Zm-4.87-3.247h3.247V6.247H7.247Z" transform="translate(1.87 1.247)"/><path class="j" d="M19.117,19.233H12.623A1.624,1.624,0,0,1,11,17.61V4.623A1.624,1.624,0,0,1,12.623,3h6.493A1.624,1.624,0,0,1,20.74,4.623V17.61A1.624,1.624,0,0,1,19.117,19.233Zm-4.87-3.247h3.247V6.247H14.247Z" transform="translate(6.233 1.247)"/><path class="j" d="M29.117,19.233H22.623A1.624,1.624,0,0,1,21,17.61V4.623A1.624,1.624,0,0,1,22.623,3h6.493A1.624,1.624,0,0,1,30.74,4.623V17.61A1.624,1.624,0,0,1,29.117,19.233Zm-4.87-3.247h3.247V6.247H24.247Z" transform="translate(12.467 1.247)"/><path class="j" d="M36.117,19.233H29.623a1.623,1.623,0,1,1,0-3.247h4.87V12.74h-4.87A1.624,1.624,0,0,1,28,11.117V4.623A1.624,1.624,0,0,1,29.623,3h6.493a1.623,1.623,0,1,1,0,3.247h-4.87V9.493h4.87a1.624,1.624,0,0,1,1.623,1.623V17.61A1.624,1.624,0,0,1,36.117,19.233Z" transform="translate(16.83 1.247)"/><circle class="j" cx="1.623" cy="1.623" r="1.623" transform="translate(28.597 7.493)"/><circle class="k" cx="1.623" cy="1.623" r="1.623" transform="translate(61.064 61.064)"/><circle class="k" cx="1.623" cy="1.623" r="1.623" transform="translate(61.064 65.934)"/><circle class="k" cx="1.623" cy="1.623" r="1.623" transform="translate(67.557 61.064)"/><circle class="k" cx="1.623" cy="1.623" r="1.623" transform="translate(67.557 65.934)"/><circle class="l" cx="1.623" cy="1.623" r="1.623" transform="translate(74.05 61.064)"/><circle class="k" cx="1.623" cy="1.623" r="1.623" transform="translate(74.05 65.934)"/><circle class="k" cx="1.623" cy="1.623" r="1.623" transform="translate(80.544 61.064)"/><circle class="l" cx="1.623" cy="1.623" r="1.623" transform="translate(80.544 65.934)"/><circle class="k" cx="1.623" cy="1.623" r="1.623" transform="translate(87.037 61.064)"/><circle class="k" cx="1.623" cy="1.623" r="1.623" transform="translate(87.037 65.934)"/><circle class="j" cx="1.623" cy="1.623" r="1.623" transform="translate(28.597 13.987)"/><circle class="c" cx="1.623" cy="1.623" r="1.623" transform="translate(74.05 31.844)"/><circle class="c" cx="1.623" cy="1.623" r="1.623" transform="translate(74.05 51.324)"/><path class="j" d="M42.87,13.247H39.623a1.623,1.623,0,0,1,0-3.247H42.87a1.623,1.623,0,0,1,0,3.247Z" transform="translate(23.064 5.61)"/><path class="j" d="M47.87,13.247H44.623a1.623,1.623,0,1,1,0-3.247H47.87a1.623,1.623,0,1,1,0,3.247Z" transform="translate(26.18 5.61)"/><path class="j" d="M47.87,10.247H44.623a1.623,1.623,0,1,1,0-3.247H47.87a1.623,1.623,0,1,1,0,3.247Z" transform="translate(26.18 3.74)"/><path class="j" d="M47.87,7.247H44.623a1.623,1.623,0,1,1,0-3.247H47.87a1.623,1.623,0,1,1,0,3.247Z" transform="translate(26.18 1.87)"/><path class="j" d="M52.87,13.247H49.623a1.623,1.623,0,1,1,0-3.247H52.87a1.623,1.623,0,1,1,0,3.247Z" transform="translate(29.297 5.61)"/><path class="j" d="M52.87,10.247H49.623a1.623,1.623,0,1,1,0-3.247H52.87a1.623,1.623,0,1,1,0,3.247Z" transform="translate(29.297 3.74)"/><path class="j" d="M57.87,13.247H54.623a1.623,1.623,0,1,1,0-3.247H57.87a1.623,1.623,0,1,1,0,3.247Z" transform="translate(32.414 5.61)"/><circle class="c" cx="1.623" cy="1.623" r="1.623" transform="translate(83.791 41.584)"/><circle class="c" cx="1.623" cy="1.623" r="1.623" transform="translate(64.31 41.584)"/><circle class="c" cx="1.623" cy="1.623" r="1.623" transform="translate(80.544 35.09)"/><circle class="c" cx="1.623" cy="1.623" r="1.623" transform="translate(67.557 48.077)"/><circle class="c" cx="1.623" cy="1.623" r="1.623" transform="translate(80.544 48.077)"/><circle class="c" cx="1.623" cy="1.623" r="1.623" transform="translate(67.557 35.09)"/><circle class="i" cx="6.493" cy="6.493" r="6.493" transform="translate(77.297 77.297)"/><path class="c" d="M54.387,56.01a1.619,1.619,0,0,1-1.148-.476l-4.592-4.592a1.623,1.623,0,0,1,2.3-2.3l4.592,4.592a1.623,1.623,0,0,1-1.148,2.771Z" transform="translate(29.404 29.404)"/></g></svg>