<svg xmlns="http://www.w3.org/2000/svg" viewBox="-7448 304.04 106.922 95.337">
  <defs>
    <style>
      .cls-1 {
        fill: #707487;
      }

      .cls-2 {
        fill: #afb9d2;
      }

      .cls-3 {
        fill: #c7cfe2;
      }

      .cls-4 {
        fill: #8f96ac;
      }
    </style>
  </defs>
  <g id="ancient" transform="translate(-7448 276.303)">
    <rect id="Rectangle_1" data-name="Rectangle 1" class="cls-1" width="84.8" height="51.618" transform="translate(11.061 64.082)"/>
    <g id="Group_3" data-name="Group 3" transform="translate(1.843 60.396)">
      <path id="Path_1" data-name="Path 1" class="cls-2" d="M110.219,445.654H10.671a1.844,1.844,0,0,1-1.844-1.844v-1.844a1.844,1.844,0,0,1,1.844-1.844h99.548a1.844,1.844,0,0,1,1.844,1.844v1.844A1.844,1.844,0,0,1,110.219,445.654Z" transform="translate(-8.827 -386.662)"/>
      <path id="Path_2" data-name="Path 2" class="cls-2" d="M110.219,189.654H10.671a1.844,1.844,0,0,1-1.844-1.844v-1.844a1.844,1.844,0,0,1,1.844-1.844h99.548a1.844,1.844,0,0,1,1.844,1.844v1.844A1.844,1.844,0,0,1,110.219,189.654Z" transform="translate(-8.827 -184.123)"/>
    </g>
    <g id="Group_4" data-name="Group 4" transform="translate(0 27.737)">
      <path id="Path_3" data-name="Path 3" class="cls-3" d="M105.079,463.309H1.844A1.844,1.844,0,0,1,0,461.465v-1.844a1.844,1.844,0,0,1,1.844-1.844H105.079a1.844,1.844,0,0,1,1.844,1.844v1.844A1.844,1.844,0,0,1,105.079,463.309Z" transform="translate(0 -367.972)"/>
      <path id="Path_4" data-name="Path 4" class="cls-3" d="M105.079,62.239H1.844A1.844,1.844,0,0,1,0,60.4V57.8a1.844,1.844,0,0,1,.953-1.614L51.68,28.2a3.687,3.687,0,0,1,3.562,0l50.727,27.987a1.844,1.844,0,0,1,.953,1.614v2.6A1.843,1.843,0,0,1,105.079,62.239Z" transform="translate(0 -27.737)"/>
    </g>
    <path id="Path_5" data-name="Path 5" class="cls-4" d="M26.872,214.293H19.5a1.844,1.844,0,0,1-1.844-1.844v-1.844H28.716v1.844A1.844,1.844,0,0,1,26.872,214.293Z" transform="translate(-13.968 -144.68)"/>
    <rect id="Rectangle_2" data-name="Rectangle 2" class="cls-2" width="7.374" height="44.244" transform="translate(5.531 69.613)"/>
    <g id="Group_5" data-name="Group 5" transform="translate(3.687 65.926)">
      <path id="Path_6" data-name="Path 6" class="cls-4" d="M19.5,422.469h7.374a1.844,1.844,0,0,1,1.844,1.844v1.844H17.655v-1.844A1.844,1.844,0,0,1,19.5,422.469Z" transform="translate(-17.655 -378.225)"/>
      <path id="Path_7" data-name="Path 7" class="cls-4" d="M238.734,214.293h-7.374a1.844,1.844,0,0,1-1.844-1.844v-1.844h11.061v1.844A1.844,1.844,0,0,1,238.734,214.293Z" transform="translate(-185.273 -210.606)"/>
    </g>
    <rect id="Rectangle_3" data-name="Rectangle 3" class="cls-2" width="7.374" height="44.244" transform="translate(49.774 69.613)"/>
    <g id="Group_6" data-name="Group 6" transform="translate(33.183 65.926)">
      <path id="Path_8" data-name="Path 8" class="cls-4" d="M231.361,422.469h7.374a1.844,1.844,0,0,1,1.844,1.844v1.844H229.517v-1.844A1.844,1.844,0,0,1,231.361,422.469Z" transform="translate(-214.769 -378.225)"/>
      <path id="Path_9" data-name="Path 9" class="cls-4" d="M168.113,214.293H160.74a1.844,1.844,0,0,1-1.844-1.844v-1.844h11.061v1.844A1.843,1.843,0,0,1,168.113,214.293Z" transform="translate(-158.896 -210.606)"/>
    </g>
    <rect id="Rectangle_4" data-name="Rectangle 4" class="cls-2" width="7.374" height="44.244" transform="translate(35.026 69.613)"/>
    <g id="Group_7" data-name="Group 7" transform="translate(18.435 65.926)">
      <path id="Path_10" data-name="Path 10" class="cls-4" d="M160.74,422.469h7.374a1.844,1.844,0,0,1,1.844,1.844v1.844H158.9v-1.844A1.844,1.844,0,0,1,160.74,422.469Z" transform="translate(-144.148 -378.225)"/>
      <path id="Path_11" data-name="Path 11" class="cls-4" d="M97.493,214.293H90.12a1.844,1.844,0,0,1-1.844-1.844v-1.844H99.337v1.844A1.844,1.844,0,0,1,97.493,214.293Z" transform="translate(-88.276 -210.606)"/>
    </g>
    <rect id="Rectangle_5" data-name="Rectangle 5" class="cls-2" width="7.374" height="44.244" transform="translate(20.278 69.613)"/>
    <g id="Group_8" data-name="Group 8" transform="translate(18.435 65.926)">
      <path id="Path_12" data-name="Path 12" class="cls-4" d="M90.119,422.469h7.374a1.844,1.844,0,0,1,1.844,1.844v1.844H88.276v-1.844A1.844,1.844,0,0,1,90.119,422.469Z" transform="translate(-88.276 -378.225)"/>
      <path id="Path_13" data-name="Path 13" class="cls-4" d="M309.355,214.293h-7.374a1.844,1.844,0,0,1-1.844-1.844v-1.844H311.2v1.844A1.844,1.844,0,0,1,309.355,214.293Z" transform="translate(-255.894 -210.606)"/>
    </g>
    <rect id="Rectangle_6" data-name="Rectangle 6" class="cls-2" width="7.374" height="44.244" transform="translate(64.522 69.613)"/>
    <g id="Group_9" data-name="Group 9" transform="translate(62.679 65.926)">
      <path id="Path_14" data-name="Path 14" class="cls-4" d="M301.982,422.469h7.374a1.844,1.844,0,0,1,1.844,1.844v1.844H300.138v-1.844A1.844,1.844,0,0,1,301.982,422.469Z" transform="translate(-300.138 -378.225)"/>
      <path id="Path_15" data-name="Path 15" class="cls-4" d="M450.6,214.293h-7.374a1.844,1.844,0,0,1-1.844-1.844v-1.844H452.44v1.844A1.844,1.844,0,0,1,450.6,214.293Z" transform="translate(-411.883 -210.606)"/>
    </g>
    <rect id="Rectangle_7" data-name="Rectangle 7" class="cls-2" width="7.374" height="44.244" transform="translate(94.018 69.613)"/>
    <g id="Group_10" data-name="Group 10" transform="translate(77.426 65.926)">
      <path id="Path_16" data-name="Path 16" class="cls-4" d="M443.223,422.469H450.6a1.844,1.844,0,0,1,1.844,1.844v1.844H441.379v-1.844A1.844,1.844,0,0,1,443.223,422.469Z" transform="translate(-426.631 -378.225)"/>
      <path id="Path_17" data-name="Path 17" class="cls-4" d="M379.976,214.293H372.6a1.844,1.844,0,0,1-1.844-1.844v-1.844H381.82v1.844A1.844,1.844,0,0,1,379.976,214.293Z" transform="translate(-370.759 -210.606)"/>
    </g>
    <rect id="Rectangle_8" data-name="Rectangle 8" class="cls-2" width="7.374" height="44.244" transform="translate(79.27 69.613)"/>
    <path id="Path_18" data-name="Path 18" class="cls-4" d="M372.6,422.469h7.374a1.844,1.844,0,0,1,1.844,1.844v1.844H370.758v-1.844A1.844,1.844,0,0,1,372.6,422.469Z" transform="translate(-293.332 -312.299)"/>
    <path id="Path_19" data-name="Path 19" class="cls-2" d="M96.834,55.474l42.012,23.179H54.822L96.834,55.474" transform="translate(-43.373 -21.944)"/>
    <g id="Group_11" data-name="Group 11" transform="translate(36.87 43.804)">
      <path id="Path_20" data-name="Path 20" class="cls-4" d="M207.89,134.845h-29.5A1.844,1.844,0,0,1,176.551,133h0a1.844,1.844,0,0,1,1.844-1.844h29.5A1.844,1.844,0,0,1,209.734,133h0A1.843,1.843,0,0,1,207.89,134.845Z" transform="translate(-176.551 -125.627)"/>
      <path id="Path_21" data-name="Path 21" class="cls-4" d="M233.594,108.362H222.533a1.844,1.844,0,0,1-1.844-1.844h0a1.844,1.844,0,0,1,1.844-1.844h11.061a1.844,1.844,0,0,1,1.844,1.844h0A1.844,1.844,0,0,1,233.594,108.362Z" transform="translate(-211.472 -104.675)"/>
    </g>
  </g>
</svg>
