<svg xmlns="http://www.w3.org/2000/svg" viewBox="1595 2088.06 92.235 126.495"><defs><style>.a{fill:#bdc3c7;}.b{fill:#4e5878;}.c{fill:#ecf0f1;}.d{fill:#f2d057;}.e{fill:#556080;}.f,.g{fill:#90bae1;}.g{opacity:0.427;}</style></defs><g transform="translate(1489.856 2018.015)"><path class="a" d="M126.128,187.908c19.274,14.281,46.074,4.846,46.074,4.846l-.073-.073a6.223,6.223,0,0,0,2.35-1.469c6.425-6.351-2.643-25.882-20.192-43.578-17.549-17.732-37.006-26.947-43.394-20.6a6.564,6.564,0,0,0-1.725,3.084C95.252,157.767,121.538,184.494,126.128,187.908Z" transform="translate(0 -34.799)"/><path class="b" d="M142,301.092a5.836,5.836,0,0,0,11.528-1.762,27.735,27.735,0,0,1-4.846-2.9,22.338,22.338,0,0,1-2.35-2.129A5.818,5.818,0,0,0,142,301.092Z" transform="translate(-23.248 -141.925)"/><path class="c" d="M142.3,173.949c16.337,16.484,34.436,25.075,40.384,19.164,5.984-5.911-2.46-24.083-18.8-40.567s-34.436-25.075-40.384-19.164S125.968,157.465,142.3,173.949Z" transform="translate(-10.414 -38.902)"/><g transform="translate(139.101 97.453)"><circle class="d" cx="4.5" cy="4.5" r="4.5" transform="translate(19.043 0.532)"/><path class="a" d="M199.423,185.772a8.14,8.14,0,0,0,5.287,2.423l14.281-20.706-1.725-1.689-19.494,15.015A5.1,5.1,0,0,0,199.423,185.772Z" transform="translate(-197.639 -158.054)"/><path class="a" d="M246.8,150.17a5.47,5.47,0,1,0,5.47-5.47A5.484,5.484,0,0,0,246.8,150.17Zm1.872,0a3.6,3.6,0,1,1,3.6,3.6A3.6,3.6,0,0,1,248.672,150.17Z" transform="translate(-228.752 -144.7)"/></g><path class="e" d="M112.31,356.013a.523.523,0,0,0,.441.22h31.61a.523.523,0,0,0,.441-.22.462.462,0,0,0,.073-.477l-9.509-32.491a.472.472,0,0,0-.367-.367.637.637,0,0,0-.514.11,8.481,8.481,0,0,1-5.654,2.607h0c-3.378,0-5.654-2.827-5.69-2.827a.575.575,0,0,0-.551-.184.632.632,0,0,0-.441.367L112.2,355.572A.713.713,0,0,0,112.31,356.013Z" transform="translate(-4.465 -159.693)"/><g transform="translate(154.38 70.045)"><path class="f" d="M239.419,109.269a1.994,1.994,0,0,0,2.607,1.028c4.809-2.129,11.748.037,16.925,5.176,4.7,4.7,6.9,10.794,5.654,15.566a1.99,1.99,0,0,0,3.855.991c1.615-6.131-1.028-13.731-6.682-19.384-6.388-6.388-14.979-8.811-21.33-6.021a2.367,2.367,0,0,0-.587.4A2.031,2.031,0,0,0,239.419,109.269Z" transform="translate(-239.256 -92.471)"/><path class="g" d="M241.921,74.214a1.994,1.994,0,0,0,2.607,1.028c7.453-3.3,18.209-.037,26.176,7.893,7.2,7.2,10.573,16.631,8.627,24.047a1.99,1.99,0,0,0,3.855.991c2.276-8.738-1.505-19.678-9.655-27.828-9.068-9.068-21.624-12.666-30.545-8.7a2.367,2.367,0,0,0-.587.4A1.845,1.845,0,0,0,241.921,74.214Z" transform="translate(-240.84 -70.045)"/></g></g></svg>