<svg xmlns="http://www.w3.org/2000/svg" viewBox="1319 2105 112.197 110.262"><defs><style>.a{fill:#556080;}.b{fill:#424a60;}.c{fill:#7383bf;}</style></defs><g transform="translate(1319 2104.5)"><path class="a" d="M105.218,37.254H6.979A6.981,6.981,0,0,1,0,30.275V7.479A6.981,6.981,0,0,1,6.979.5h98.236A6.981,6.981,0,0,1,112.2,7.479V30.273A6.981,6.981,0,0,1,105.218,37.254Z" transform="translate(0 0)"/><path class="b" d="M105.218,56.254H6.979A6.981,6.981,0,0,1,0,49.275v-22.8A6.981,6.981,0,0,1,6.979,19.5h98.236a6.98,6.98,0,0,1,6.979,6.979V49.273A6.979,6.979,0,0,1,105.218,56.254Z" transform="translate(0 17.754)"/><path class="a" d="M105.218,75.254H6.979A6.981,6.981,0,0,1,0,68.275v-22.8A6.981,6.981,0,0,1,6.979,38.5h98.236a6.98,6.98,0,0,1,6.979,6.979V68.273A6.979,6.979,0,0,1,105.218,75.254Z" transform="translate(0 35.508)"/><circle class="c" cx="6.771" cy="6.771" r="6.771" transform="translate(11.607 12.107)"/><circle class="c" cx="1.934" cy="1.934" r="1.934" transform="translate(92.853 14.041)"/><circle class="c" cx="1.934" cy="1.934" r="1.934" transform="translate(85.115 14.041)"/><circle class="c" cx="1.934" cy="1.934" r="1.934" transform="translate(96.722 19.844)"/><circle class="c" cx="1.934" cy="1.934" r="1.934" transform="translate(88.984 19.844)"/><circle class="c" cx="1.934" cy="1.934" r="1.934" transform="translate(77.377 14.041)"/><circle class="c" cx="1.934" cy="1.934" r="1.934" transform="translate(81.246 19.844)"/><circle class="c" cx="1.934" cy="1.934" r="1.934" transform="translate(69.64 14.041)"/><circle class="c" cx="1.934" cy="1.934" r="1.934" transform="translate(73.508 19.844)"/><circle class="c" cx="1.934" cy="1.934" r="1.934" transform="translate(61.902 14.041)"/><circle class="c" cx="1.934" cy="1.934" r="1.934" transform="translate(65.771 19.844)"/><circle class="c" cx="6.771" cy="6.771" r="6.771" transform="translate(11.607 48.861)"/><circle class="c" cx="1.934" cy="1.934" r="1.934" transform="translate(92.853 50.795)"/><circle class="c" cx="1.934" cy="1.934" r="1.934" transform="translate(85.115 50.795)"/><circle class="c" cx="1.934" cy="1.934" r="1.934" transform="translate(96.722 56.599)"/><circle class="c" cx="1.934" cy="1.934" r="1.934" transform="translate(88.984 56.599)"/><circle class="c" cx="1.934" cy="1.934" r="1.934" transform="translate(77.377 50.795)"/><circle class="c" cx="1.934" cy="1.934" r="1.934" transform="translate(81.246 56.599)"/><circle class="c" cx="1.934" cy="1.934" r="1.934" transform="translate(69.64 50.795)"/><circle class="c" cx="1.934" cy="1.934" r="1.934" transform="translate(73.508 56.599)"/><circle class="c" cx="1.934" cy="1.934" r="1.934" transform="translate(61.902 50.795)"/><circle class="c" cx="1.934" cy="1.934" r="1.934" transform="translate(65.771 56.599)"/><circle class="c" cx="6.771" cy="6.771" r="6.771" transform="translate(11.607 85.615)"/><circle class="c" cx="1.934" cy="1.934" r="1.934" transform="translate(92.853 87.549)"/><circle class="c" cx="1.934" cy="1.934" r="1.934" transform="translate(85.115 87.549)"/><circle class="c" cx="1.934" cy="1.934" r="1.934" transform="translate(96.722 93.353)"/><circle class="c" cx="1.934" cy="1.934" r="1.934" transform="translate(88.984 93.353)"/><circle class="c" cx="1.934" cy="1.934" r="1.934" transform="translate(77.377 87.549)"/><circle class="c" cx="1.934" cy="1.934" r="1.934" transform="translate(81.246 93.353)"/><circle class="c" cx="1.934" cy="1.934" r="1.934" transform="translate(69.64 87.549)"/><circle class="c" cx="1.934" cy="1.934" r="1.934" transform="translate(73.508 93.353)"/><circle class="c" cx="1.934" cy="1.934" r="1.934" transform="translate(61.902 87.549)"/><circle class="c" cx="1.934" cy="1.934" r="1.934" transform="translate(65.771 93.353)"/></g></svg>