<svg xmlns="http://www.w3.org/2000/svg" viewBox="3270 5468 197.5 337.6">
  <defs>
    <style>
      .cls-1 {
        fill: #fff;
      }
    </style>
  </defs>
  <g id="smLogic_dec" transform="translate(3270 5468)">
    <g id="group">
      <path id="path" class="cls-1" d="M85.1,23.5A23.5,23.5,0,1,0,108.6,0,23.537,23.537,0,0,0,85.1,23.5Zm35.5,0a11.95,11.95,0,1,1-12-12A12.1,12.1,0,0,1,120.6,23.5Z"/>
      <path id="path-2" data-name="path" class="cls-1" d="M197.4,307.4H129.9a23.58,23.58,0,0,0-5.6-9.7l60.5-104.8a23.468,23.468,0,0,0,5.4.7,22.43,22.43,0,0,0,7.3-1.3V179.5a12.132,12.132,0,0,1-7.3,2.5,11.95,11.95,0,1,1,7.3-21.4V147.8a21.964,21.964,0,0,0-7.3-1.3,23.582,23.582,0,0,0-22.9,18.2H46.4a23.591,23.591,0,1,0-.3,11.6H167.7a23.342,23.342,0,0,0,6.9,11.2L114.4,291.8a22.719,22.719,0,0,0-6.9-1.2,23.5,23.5,0,1,0,23,28.4h67V307.4ZM23.5,181.9a11.95,11.95,0,1,1,12-11.9A11.928,11.928,0,0,1,23.5,181.9ZM107.4,326a11.95,11.95,0,1,1,12-11.9A11.928,11.928,0,0,1,107.4,326Z"/>
    </g>
  </g>
</svg>
