<svg xmlns="http://www.w3.org/2000/svg" viewBox="-8066.564 654 136.564 98.682">
  <defs>
    <style>
      .cls-1 {
        fill: #e84a4a;
      }

      .cls-2 {
        opacity: 0.2;
      }

      .cls-3 {
        fill: #333e48;
      }

      .cls-4 {
        fill: #ffb819;
      }

      .cls-5 {
        fill: #7cdfa8;
      }

      .cls-6 {
        fill: #a4a9ad;
      }

      .cls-7 {
        fill: #556080;
      }

      .cls-8 {
        fill: #90bae1;
      }

      .cls-9 {
        fill: #218649;
      }

      .cls-10 {
        fill: #00ad68;
      }
    </style>
  </defs>
  <g id="stadium" transform="translate(-8066.564 582.988)">
    <path class="cls-1" d="M89.784,89.083,68.229,80.934v16.3Z" transform="translate(-50.031 -7.276)"/>
    <path class="cls-2" d="M68.229,80.934v16.3l6.234-2.357V83.291Z" transform="translate(-50.031 -7.276)"/>
    <path class="cls-3" d="M62.221,102.576a2.185,2.185,0,0,1-2.185-2.185V73.2a2.185,2.185,0,1,1,4.371,0v27.193A2.185,2.185,0,0,1,62.221,102.576Z" transform="translate(-44.023)"/>
    <path class="cls-4" d="M251.987,89.083l-21.556-8.149v16.3Z" transform="translate(-168.969 -7.276)"/>
    <path class="cls-2" d="M230.431,80.934v16.3l6.234-2.357V83.291Z" transform="translate(-168.969 -7.276)"/>
    <path class="cls-3" d="M224.423,102.576a2.185,2.185,0,0,1-2.185-2.185V73.2a2.185,2.185,0,1,1,4.371,0v27.193A2.185,2.185,0,0,1,224.423,102.576Z" transform="translate(-162.961)"/>
    <path class="cls-5" d="M414.189,89.083l-21.556-8.149v16.3Z" transform="translate(-287.907 -7.276)"/>
    <path class="cls-2" d="M392.633,80.934v16.3l6.234-2.357V83.291Z" transform="translate(-287.907 -7.276)"/>
    <path class="cls-3" d="M386.625,102.576a2.185,2.185,0,0,1-2.185-2.185V73.2a2.185,2.185,0,1,1,4.371,0v27.193A2.185,2.185,0,0,1,386.625,102.576Z" transform="translate(-281.9)"/>
    <path class="cls-6" d="M162.538,218.869H55.676l7.029,55.962h92.8Z" transform="translate(-40.826 -108.42)"/>
    <path class="cls-7" d="M69.254,326.971,71,340.87h96.127l1.746-13.9Z" transform="translate(-50.782 -187.688)"/>
    <path class="cls-2" d="M55.676,218.869l1.054,8.394H161.484l1.054-8.394Z" transform="translate(-40.826 -108.42)"/>
    <path class="cls-3" d="M148.668,202.061v50.051l-24.18-50.987-1.974.936-1.974-.936L96.36,252.112V202.061H91.99v50.051L67.81,201.125l-1.974.936-1.974-.936-24.18,50.987V202.061h-4.37v59.758a2.185,2.185,0,0,0,4.16.936l24.18-50.987V261.82h4.37V211.769L92.2,262.756a2.185,2.185,0,0,0,3.949,0l24.18-50.987V261.82h4.37V211.769l24.18,50.987a2.185,2.185,0,0,0,4.16-.936V202.061Z" transform="translate(-25.893 -95.408)"/>
    <path class="cls-2" d="M91.989,225.786h4.37v-6.918h-4.37Zm-56.678,0h4.37v-6.918h-4.37Zm26.306-6.917-3.281,6.918h4.837l.477-1.006v1.006h4.37v-1.006l.477,1.006h4.837l-3.281-6.918Zm87.051,0v6.918h4.37v-6.918Zm-30.373,0-3.28,6.918h4.837l.477-1.006v1.006h4.37v-1.006l.477,1.006h4.837l-3.28-6.918Z" transform="translate(-25.893 -108.419)"/>
    <path class="cls-8" d="M136.836,186.559H23.479a7.284,7.284,0,0,1,0-14.568H136.836a7.284,7.284,0,1,1,0,14.568Z" transform="translate(-11.875 -74.045)"/>
    <path class="cls-9" d="M136.564,421.759a1.18,1.18,0,0,1-1.177,1.177H1.177A1.18,1.18,0,0,1,0,421.759v-4.212a1.18,1.18,0,0,1,1.177-1.177H135.387a1.18,1.18,0,0,1,1.177,1.177v4.212Z" transform="translate(0 -253.242)"/>
    <path class="cls-10" d="M47.17,381.659a12.626,12.626,0,0,0-25.252,0Z" transform="translate(-16.072 -218.531)"/>
  </g>
</svg>
